<?xml version="1.0" encoding="UTF-8" standalone="no"?>
<!-- Created with Inkscape (http://www.inkscape.org/) -->

<svg
   version="1.1"
   id="svg405"
   width="140mm"
   height="140mm"
   viewBox="0 0 140 140"
   sodipodi:docname="dino.svg"
   inkscape:version="1.2.1 (9c6d41e410, 2022-07-14)"
   xmlns:inkscape="http://www.inkscape.org/namespaces/inkscape"
   xmlns:sodipodi="http://sodipodi.sourceforge.net/DTD/sodipodi-0.dtd"
   xmlns="http://www.w3.org/2000/svg"
   xmlns:svg="http://www.w3.org/2000/svg">
  <defs
     id="defs409" />
  <sodipodi:namedview
     id="namedview407"
     pagecolor="#ffffff"
     bordercolor="#666666"
     borderopacity="1.0"
     inkscape:showpageshadow="false"
     inkscape:pageopacity="0.0"
     inkscape:pagecheckerboard="true"
     inkscape:deskcolor="#d1d1d1"
     showgrid="false"
     inkscape:zoom="1.5535078"
     inkscape:cx="87.543815"
     inkscape:cy="281.94258"
     inkscape:window-width="1920"
     inkscape:window-height="1038"
     inkscape:window-x="0"
     inkscape:window-y="42"
     inkscape:window-maximized="1"
     inkscape:current-layer="g5068"
     inkscape:document-units="mm" />
  <g
     inkscape:groupmode="layer"
     id="layer2"
     inkscape:label="Edge.Cuts"
     style="display:inline;fill:#800080">
    <g
       id="g701"
       style="display:inline;fill:#800080;stroke:none;stroke-width:1.00013;stroke-dasharray:none"
       transform="translate(-18.851371,8.8658065)" />
    <g
       id="g2443"
       style="display:inline;fill:#800080;stroke:none;stroke-width:1.00013;stroke-dasharray:none"
       transform="matrix(1.202854,0,0,1.202854,-18.832317,14.5073)">
      <path
         id="path2441"
         style="fill:#000000;fill-opacity:1;stroke:none;stroke-width:1.00013;stroke-dasharray:none"
         d="m 83.16011,11.73087 -0.787033,0.197404 c -0.822785,0.206677 -1.281988,0.413149 -2.873209,1.29036 -1.025493,0.565336 -1.46906,0.855719 -2.407605,1.575615 -0.325664,0.249797 -0.942454,0.718795 -1.370459,1.042314 l -0.778248,0.588077 -0.146761,-0.868164 c -0.295846,-1.751533 -1.020934,-3.436483 -1.478979,-3.436483 -0.296812,0 -2.961693,1.343719 -3.604431,1.817461 -0.672672,0.495798 -2.158425,2.085058 -2.946074,3.150712 l -0.587561,0.794267 -0.145211,-0.211357 c -0.721927,-1.047861 -1.232887,-1.239277 -1.956986,-0.733289 -3.413972,2.385624 -5.831914,5.403176 -7.03523,8.779827 -0.389752,1.093684 -0.455748,1.158938 -0.767395,0.762744 -0.437753,-0.556513 -0.58734,-0.462851 -1.92133,1.203544 -0.74414,0.929566 -1.354766,2.294377 -1.588017,3.548621 l -0.129191,0.694531 -0.338481,-0.543636 c -0.41152,-0.661172 -0.519014,-0.668219 -1.257287,-0.08372 -2.583694,2.045569 -4.812111,5.772883 -5.245158,8.772591 -0.08214,0.568994 -0.188095,0.956842 -0.238745,0.874882 -0.153446,-0.248277 -0.49506,-0.164482 -0.852662,0.208773 -0.357853,0.373521 -0.544152,0.377588 -0.544152,0.01189 0,-0.120024 -0.07691,-0.282572 -0.171049,-0.360702 l -0.171049,-0.141593 -0.819072,0.325045 c -0.450363,0.178769 -1.069467,0.532758 -1.375627,0.787032 -0.694395,0.576708 -0.742182,0.574924 -1.084171,-0.03721 -0.660894,-1.182949 -1.145271,-1.18781 -2.378666,-0.02429 -1.022603,0.964672 -1.58104,1.994187 -1.65778,3.055111 l -0.05116,0.703316 -0.905888,0.488859 c -0.498308,0.268784 -1.09947,0.640452 -1.335836,0.826306 -1.473607,1.158694 -4.727451,2.874933 -7.183541,3.788916 -1.140746,0.424506 -2.014521,1.092628 -2.528011,1.932182 l -0.411861,0.672827 -0.05788,0.812354 -0.05839,0.812353 0.30334,0.446485 c 0.166722,0.245353 0.408844,0.51987 0.537952,0.610298 l 0.234611,0.164332 -0.05684,0.589628 -0.05633,0.589628 0.463537,0.514697 c 0.613533,0.681057 1.209828,0.927064 2.663404,1.097608 l 1.206645,0.141593 1.557011,-0.138493 c 1.38191,-0.122905 2.969753,-0.425317 6.376871,-1.214913 1.682625,-0.38994 2.520399,-0.402751 4.728911,-0.07235 l 1.984892,0.296623 1.713074,0.587044 c 2.497925,0.856117 3.475884,1.268617 4.953186,2.088245 0.725998,0.402793 1.711549,0.9221 2.190047,1.154451 l 0.869714,0.422714 v 1.243851 c 0,3.95495 -1.469394,7.782525 -3.975468,10.354408 -0.959007,0.984191 -1.500248,1.974389 -1.604036,2.935738 l -0.07752,0.719852 0.338481,0.660425 c 0.434019,0.846105 1.336157,1.482548 2.378666,1.678451 l 0.719853,0.135392 2.693892,-0.190169 c 3.71624,-0.261893 4.555309,-0.474666 5.266863,-1.337903 l 0.361735,-0.43925 0.378788,0.07545 c 0.745451,0.14909 5.100123,-1.07369 6.274036,-1.76165 1.013832,-0.594144 1.22859,-1.521577 0.86713,-3.750159 -0.113106,-0.697333 -0.169403,-1.799709 -0.156063,-3.060278 0.01147,-1.083576 -0.0031,-2.051258 -0.03256,-2.150256 -0.03448,-0.115785 0.0103,-0.161918 0.126091,-0.129708 0.099,0.02754 1.135136,0.07413 2.302185,0.103353 l 2.121834,0.05271 -0.05943,0.856795 c -0.15954,2.309607 -0.580062,3.909816 -1.345137,5.117517 -0.944486,1.490915 -1.028361,1.691774 -1.028361,2.459282 0,1.818868 1.027447,2.534596 3.202388,2.230354 0.542619,-0.0759 1.391709,-0.195346 1.886707,-0.265616 0.495,-0.07027 1.308873,-0.288419 1.808675,-0.484725 l 0.908989,-0.357085 0.310058,-0.478007 c 0.179457,-0.276762 0.367928,-0.816862 0.447518,-1.281575 0.07566,-0.441724 0.273787,-1.369925 0.440283,-2.062923 0.166499,-0.693 0.376529,-1.711778 0.466639,-2.263428 0.228897,-1.401225 0.252811,-1.399516 1.143599,0.07028 1.180402,1.947653 1.369857,3.431194 0.70435,5.516976 l -0.490409,1.535824 0.06821,0.510563 c 0.124618,0.938301 0.541456,1.506897 1.488282,2.028817 l 0.324011,0.178283 1.79989,-0.07131 c 4.251654,-0.168848 5.112695,-0.449095 6.144328,-1.999362 l 0.430465,-0.646988 0.09147,-0.959632 c 0.08071,-0.847217 -0.02789,-3.179788 -0.1788,-3.840076 -0.193127,-0.844996 -0.552971,-3.85389 -0.622701,-5.208984 l -0.08268,-1.608688 0.469222,0.08165 c 0.257916,0.04503 1.224709,0.13271 2.148707,0.19482 0.923998,0.06211 2.300763,0.168542 3.059761,0.236162 3.908149,0.348162 9.42892,0.07516 15.66003,-0.774113 0.726,-0.09895 2.48102,-0.314452 3.90002,-0.479041 3.21392,-0.372782 4.78234,-0.730138 6.50451,-1.48208 0.69633,-0.304031 2.374,-1.436175 2.4598,-1.659847 0.305,-0.794804 -0.84091,-1.440718 -3.16931,-1.786454 -1.52027,-0.22574 -1.40082,-0.155404 -1.24851,-0.731222 0.0672,-0.254163 0.15816,-0.868853 0.20206,-1.365808 l 0.0801,-0.903821 -0.18449,-0.152445 c -0.34629,-0.287398 -2.47094,-0.640402 -3.56412,-0.592212 l -1.02009,0.04496 -0.68058,0.312643 c -0.37456,0.172062 -0.92106,0.533655 -1.21388,0.803568 -0.61972,0.571237 -0.62961,0.572982 -1.34204,0.22686 -0.69149,-0.335928 -0.68233,-0.406144 0.0641,-0.494544 1.68887,-0.20002 3.29103,-1.958814 4.06487,-4.461743 l 0.25941,-0.839742 -0.28938,-0.250631 c -0.16932,-0.146271 -0.90765,-0.413078 -1.77612,-0.642338 -1.81463,-0.479025 -1.7357,-0.42979 -1.3777,-0.855245 0.16214,-0.192696 0.32977,-0.459891 0.37207,-0.593245 0.14978,-0.471908 -1.02009,-2.022459 -2.00039,-2.651518 l -0.61702,-0.395842 1.41594,-1.34307 c 1.66149,-1.57599 1.65791,-1.495534 0.10438,-2.258777 -1.48905,-0.731568 -4.36356,-2.655289 -4.36356,-2.920236 0,-0.03434 0.21365,-0.29383 0.47439,-0.576709 0.78965,-0.856663 1.78003,-3.021032 1.63918,-3.58221 -0.26361,-1.050302 -3.26334,-3.304236 -5.38365,-4.045231 -0.4455,-0.155691 -0.80973,-0.33752 -0.80925,-0.40411 10e-4,-0.187806 1.85345,-3.538992 2.26911,-4.105693 0.46106,-0.628648 0.46483,-0.818735 0.0191,-0.9741 -0.19317,-0.06734 -0.66084,-0.320714 -1.03921,-0.562757 -0.64648,-0.413543 -2.81461,-1.273388 -4.680859,-1.856217 -1.025959,-0.320409 -2.568733,-0.601791 -3.299024,-0.602031 -0.709603,-2.12e-4 -0.707053,0.0042 -0.501261,-0.873332 0.257912,-1.09985 0.146221,-2.881516 -0.259416,-4.137215 -0.488484,-1.512166 -0.644934,-1.596981 -3.501595,-1.897042 l -1.785421,-0.187585 -1.021126,0.133842 c -1.372972,0.179985 -2.366027,0.416597 -3.234428,0.769462 l -0.722437,0.293005 -0.134359,-0.500744 C 85.355881,17.0851 85.21585,16.623971 85.11813,16.33524 85.02041,16.046509 84.832605,15.398285 84.701101,14.895018 84.431035,13.861475 83.663423,12.143666 83.360614,11.895201 Z" />
    </g>
  </g>
  <g
     inkscape:groupmode="layer"
     id="g4211"
     inkscape:label="B.Mask"
     style="display:inline;fill:#808000">
    <g
       id="g4199"
       style="display:inline;fill:#808000" />
    <g
       id="g4201"
       style="display:inline;fill:#808000" />
    <g
       id="g4209"
       style="display:inline;fill:#808000"
       transform="matrix(1.202854,0,0,1.202854,-18.832317,14.5073)">
      <path
         style="fill:#808000;fill-opacity:1;stroke-width:0.12"
         d="m 109.6422,56.870942 c 0.18579,-0.07098 0.63481,-0.183319 0.99781,-0.249639 1.8419,-0.336513 3.23782,-1.618197 3.66358,-3.363779 l 0.0787,-0.322476 -0.46112,-0.08139 c -0.25362,-0.04476 -1.29812,-0.290864 -2.32112,-0.546885 -3.64917,-0.913256 -6.26635,-0.886357 -8.18144,0.08409 -0.74702,0.378545 -0.75033,0.36746 0.41144,1.375762 1.3143,1.140681 1.68155,1.38519 3.57826,2.382289 1.7419,0.915716 1.7338,0.913098 2.23393,0.722031 z m -7.22219,-6.909859 c 1.20731,-0.362905 1.7007,-0.56303 2.7,-1.095162 1.58668,-0.844917 2.44909,-1.39313 3.39122,-2.155724 0.47783,-0.386767 1.05778,-0.830353 1.28878,-0.985746 1.23679,-0.831984 1.37375,-1.119558 0.69,-1.448791 -0.2805,-0.135064 -1.158,-0.701279 -1.95,-1.258258 -3.75158,-2.638315 -4.44866,-2.992717 -6.50119,-3.305268 l -0.93881,-0.14296 -0.73143,0.188172 c -1.261118,0.324443 -2.056412,0.782448 -3.067075,1.766312 l -0.944513,0.919468 0.8573,1.668437 c 1.113866,2.167749 1.84559,3.442758 2.409989,4.199341 0.250649,0.335998 0.455729,0.6479 0.455729,0.693117 0,0.04522 0.2025,0.354062 0.45,0.686322 l 0.45,0.604109 0.42,-0.07651 c 0.231,-0.04208 0.69,-0.157668 1.02,-0.256861 z M 43.776573,45.950476 c 0.03146,-0.66285 -0.281499,-3.575404 -0.396546,-3.690453 -0.09841,-0.09841 -1.142757,0.48741 -1.781549,0.999357 -0.684409,0.548504 -1.083791,1.175084 -1.178148,1.84837 L 40.38,45.3955 l 0.84,0.431266 c 0.876954,0.450238 2.19356,0.952545 2.4,0.915639 0.066,-0.0118 0.136457,-0.368167 0.15657,-0.791929 z m 5.585151,0.01 c 0.538053,-0.263744 1.233643,-0.682244 1.545753,-0.93 1.291289,-1.025038 2.605226,-2.269728 2.692355,-2.550467 0.469758,-1.513584 -0.608633,-7.137805 -1.816443,-9.473453 l -0.204935,-0.3963 -0.599224,0.584876 c -1.98364,1.936144 -3.282402,4.220804 -3.842615,6.759567 l -0.250385,1.134689 0.14184,1.325311 c 0.07801,0.728921 0.243034,1.62231 0.366715,1.98531 0.123681,0.363 0.311961,0.9705 0.418399,1.35 0.234174,0.834935 0.265812,0.839235 1.54854,0.210467 z M 95.690045,37.5 c 2.460166,-0.52118 4.805435,-3.176008 7.579555,-8.579991 0.0847,-0.165 0.26443,-0.58228 0.39938,-0.927287 l 0.24539,-0.627288 -0.20718,-0.108678 c -1.88291,-0.987694 -5.87927,-1.933945 -8.200933,-1.941802 -3.373193,-0.01141 -6.606536,1.437867 -9.220748,4.133015 -0.600229,0.618813 -0.607943,0.597289 0.414497,1.156673 1.292827,0.707317 2.57177,1.605545 3.581504,2.515367 1.334507,1.202459 2.921556,2.893929 3.449871,3.676857 0.667832,0.989684 0.6449,0.981452 1.958664,0.703134 z M 59.842342,36.99 c 0.36592,-0.3135 0.888588,-0.783006 1.161485,-1.043347 2.045958,-1.951823 4.575242,-3.916495 6.424695,-4.990513 l 1.143164,-0.663861 0.157954,-0.536139 c 0.314476,-1.067429 0.0334,-2.627043 -1.009191,-5.599694 L 66.954618,21.972892 66.171422,20.676446 C 65.740665,19.9634 65.151496,19.14133 64.862159,18.849623 l -0.526068,-0.530379 -0.458043,0.3493 C 60.234495,21.447082 57.533706,26.286446 57.286223,30.48 l -0.07436,1.26 0.315235,1.822768 c 0.332052,1.920014 0.555533,2.588982 1.156885,3.463017 0.447276,0.650094 0.354447,0.652962 1.158358,-0.03578 z M 74.6944,28.192718 c 0.56322,-0.13532 1.665691,-0.264188 2.645605,-0.309247 l 1.68,-0.07725 1.2,0.209617 c 0.66,0.11529 1.558983,0.33574 1.997739,0.489887 l 0.797739,0.28027 0.179019,-0.202998 c 0.253275,-0.2872 0.978488,-2.475493 1.355348,-4.089697 l 0.319078,-1.366701 -0.06659,-1.333299 c -0.113073,-2.264 -0.248169,-2.993372 -1.102689,-5.9533 -0.30881,-1.06967 -0.88501,-2.302628 -1.153692,-2.468684 -0.262422,-0.162185 -2.878982,1.042046 -4.24595,1.954134 -1.640844,1.094826 -2.25214,1.58533 -3.66,2.936786 -0.769645,0.73881 -1.769797,2.069634 -2.192784,2.917764 -1.189625,2.385319 -1.6957,6.954374 -0.862556,7.787518 l 0.175617,0.175616 0.984257,-0.359209 c 0.541341,-0.197566 1.418779,-0.463608 1.949861,-0.591207 z"
         id="path4207"
         sodipodi:nodetypes="csccsssssccssssssscsscsssscssssssscsssssssscsscssssssccsssssssssscsscsscsscsssssscsscsscssssssscsss" />
    </g>
  </g>
  <g
     inkscape:groupmode="layer"
     id="g4098"
     inkscape:label="F.Mask"
     style="display:inline;fill:#808000">
    <path
       id="path4084"
       style="opacity:0.99;fill:#808000;stroke:none;stroke-width:4.54679;stroke-linecap:square;stroke-linejoin:round;stroke-dasharray:none"
       d="m 40.577396,105.01267 c -0.478943,0.0739 -0.951477,0.82347 -0.951477,1.7338 0,1.20611 1.032557,2.35001 1.437787,1.59284 0.212245,-0.39659 0.193378,-2.93827 -0.02349,-3.15514 -0.144176,-0.14418 -0.303169,-0.19614 -0.462818,-0.1715 z m 17.093683,0.42992 c -0.427756,0 -0.723591,0.45326 -0.723591,1.10888 v 0.37119 l 0.397035,-0.0799 c 0.218318,-0.0439 0.575755,-0.14702 0.794071,-0.23022 0.689363,-0.26272 0.327108,-1.16997 -0.467515,-1.16997 z m 8.011196,0.14566 c -0.742145,0 -0.83135,0.5753 -0.218487,1.42134 0.456372,0.63001 1.079104,0.8194 1.247492,0.38059 0.256508,-0.66844 -0.390993,-1.80193 -1.029005,-1.80193 z m 4.491908,0.14331 c -0.601399,0 -1.024346,1.41675 -0.488659,1.63748 0.178423,0.0735 0.946544,-0.0248 1.155867,-0.14801 0.464994,-0.27368 -0.0797,-1.48947 -0.667208,-1.48947 z m -16.534544,0.054 c -0.133284,-0.0271 -0.271356,0.007 -0.401734,0.11512 -0.583784,0.48449 -0.114993,1.89388 0.606125,1.82307 l 0.432276,-0.0423 0.04698,-0.48631 c 0.06791,-0.71003 -0.283801,-1.32831 -0.683652,-1.40959 z m 14.159377,0.13156 c -0.136089,0.0155 -0.271635,0.079 -0.392337,0.1997 -0.689467,0.68946 0.0568,1.66582 1.066593,1.39549 l 0.340652,-0.0892 -0.08223,-0.52155 c -0.10193,-0.63698 -0.524417,-1.03083 -0.932682,-0.98436 z m -12.155403,0.0752 c -0.391727,0.007 -0.716544,0.38638 -0.716545,1.029 0,0.49136 0.124961,0.53121 0.880997,0.27957 0.269858,-0.0898 0.572246,-0.24153 0.674256,-0.33594 l 0.185597,-0.17151 -0.303063,-0.38528 c -0.227025,-0.28863 -0.486207,-0.41983 -0.721242,-0.41584 z m -12.860202,1.06659 c -0.688665,-0.0807 -1.682759,1.40611 -1.322669,1.97813 0.207507,0.32964 1.336128,0.55082 1.834823,0.35945 0.600539,-0.23044 0.155911,-2.2593 -0.512154,-2.33758 z m 2.046262,0.5192 -0.436974,0.43698 c -0.296767,0.29676 -0.436974,0.57916 -0.436974,0.881 v 0.44402 h 1.155867 1.153518 l -0.0024,-0.39704 c -0.0055,-0.4827 -0.561099,-1.1447 -1.064245,-1.27098 z m 33.68931,0.46047 c -0.07329,0.01 -0.146432,0.0368 -0.216138,0.0799 -0.536431,0.33154 0.552156,2.21101 1.289779,2.22716 l 0.202043,0.005 -0.08457,-0.7142 c -0.112515,-0.95005 -0.678084,-1.66489 -1.191107,-1.59754 z m 2.645339,0.77058 c -0.08675,-0.008 -0.172265,-1e-5 -0.253727,0.0259 -0.515195,0.16352 -0.745184,1.18596 -0.354748,1.5764 0.318412,0.31841 1.702339,0.25397 1.766692,-0.0823 0.124944,-0.65277 -0.550982,-1.46551 -1.158217,-1.52001 z m 3.004785,0.22788 -0.439323,0.0446 c -0.486969,0.0477 -0.872562,0.62379 -0.707147,1.05485 l 0.09398,0.24667 0.732989,-0.0986 c 0.403533,-0.0535 0.755287,-0.11632 0.779977,-0.14095 0.02468,-0.0247 -0.07009,-0.2841 -0.20909,-0.57559 z"
       sodipodi:nodetypes="ssccsssssssssssssccssscccssssccssscsscsscccccsssccsssscsscccccsccsccccccscc" />
    <g
       id="g4086"
       style="display:inline;fill:#808000" />
    <g
       id="g4088"
       style="display:inline;fill:#808000" />
    <g
       id="g4092"
       style="display:inline;fill:#808000"
       transform="matrix(1.202854,0,0,1.202854,-18.832317,14.5073)">
      <path
         style="fill:#808000;fill-opacity:1;stroke-width:0.12"
         d="m 73.038218,65.8872 c 0.980548,-0.09491 2.323171,-0.361792 3.867244,-0.76872 L 77.430921,64.98 77.834819,63.54 c 0.222144,-0.792 0.536649,-2.25 0.698899,-3.24 l 0.295001,-1.8 -0.03897,-1.74 c -0.02144,-0.957 -0.0459,-1.772689 -0.05436,-1.812642 -0.04597,-0.217084 -2.092065,-0.523807 -3.435383,-0.514986 l -1.44,0.0095 -1.277998,0.316483 c -1.87175,0.463521 -2.969233,0.975174 -7.792584,3.632959 -0.118316,0.06519 0.1004,1.362754 0.300936,1.785352 0.417024,0.878813 0.475836,3.197557 0.120512,4.751369 l -0.07043,0.307991 0.879781,0.215318 c 1.87275,0.45834 4.865613,0.644232 7.017996,0.4359 z m 34.181792,-0.541996 c 2.40433,-0.297187 6.58125,-0.906454 6.64391,-0.969118 0.0309,-0.03085 -0.80341,-0.05653 -1.85391,-0.05707 -4.97721,-0.0026 -13.857082,-2.065075 -18.050004,-4.192435 -0.495,-0.251148 -1.011762,-0.49092 -1.148362,-0.532825 l -0.24836,-0.07619 -0.729234,1.231218 c -0.744238,1.25655 -1.737525,3.182609 -1.883315,3.651893 l -0.08098,0.260674 0.875127,0.183522 c 0.48132,0.100937 1.982126,0.296883 3.335126,0.435436 1.353,0.138552 2.568,0.272258 2.7,0.297125 0.692934,0.130536 9.000092,-0.05425 10.440002,-0.232227 z M 53.009995,60.57 c -0.03063,-0.0825 -0.363617,-1.041 -0.739976,-2.13 -0.85273,-2.467381 -0.874511,-2.52 -1.043153,-2.52 -0.07606,0 -0.684713,-0.266437 -1.352573,-0.592084 -1.417773,-0.6913 -1.985182,-0.893709 -3.60441,-1.285785 -0.655648,-0.158757 -1.669092,-0.500379 -2.252099,-0.759159 -0.669891,-0.297346 -1.392656,-0.516776 -1.963853,-0.596223 -1.474853,-0.205133 -2.337893,-0.921749 -2.990814,-2.483389 -1.565981,-3.745476 -4.092691,-3.399681 -5.823241,0.796946 -0.821147,1.991302 -1.609178,2.229876 -3.764137,1.139581 -1.822602,-0.922137 -2.645616,-0.80466 -3.827432,0.546333 -0.689131,0.78778 -0.778656,1.134916 -0.471667,1.828917 0.483578,1.093209 1.183759,1.300759 2.911057,0.862912 l 1.239158,-0.31411 0.207188,0.274675 c 0.396291,0.525375 -0.60277,1.010042 -2.570033,1.246781 l -0.695993,0.08376 0.03599,0.195425 c 0.01979,0.107484 0.276934,0.316925 0.571419,0.465425 l 0.535426,0.27 0.964574,-0.0021 c 1.986647,-0.0043 4.507363,-0.38719 6.724573,-1.021488 1.135239,-0.324768 2.313812,-0.484519 4.920001,-0.666887 l 1.92,-0.134351 0.66,0.203446 c 0.363,0.111895 1.47,0.597144 2.46,1.078328 0.99,0.481186 2.128558,0.986048 2.530128,1.121915 0.735029,0.248689 1.521556,0.619392 3.949872,1.861635 1.389471,0.710805 1.560126,0.772274 1.469992,0.529482 z M 26.046825,53.766756 25.873647,53.657188 26.0114,53.354854 c 0.09942,-0.218202 0.312289,-0.354166 0.764957,-0.488594 0.836546,-0.248427 0.943645,-0.236812 0.943645,0.102338 0,0.507159 -1.216165,1.087309 -1.673177,0.798158 z M 35.52158,50.64169 c -0.666821,-0.713834 -0.499452,-1.623479 0.381267,-2.072177 l 0.442845,-0.225616 0.245913,0.131609 c 0.68496,0.36658 0.80195,1.727177 0.193511,2.250534 -0.438618,0.377285 -0.858488,0.349255 -1.263536,-0.08435 z m 1.198422,-1.006997 c 0,-0.290164 -0.305608,-0.649084 -0.439052,-0.515641 -0.09623,0.09623 0.197302,0.800948 0.333611,0.800948 0.05799,0 0.105441,-0.128388 0.105441,-0.285307 z"
         id="path4090"
         sodipodi:nodetypes="cscsscssccsssscsccsccsscsscssssscsssssssssssscsscsscssscssssccscsssssscsssssss" />
    </g>
    <g
       id="g4096"
       style="display:inline;fill:#808000"
       transform="matrix(1.202854,0,0,1.202854,-18.832317,14.5073)">
      <path
         style="fill:#808000;fill-opacity:1;stroke-width:0.12"
         d="m 109.6422,56.870942 c 0.18579,-0.07098 0.63481,-0.183319 0.99781,-0.249639 1.8419,-0.336513 3.23782,-1.618197 3.66358,-3.363779 l 0.0787,-0.322476 -0.46112,-0.08139 c -0.25362,-0.04476 -1.29812,-0.290864 -2.32112,-0.546885 -3.64917,-0.913256 -6.26635,-0.886357 -8.18144,0.08409 -0.74702,0.378545 -0.75033,0.36746 0.41144,1.375762 1.3143,1.140681 1.68155,1.38519 3.57826,2.382289 1.7419,0.915716 1.7338,0.913098 2.23393,0.722031 z m -7.22219,-6.909859 c 1.20731,-0.362905 1.7007,-0.56303 2.7,-1.095162 1.58668,-0.844917 2.44909,-1.39313 3.39122,-2.155724 0.47783,-0.386767 1.05778,-0.830353 1.28878,-0.985746 1.23679,-0.831984 1.37375,-1.119558 0.69,-1.448791 -0.2805,-0.135064 -1.158,-0.701279 -1.95,-1.258258 -3.75158,-2.638315 -4.44866,-2.992717 -6.50119,-3.305268 l -0.93881,-0.14296 -0.73143,0.188172 c -1.261118,0.324443 -2.056412,0.782448 -3.067075,1.766312 l -0.944513,0.919468 0.8573,1.668437 c 1.113866,2.167749 1.84559,3.442758 2.409989,4.199341 0.250649,0.335998 0.455729,0.6479 0.455729,0.693117 0,0.04522 0.2025,0.354062 0.45,0.686322 l 0.45,0.604109 0.42,-0.07651 c 0.231,-0.04208 0.69,-0.157668 1.02,-0.256861 z M 43.776573,45.950476 c 0.03146,-0.66285 -0.281499,-3.575404 -0.396546,-3.690453 -0.09841,-0.09841 -1.142757,0.48741 -1.781549,0.999357 -0.684409,0.548504 -1.083791,1.175084 -1.178148,1.84837 L 40.38,45.3955 l 0.84,0.431266 c 0.876954,0.450238 2.19356,0.952545 2.4,0.915639 0.066,-0.0118 0.136457,-0.368167 0.15657,-0.791929 z m 5.585151,0.01 c 0.538053,-0.263744 1.233643,-0.682244 1.545753,-0.93 1.291289,-1.025038 2.605226,-2.269728 2.692355,-2.550467 0.469758,-1.513584 -0.608633,-7.137805 -1.816443,-9.473453 l -0.204935,-0.3963 -0.599224,0.584876 c -1.98364,1.936144 -3.282402,4.220804 -3.842615,6.759567 l -0.250385,1.134689 0.14184,1.325311 c 0.07801,0.728921 0.243034,1.62231 0.366715,1.98531 0.123681,0.363 0.311961,0.9705 0.418399,1.35 0.234174,0.834935 0.265812,0.839235 1.54854,0.210467 z M 95.690045,37.5 c 2.460166,-0.52118 4.805435,-3.176008 7.579555,-8.579991 0.0847,-0.165 0.26443,-0.58228 0.39938,-0.927287 l 0.24539,-0.627288 -0.20718,-0.108678 c -1.88291,-0.987694 -5.87927,-1.933945 -8.200933,-1.941802 -3.373193,-0.01141 -6.606536,1.437867 -9.220748,4.133015 -0.600229,0.618813 -0.607943,0.597289 0.414497,1.156673 1.292827,0.707317 2.57177,1.605545 3.581504,2.515367 1.334507,1.202459 2.921556,2.893929 3.449871,3.676857 0.667832,0.989684 0.6449,0.981452 1.958664,0.703134 z M 59.842342,36.99 c 0.36592,-0.3135 0.888588,-0.783006 1.161485,-1.043347 2.045958,-1.951823 4.575242,-3.916495 6.424695,-4.990513 l 1.143164,-0.663861 0.157954,-0.536139 c 0.314476,-1.067429 0.0334,-2.627043 -1.009191,-5.599694 L 66.954618,21.972892 66.171422,20.676446 C 65.740665,19.9634 65.151496,19.14133 64.862159,18.849623 l -0.526068,-0.530379 -0.458043,0.3493 C 60.234495,21.447082 57.533706,26.286446 57.286223,30.48 l -0.07436,1.26 0.315235,1.822768 c 0.332052,1.920014 0.555533,2.588982 1.156885,3.463017 0.447276,0.650094 0.354447,0.652962 1.158358,-0.03578 z M 74.6944,28.192718 c 0.56322,-0.13532 1.665691,-0.264188 2.645605,-0.309247 l 1.68,-0.07725 1.2,0.209617 c 0.66,0.11529 1.558983,0.33574 1.997739,0.489887 l 0.797739,0.28027 0.179019,-0.202998 c 0.253275,-0.2872 0.978488,-2.475493 1.355348,-4.089697 l 0.319078,-1.366701 -0.06659,-1.333299 c -0.113073,-2.264 -0.248169,-2.993372 -1.102689,-5.9533 -0.30881,-1.06967 -0.88501,-2.302628 -1.153692,-2.468684 -0.262422,-0.162185 -2.878982,1.042046 -4.24595,1.954134 -1.640844,1.094826 -2.25214,1.58533 -3.66,2.936786 -0.769645,0.73881 -1.769797,2.069634 -2.192784,2.917764 -1.189625,2.385319 -1.6957,6.954374 -0.862556,7.787518 l 0.175617,0.175616 0.984257,-0.359209 c 0.541341,-0.197566 1.418779,-0.463608 1.949861,-0.591207 z"
         id="path4094"
         sodipodi:nodetypes="csccsssssccssssssscsscsssscssssssscsssssssscsscssssssccsssssssssscsscsscsscsssssscsscsscssssssscsss" />
    </g>
  </g>
  <g
     inkscape:groupmode="layer"
     id="g3974"
     inkscape:label="B.Keepout"
     style="display:inline;fill:#d40000">
    <g
       id="g3968"
       style="display:inline;fill:#d40000" />
    <g
       id="g3972"
       style="display:inline;fill:#d40000"
       transform="matrix(1.202854,0,0,1.202854,-18.832317,14.5073)">
      <path
         style="fill:#d40000;fill-opacity:1;stroke-width:0.12"
         d="m 109.6422,56.870942 c 0.18579,-0.07098 0.63481,-0.183319 0.99781,-0.249639 1.8419,-0.336513 3.23782,-1.618197 3.66358,-3.363779 l 0.0787,-0.322476 -0.46112,-0.08139 c -0.25362,-0.04476 -1.29812,-0.290864 -2.32112,-0.546885 -3.64917,-0.913256 -6.26635,-0.886357 -8.18144,0.08409 -0.74702,0.378545 -0.75033,0.36746 0.41144,1.375762 1.3143,1.140681 1.68155,1.38519 3.57826,2.382289 1.7419,0.915716 1.7338,0.913098 2.23393,0.722031 z m -7.22219,-6.909859 c 1.20731,-0.362905 1.7007,-0.56303 2.7,-1.095162 1.58668,-0.844917 2.44909,-1.39313 3.39122,-2.155724 0.47783,-0.386767 1.05778,-0.830353 1.28878,-0.985746 1.23679,-0.831984 1.37375,-1.119558 0.69,-1.448791 -0.2805,-0.135064 -1.158,-0.701279 -1.95,-1.258258 -3.75158,-2.638315 -4.44866,-2.992717 -6.50119,-3.305268 l -0.93881,-0.14296 -0.73143,0.188172 c -1.261118,0.324443 -2.056412,0.782448 -3.067075,1.766312 l -0.944513,0.919468 0.8573,1.668437 c 1.113866,2.167749 1.84559,3.442758 2.409989,4.199341 0.250649,0.335998 0.455729,0.6479 0.455729,0.693117 0,0.04522 0.2025,0.354062 0.45,0.686322 l 0.45,0.604109 0.42,-0.07651 c 0.231,-0.04208 0.69,-0.157668 1.02,-0.256861 z M 43.776573,45.950476 c 0.03146,-0.66285 -0.281499,-3.575404 -0.396546,-3.690453 -0.09841,-0.09841 -1.142757,0.48741 -1.781549,0.999357 -0.684409,0.548504 -1.083791,1.175084 -1.178148,1.84837 L 40.38,45.3955 l 0.84,0.431266 c 0.876954,0.450238 2.19356,0.952545 2.4,0.915639 0.066,-0.0118 0.136457,-0.368167 0.15657,-0.791929 z m 5.585151,0.01 c 0.538053,-0.263744 1.233643,-0.682244 1.545753,-0.93 1.291289,-1.025038 2.605226,-2.269728 2.692355,-2.550467 0.469758,-1.513584 -0.608633,-7.137805 -1.816443,-9.473453 l -0.204935,-0.3963 -0.599224,0.584876 c -1.98364,1.936144 -3.282402,4.220804 -3.842615,6.759567 l -0.250385,1.134689 0.14184,1.325311 c 0.07801,0.728921 0.243034,1.62231 0.366715,1.98531 0.123681,0.363 0.311961,0.9705 0.418399,1.35 0.234174,0.834935 0.265812,0.839235 1.54854,0.210467 z M 95.690045,37.5 c 2.460166,-0.52118 4.805435,-3.176008 7.579555,-8.579991 0.0847,-0.165 0.26443,-0.58228 0.39938,-0.927287 l 0.24539,-0.627288 -0.20718,-0.108678 c -1.88291,-0.987694 -5.87927,-1.933945 -8.200933,-1.941802 -3.373193,-0.01141 -6.606536,1.437867 -9.220748,4.133015 -0.600229,0.618813 -0.607943,0.597289 0.414497,1.156673 1.292827,0.707317 2.57177,1.605545 3.581504,2.515367 1.334507,1.202459 2.921556,2.893929 3.449871,3.676857 0.667832,0.989684 0.6449,0.981452 1.958664,0.703134 z M 59.842342,36.99 c 0.36592,-0.3135 0.888588,-0.783006 1.161485,-1.043347 2.045958,-1.951823 4.575242,-3.916495 6.424695,-4.990513 l 1.143164,-0.663861 0.157954,-0.536139 c 0.314476,-1.067429 0.0334,-2.627043 -1.009191,-5.599694 L 66.954618,21.972892 66.171422,20.676446 C 65.740665,19.9634 65.151496,19.14133 64.862159,18.849623 l -0.526068,-0.530379 -0.458043,0.3493 C 60.234495,21.447082 57.533706,26.286446 57.286223,30.48 l -0.07436,1.26 0.315235,1.822768 c 0.332052,1.920014 0.555533,2.588982 1.156885,3.463017 0.447276,0.650094 0.354447,0.652962 1.158358,-0.03578 z M 74.6944,28.192718 c 0.56322,-0.13532 1.665691,-0.264188 2.645605,-0.309247 l 1.68,-0.07725 1.2,0.209617 c 0.66,0.11529 1.558983,0.33574 1.997739,0.489887 l 0.797739,0.28027 0.179019,-0.202998 c 0.253275,-0.2872 0.978488,-2.475493 1.355348,-4.089697 l 0.319078,-1.366701 -0.06659,-1.333299 c -0.113073,-2.264 -0.248169,-2.993372 -1.102689,-5.9533 -0.30881,-1.06967 -0.88501,-2.302628 -1.153692,-2.468684 -0.262422,-0.162185 -2.878982,1.042046 -4.24595,1.954134 -1.640844,1.094826 -2.25214,1.58533 -3.66,2.936786 -0.769645,0.73881 -1.769797,2.069634 -2.192784,2.917764 -1.189625,2.385319 -1.6957,6.954374 -0.862556,7.787518 l 0.175617,0.175616 0.984257,-0.359209 c 0.541341,-0.197566 1.418779,-0.463608 1.949861,-0.591207 z"
         id="path3970"
         sodipodi:nodetypes="csccsssssccssssssscsscsssscssssssscsssssssscsscssssssccsssssssssscsscsscsscsssssscsscsscssssssscsss" />
    </g>
  </g>
  <g
     inkscape:groupmode="layer"
     id="g1458"
     inkscape:label="F.Keepout"
     style="display:inline">
    <g
       id="g1452"
       style="display:inline" />
    <g
       id="g1456"
       style="display:inline;fill:#00ffff"
       transform="matrix(1.202854,0,0,1.202854,-18.832317,14.5073)">
      <path
         style="fill:#00ffff;fill-opacity:1;stroke-width:0.12"
         d="m 109.6422,56.870942 c 0.18579,-0.07098 0.63481,-0.183319 0.99781,-0.249639 1.8419,-0.336513 3.23782,-1.618197 3.66358,-3.363779 l 0.0787,-0.322476 -0.46112,-0.08139 c -0.25362,-0.04476 -1.29812,-0.290864 -2.32112,-0.546885 -3.64917,-0.913256 -6.26635,-0.886357 -8.18144,0.08409 -0.74702,0.378545 -0.75033,0.36746 0.41144,1.375762 1.3143,1.140681 1.68155,1.38519 3.57826,2.382289 1.7419,0.915716 1.7338,0.913098 2.23393,0.722031 z m -7.22219,-6.909859 c 1.20731,-0.362905 1.7007,-0.56303 2.7,-1.095162 1.58668,-0.844917 2.44909,-1.39313 3.39122,-2.155724 0.47783,-0.386767 1.05778,-0.830353 1.28878,-0.985746 1.23679,-0.831984 1.37375,-1.119558 0.69,-1.448791 -0.2805,-0.135064 -1.158,-0.701279 -1.95,-1.258258 -3.75158,-2.638315 -4.44866,-2.992717 -6.50119,-3.305268 l -0.93881,-0.14296 -0.73143,0.188172 c -1.261118,0.324443 -2.056412,0.782448 -3.067075,1.766312 l -0.944513,0.919468 0.8573,1.668437 c 1.113866,2.167749 1.84559,3.442758 2.409989,4.199341 0.250649,0.335998 0.455729,0.6479 0.455729,0.693117 0,0.04522 0.2025,0.354062 0.45,0.686322 l 0.45,0.604109 0.42,-0.07651 c 0.231,-0.04208 0.69,-0.157668 1.02,-0.256861 z M 43.776573,45.950476 c 0.03146,-0.66285 -0.281499,-3.575404 -0.396546,-3.690453 -0.09841,-0.09841 -1.142757,0.48741 -1.781549,0.999357 -0.684409,0.548504 -1.083791,1.175084 -1.178148,1.84837 L 40.38,45.3955 l 0.84,0.431266 c 0.876954,0.450238 2.19356,0.952545 2.4,0.915639 0.066,-0.0118 0.136457,-0.368167 0.15657,-0.791929 z m 5.585151,0.01 c 0.538053,-0.263744 1.233643,-0.682244 1.545753,-0.93 1.291289,-1.025038 2.605226,-2.269728 2.692355,-2.550467 0.469758,-1.513584 -0.608633,-7.137805 -1.816443,-9.473453 l -0.204935,-0.3963 -0.599224,0.584876 c -1.98364,1.936144 -3.282402,4.220804 -3.842615,6.759567 l -0.250385,1.134689 0.14184,1.325311 c 0.07801,0.728921 0.243034,1.62231 0.366715,1.98531 0.123681,0.363 0.311961,0.9705 0.418399,1.35 0.234174,0.834935 0.265812,0.839235 1.54854,0.210467 z M 95.690045,37.5 c 2.460166,-0.52118 4.805435,-3.176008 7.579555,-8.579991 0.0847,-0.165 0.26443,-0.58228 0.39938,-0.927287 l 0.24539,-0.627288 -0.20718,-0.108678 c -1.88291,-0.987694 -5.87927,-1.933945 -8.200933,-1.941802 -3.373193,-0.01141 -6.606536,1.437867 -9.220748,4.133015 -0.600229,0.618813 -0.607943,0.597289 0.414497,1.156673 1.292827,0.707317 2.57177,1.605545 3.581504,2.515367 1.334507,1.202459 2.921556,2.893929 3.449871,3.676857 0.667832,0.989684 0.6449,0.981452 1.958664,0.703134 z M 59.842342,36.99 c 0.36592,-0.3135 0.888588,-0.783006 1.161485,-1.043347 2.045958,-1.951823 4.575242,-3.916495 6.424695,-4.990513 l 1.143164,-0.663861 0.157954,-0.536139 c 0.314476,-1.067429 0.0334,-2.627043 -1.009191,-5.599694 L 66.954618,21.972892 66.171422,20.676446 C 65.740665,19.9634 65.151496,19.14133 64.862159,18.849623 l -0.526068,-0.530379 -0.458043,0.3493 C 60.234495,21.447082 57.533706,26.286446 57.286223,30.48 l -0.07436,1.26 0.315235,1.822768 c 0.332052,1.920014 0.555533,2.588982 1.156885,3.463017 0.447276,0.650094 0.354447,0.652962 1.158358,-0.03578 z M 74.6944,28.192718 c 0.56322,-0.13532 1.665691,-0.264188 2.645605,-0.309247 l 1.68,-0.07725 1.2,0.209617 c 0.66,0.11529 1.558983,0.33574 1.997739,0.489887 l 0.797739,0.28027 0.179019,-0.202998 c 0.253275,-0.2872 0.978488,-2.475493 1.355348,-4.089697 l 0.319078,-1.366701 -0.06659,-1.333299 c -0.113073,-2.264 -0.248169,-2.993372 -1.102689,-5.9533 -0.30881,-1.06967 -0.88501,-2.302628 -1.153692,-2.468684 -0.262422,-0.162185 -2.878982,1.042046 -4.24595,1.954134 -1.640844,1.094826 -2.25214,1.58533 -3.66,2.936786 -0.769645,0.73881 -1.769797,2.069634 -2.192784,2.917764 -1.189625,2.385319 -1.6957,6.954374 -0.862556,7.787518 l 0.175617,0.175616 0.984257,-0.359209 c 0.541341,-0.197566 1.418779,-0.463608 1.949861,-0.591207 z"
         id="path4796"
         sodipodi:nodetypes="csccsssssccssssssscsscsssscssssssscsssssssscsscssssssccsssssssssscsscsscsscsssssscsscsscssssssscsss" />
    </g>
  </g>
  <g
     inkscape:groupmode="layer"
     id="g5068"
     inkscape:label="F.SilkS"
     style="display:inline;fill:#808000">
    <path
       id="path5054"
       style="opacity:0.99;fill:#00ff00;stroke:none;stroke-width:4.54679;stroke-linecap:square;stroke-linejoin:round;stroke-dasharray:none"
       d="m 40.577396,105.01267 c -0.478943,0.0739 -0.951477,0.82347 -0.951477,1.7338 0,1.20611 1.032557,2.35001 1.437787,1.59284 0.212245,-0.39659 0.193378,-2.93827 -0.02349,-3.15514 -0.144176,-0.14418 -0.303169,-0.19614 -0.462818,-0.1715 z m 17.093683,0.42992 c -0.427756,0 -0.723591,0.45326 -0.723591,1.10888 v 0.37119 l 0.397035,-0.0799 c 0.218318,-0.0439 0.575755,-0.14702 0.794071,-0.23022 0.689363,-0.26272 0.327108,-1.16997 -0.467515,-1.16997 z m 8.011196,0.14566 c -0.742145,0 -0.83135,0.5753 -0.218487,1.42134 0.456372,0.63001 1.079104,0.8194 1.247492,0.38059 0.256508,-0.66844 -0.390993,-1.80193 -1.029005,-1.80193 z m 4.491908,0.14331 c -0.601399,0 -1.024346,1.41675 -0.488659,1.63748 0.178423,0.0735 0.946544,-0.0248 1.155867,-0.14801 0.464994,-0.27368 -0.0797,-1.48947 -0.667208,-1.48947 z m -16.534544,0.054 c -0.133284,-0.0271 -0.271356,0.007 -0.401734,0.11512 -0.583784,0.48449 -0.114993,1.89388 0.606125,1.82307 l 0.432276,-0.0423 0.04698,-0.48631 c 0.06791,-0.71003 -0.283801,-1.32831 -0.683652,-1.40959 z m 14.159377,0.13156 c -0.136089,0.0155 -0.271635,0.079 -0.392337,0.1997 -0.689467,0.68946 0.0568,1.66582 1.066593,1.39549 l 0.340652,-0.0892 -0.08223,-0.52155 c -0.10193,-0.63698 -0.524417,-1.03083 -0.932682,-0.98436 z m -12.155403,0.0752 c -0.391727,0.007 -0.716544,0.38638 -0.716545,1.029 0,0.49136 0.124961,0.53121 0.880997,0.27957 0.269858,-0.0898 0.572246,-0.24153 0.674256,-0.33594 l 0.185597,-0.17151 -0.303063,-0.38528 c -0.227025,-0.28863 -0.486207,-0.41983 -0.721242,-0.41584 z m -12.860202,1.06659 c -0.688665,-0.0807 -1.682759,1.40611 -1.322669,1.97813 0.207507,0.32964 1.336128,0.55082 1.834823,0.35945 0.600539,-0.23044 0.155911,-2.2593 -0.512154,-2.33758 z m 2.046262,0.5192 -0.436974,0.43698 c -0.296767,0.29676 -0.436974,0.57916 -0.436974,0.881 v 0.44402 h 1.155867 1.153518 l -0.0024,-0.39704 c -0.0055,-0.4827 -0.561099,-1.1447 -1.064245,-1.27098 z m 33.68931,0.46047 c -0.07329,0.01 -0.146432,0.0368 -0.216138,0.0799 -0.536431,0.33154 0.552156,2.21101 1.289779,2.22716 l 0.202043,0.005 -0.08457,-0.7142 c -0.112515,-0.95005 -0.678084,-1.66489 -1.191107,-1.59754 z m 2.645339,0.77058 c -0.08675,-0.008 -0.172265,-1e-5 -0.253727,0.0259 -0.515195,0.16352 -0.745184,1.18596 -0.354748,1.5764 0.318412,0.31841 1.702339,0.25397 1.766692,-0.0823 0.124944,-0.65277 -0.550982,-1.46551 -1.158217,-1.52001 z m 3.004785,0.22788 -0.439323,0.0446 c -0.486969,0.0477 -0.872562,0.62379 -0.707147,1.05485 l 0.09398,0.24667 0.732989,-0.0986 c 0.403533,-0.0535 0.755287,-0.11632 0.779977,-0.14095 0.02468,-0.0247 -0.07009,-0.2841 -0.20909,-0.57559 z"
       sodipodi:nodetypes="ssccsssssssssssssccssscccssssccssscsscsscccccsssccsssscsscccccsccsccccccscc" />
    <g
       id="g5056"
       style="display:inline;fill:#808000" />
    <g
       id="g5058"
       style="display:inline;fill:#808000" />
  </g>
</svg>
