%TF.GenerationSoftware,KiCad,Pcbnew,(6.0.7)*%
%TF.CreationDate,2022-08-20T21:46:32+02:00*%
%TF.ProjectId,demoDino,64656d6f-4469-46e6-9f2e-6b696361645f,rev?*%
%TF.SameCoordinates,Original*%
%TF.FileFunction,Profile,NP*%
%FSLAX46Y46*%
G04 Gerber Fmt 4.6, Leading zero omitted, Abs format (unit mm)*
G04 Created by KiCad (PCBNEW (6.0.7)) date 2022-08-20 21:46:32*
%MOMM*%
%LPD*%
G01*
G04 APERTURE LIST*
%TA.AperFunction,Profile*%
%ADD10C,0.000010*%
%TD*%
G04 APERTURE END LIST*
%TO.C,svg2mod*%
D10*
X95438331Y-24815490D02*
X95798250Y-25330553D01*
X96259305Y-26265536D01*
X96712977Y-27377581D01*
X97050741Y-28423832D01*
X97316793Y-29386791D01*
X97552366Y-30156209D01*
X97927180Y-31389448D01*
X98088795Y-31991770D01*
X98957781Y-31639328D01*
X99774112Y-31346092D01*
X100675456Y-31098572D01*
X101690599Y-30890041D01*
X102848325Y-30713777D01*
X104076591Y-30552785D01*
X106224192Y-30778422D01*
X107925303Y-30979717D01*
X109021977Y-31213713D01*
X109689286Y-31575247D01*
X110102302Y-32159159D01*
X110436099Y-33060287D01*
X110734324Y-34289028D01*
X110891426Y-35618819D01*
X110898875Y-36913460D01*
X110748139Y-38036752D01*
X110636703Y-38957731D01*
X111351083Y-39087243D01*
X112168168Y-39146317D01*
X113201838Y-39304902D01*
X114302191Y-39535697D01*
X115319327Y-39811399D01*
X116692249Y-40265058D01*
X118047034Y-40756926D01*
X119278397Y-41245240D01*
X120281053Y-41688238D01*
X120949717Y-42044157D01*
X121658264Y-42461417D01*
X122199735Y-42721071D01*
X122597273Y-43093437D01*
X122176760Y-43892771D01*
X121701026Y-44646451D01*
X121000364Y-45860557D01*
X120264630Y-47191679D01*
X119683675Y-48296404D01*
X119447352Y-48831321D01*
X120420762Y-49317406D01*
X121565885Y-49801288D01*
X122764462Y-50450848D01*
X123940416Y-51208927D01*
X125017673Y-52018364D01*
X125920157Y-52822000D01*
X126571793Y-53562674D01*
X126896507Y-54183228D01*
X126793475Y-54996356D01*
X126330380Y-56204382D01*
X125657426Y-57479049D01*
X124924812Y-58492104D01*
X124354191Y-59185801D01*
X124728111Y-59589014D01*
X125685902Y-60306486D01*
X126981605Y-61173613D01*
X128369263Y-62025792D01*
X129602916Y-62698418D01*
X130652687Y-63243676D01*
X130990339Y-63690302D01*
X130602892Y-64320230D01*
X129477362Y-65415397D01*
X127774193Y-67030914D01*
X128516378Y-67507054D01*
X129415136Y-68244791D01*
X130229212Y-69172635D01*
X130788416Y-70065036D01*
X130922555Y-70696443D01*
X130475009Y-71410031D01*
X130228207Y-71776145D01*
X130636746Y-72029693D01*
X132132181Y-72438765D01*
X133515754Y-72862519D01*
X134268594Y-73211404D01*
X134616676Y-73512877D01*
X134304644Y-74522964D01*
X133847322Y-75755588D01*
X133283603Y-76861469D01*
X132629091Y-77823465D01*
X131899390Y-78624436D01*
X131110105Y-79247241D01*
X130276840Y-79674739D01*
X129415199Y-79889789D01*
X128728044Y-80075569D01*
X129338096Y-80484653D01*
X130187054Y-80762007D01*
X130952374Y-80211774D01*
X131645564Y-79684349D01*
X132412494Y-79245199D01*
X133231133Y-78869135D01*
X134458152Y-78815055D01*
X135624177Y-78853291D01*
X136938610Y-79019853D01*
X138084593Y-79262103D01*
X138745268Y-79527399D01*
X138967183Y-79710768D01*
X138870834Y-80797933D01*
X138759820Y-81728883D01*
X138627785Y-82440801D01*
X138529340Y-82916326D01*
X138886760Y-83125557D01*
X140129561Y-83320354D01*
X141636729Y-83611749D01*
X142787033Y-83981065D01*
X143564974Y-84419569D01*
X143955055Y-84918524D01*
X143941778Y-85469197D01*
X143314947Y-86025130D01*
X142099414Y-86845378D01*
X140982998Y-87465751D01*
X140100217Y-87825763D01*
X139202223Y-88136284D01*
X138251158Y-88405941D01*
X137209164Y-88643362D01*
X136038382Y-88857173D01*
X134700954Y-89056003D01*
X133159022Y-89248477D01*
X131828755Y-89405294D01*
X130500853Y-89566193D01*
X129329246Y-89712287D01*
X128467867Y-89824693D01*
X126980558Y-90019745D01*
X125517963Y-90196217D01*
X124082012Y-90354012D01*
X122674635Y-90493034D01*
X121297760Y-90613188D01*
X119953317Y-90714377D01*
X118643236Y-90796506D01*
X117369445Y-90859479D01*
X116133876Y-90903198D01*
X114938456Y-90927570D01*
X113785116Y-90932496D01*
X112675784Y-90917883D01*
X111612391Y-90883632D01*
X110596866Y-90829649D01*
X109631137Y-90755838D01*
X108518171Y-90662643D01*
X107195971Y-90560546D01*
X105950692Y-90471770D01*
X104357951Y-90346895D01*
X103366111Y-90237430D01*
X102801705Y-90139217D01*
X102901157Y-92074233D01*
X102988962Y-93254198D01*
X103134142Y-94691168D01*
X103310322Y-96164719D01*
X103491125Y-97454431D01*
X103650176Y-98339881D01*
X103774012Y-99253365D01*
X103862188Y-100565088D01*
X103898124Y-101918970D01*
X103865246Y-102958931D01*
X103755221Y-104113229D01*
X103237434Y-104891461D01*
X102705693Y-105601171D01*
X102124145Y-106148200D01*
X101417861Y-106556929D01*
X100511906Y-106851734D01*
X99331350Y-107056996D01*
X97801260Y-107197092D01*
X95846705Y-107296401D01*
X93681700Y-107382177D01*
X93291962Y-107167728D01*
X92354975Y-106506829D01*
X91779432Y-105722154D01*
X91501776Y-104727358D01*
X91419729Y-104113225D01*
X92009620Y-102265853D01*
X92323417Y-101065836D01*
X92461271Y-99950925D01*
X92418639Y-98885489D01*
X92190977Y-97833898D01*
X91773742Y-96760524D01*
X91162390Y-95629736D01*
X90390724Y-94447515D01*
X90027700Y-94425142D01*
X89786807Y-95545200D01*
X89637617Y-96360726D01*
X89435954Y-97338898D01*
X89225508Y-98267773D01*
X88919737Y-99621813D01*
X88695912Y-100749168D01*
X88471810Y-101604721D01*
X88157613Y-102290716D01*
X87784659Y-102865689D01*
X86691278Y-103295210D01*
X85601326Y-103643588D01*
X84515706Y-103878263D01*
X83402470Y-104035472D01*
X82246273Y-104197760D01*
X80841068Y-104269310D01*
X79760196Y-104041608D01*
X78996726Y-103509852D01*
X78543727Y-102669240D01*
X78394268Y-101514970D01*
X78462501Y-100736252D01*
X78805616Y-99915633D01*
X79631236Y-98556813D01*
X80134470Y-97625495D01*
X80543063Y-96562570D01*
X80861838Y-95349741D01*
X81095622Y-93968712D01*
X81249239Y-92401187D01*
X81320725Y-91370588D01*
X78768468Y-91307186D01*
X77453086Y-91266694D01*
X76458187Y-91222009D01*
X75999276Y-91182867D01*
X75847607Y-91338887D01*
X75885651Y-92187995D01*
X75886772Y-93925331D01*
X75898075Y-95367186D01*
X75961792Y-96616203D01*
X76074493Y-97606398D01*
X76266434Y-99341628D01*
X76173331Y-100599092D01*
X75770050Y-101487932D01*
X75031462Y-102117292D01*
X74215867Y-102504641D01*
X73074652Y-102930644D01*
X71750688Y-103355182D01*
X70386842Y-103738136D01*
X69125985Y-104039386D01*
X68110985Y-104218813D01*
X67484713Y-104236300D01*
X67029086Y-104145545D01*
X66593971Y-104673898D01*
X66137930Y-105131767D01*
X65564451Y-105482608D01*
X64781662Y-105749798D01*
X63697690Y-105956709D01*
X62220662Y-106126718D01*
X60258704Y-106283200D01*
X57018345Y-106511946D01*
X56152467Y-106349089D01*
X54969364Y-105947097D01*
X53986433Y-105253548D01*
X53291279Y-104330157D01*
X52884136Y-103535763D01*
X52977382Y-102669886D01*
X53169304Y-101796762D01*
X53556328Y-100914557D01*
X54136234Y-100027200D01*
X54906803Y-99138621D01*
X55697615Y-98258484D01*
X56424248Y-97309568D01*
X57084355Y-96297991D01*
X57675589Y-95229873D01*
X58195604Y-94111330D01*
X58642055Y-92948481D01*
X59012594Y-91747444D01*
X59304875Y-90514338D01*
X59516553Y-89255280D01*
X59645280Y-87976388D01*
X59688710Y-86683780D01*
X59688710Y-85187609D01*
X58642571Y-84679146D01*
X57897857Y-84302581D01*
X56951450Y-83803753D01*
X56008264Y-83290510D01*
X54994722Y-82749554D01*
X54008744Y-82277009D01*
X52933741Y-81823758D01*
X51653124Y-81340680D01*
X50050305Y-80778656D01*
X47989727Y-80072528D01*
X45602192Y-79715734D01*
X44184817Y-79527146D01*
X43035232Y-79439596D01*
X42025515Y-79455043D01*
X41027746Y-79575445D01*
X39914002Y-79802760D01*
X38038245Y-80230524D01*
X36473303Y-80570899D01*
X35165269Y-80834166D01*
X34060237Y-81030606D01*
X33104302Y-81170498D01*
X32243557Y-81264123D01*
X30370700Y-81430710D01*
X28919283Y-81260394D01*
X27475611Y-81008978D01*
X26485636Y-80600930D01*
X25715597Y-79940132D01*
X25158029Y-79321027D01*
X25225786Y-78611790D01*
X25294156Y-77902554D01*
X25011953Y-77704887D01*
X24364876Y-76970787D01*
X24000002Y-76433731D01*
X24070237Y-75456589D01*
X24139858Y-74479446D01*
X24635266Y-73670133D01*
X25178010Y-72952758D01*
X25872744Y-72320851D01*
X26708947Y-71782552D01*
X27676095Y-71346000D01*
X28822888Y-70891690D01*
X30023302Y-70366079D01*
X31240999Y-69788335D01*
X32439639Y-69177626D01*
X33582883Y-68553118D01*
X34634391Y-67933981D01*
X35557825Y-67339382D01*
X36316846Y-66788487D01*
X37002099Y-66328932D01*
X37923661Y-65794562D01*
X39013312Y-65206536D01*
X39074850Y-64360549D01*
X39252391Y-63411159D01*
X39645233Y-62479707D01*
X40251401Y-61569963D01*
X41068918Y-60685697D01*
X42030078Y-59899732D01*
X42757750Y-59641883D01*
X43356302Y-59913246D01*
X43930106Y-60714914D01*
X44423195Y-61273545D01*
X45234205Y-60759673D01*
X45996498Y-60252272D01*
X46888883Y-59812988D01*
X47874107Y-59422006D01*
X48079854Y-59592322D01*
X48285601Y-60026194D01*
X48940137Y-60011892D01*
X49545039Y-59605976D01*
X49965765Y-59760768D01*
X50252940Y-58708413D01*
X50472263Y-57602592D01*
X50810766Y-56461647D01*
X51258057Y-55302967D01*
X51803741Y-54143941D01*
X52437427Y-53001956D01*
X53148720Y-51894403D01*
X53927227Y-50838668D01*
X54762555Y-49852142D01*
X55644310Y-48952212D01*
X56562099Y-48156267D01*
X57465654Y-47644733D01*
X58074432Y-48256970D01*
X58481575Y-48910885D01*
X58636973Y-48075465D01*
X58927926Y-46929282D01*
X59361603Y-45794776D01*
X59910502Y-44733496D01*
X60547126Y-43806992D01*
X61742436Y-42392052D01*
X62381590Y-41991689D01*
X62858205Y-42359305D01*
X63284506Y-42572609D01*
X63781269Y-41441835D01*
X64212045Y-40345077D01*
X64714082Y-39271217D01*
X65286195Y-38221734D01*
X65927200Y-37198108D01*
X66635911Y-36201819D01*
X67411142Y-35234344D01*
X68251709Y-34297165D01*
X69156426Y-33391760D01*
X70124108Y-32519609D01*
X71153569Y-31682191D01*
X72243624Y-30880985D01*
X73048045Y-30559066D01*
X73794913Y-30838908D01*
X74597592Y-31763024D01*
X74772260Y-32017256D01*
X75479010Y-31061869D01*
X76318625Y-30012800D01*
X77302721Y-28909900D01*
X78260886Y-27935524D01*
X79022707Y-27272022D01*
X79976099Y-26690036D01*
X81346546Y-25965261D01*
X82638975Y-25347332D01*
X83358311Y-25085882D01*
X83818673Y-25435481D01*
X84320972Y-26362611D01*
X84786690Y-27684774D01*
X85137307Y-29219469D01*
X85313839Y-30263744D01*
X86249958Y-29556373D01*
X87120352Y-28896244D01*
X87898420Y-28302622D01*
X88876867Y-27577522D01*
X89746247Y-27008545D01*
X90794417Y-26407387D01*
X92321169Y-25591273D01*
X93339927Y-25133683D01*
X94250468Y-24855272D01*
X95197154Y-24617824D01*
X95438331Y-24815490D01*
%TD*%
M02*
