%TF.GenerationSoftware,KiCad,Pcbnew,(6.0.7)*%
%TF.CreationDate,2022-08-20T21:46:37+02:00*%
%TF.ProjectId,demoDino,64656d6f-4469-46e6-9f2e-6b696361645f,rev?*%
%TF.SameCoordinates,Original*%
%TF.FileFunction,Drillmap*%
%TF.FilePolarity,Positive*%
%FSLAX45Y45*%
G04 Gerber Fmt 4.5, Leading zero omitted, Abs format (unit mm)*
G04 Created by KiCad (PCBNEW (6.0.7)) date 2022-08-20 21:46:37*
%MOMM*%
%LPD*%
G01*
G04 APERTURE LIST*
%ADD10C,0.200000*%
%ADD11C,0.100000*%
G04 APERTURE END LIST*
D10*
D11*
X9110906Y-3184747D02*
X9210906Y-3284747D01*
X9210906Y-3184747D02*
X9110906Y-3284747D01*
D10*
X2657619Y-11048694D02*
X2657619Y-10848694D01*
X2705238Y-10848694D01*
X2733809Y-10858218D01*
X2752857Y-10877266D01*
X2762381Y-10896313D01*
X2771904Y-10934409D01*
X2771904Y-10962980D01*
X2762381Y-11001075D01*
X2752857Y-11020123D01*
X2733809Y-11039171D01*
X2705238Y-11048694D01*
X2657619Y-11048694D01*
X2857619Y-11048694D02*
X2857619Y-10915361D01*
X2857619Y-10953456D02*
X2867142Y-10934409D01*
X2876666Y-10924885D01*
X2895714Y-10915361D01*
X2914762Y-10915361D01*
X2981428Y-11048694D02*
X2981428Y-10915361D01*
X2981428Y-10848694D02*
X2971904Y-10858218D01*
X2981428Y-10867742D01*
X2990952Y-10858218D01*
X2981428Y-10848694D01*
X2981428Y-10867742D01*
X3105238Y-11048694D02*
X3086190Y-11039171D01*
X3076666Y-11020123D01*
X3076666Y-10848694D01*
X3210000Y-11048694D02*
X3190952Y-11039171D01*
X3181428Y-11020123D01*
X3181428Y-10848694D01*
X3438571Y-11048694D02*
X3438571Y-10848694D01*
X3505238Y-10991552D01*
X3571904Y-10848694D01*
X3571904Y-11048694D01*
X3752857Y-11048694D02*
X3752857Y-10943932D01*
X3743333Y-10924885D01*
X3724285Y-10915361D01*
X3686190Y-10915361D01*
X3667142Y-10924885D01*
X3752857Y-11039171D02*
X3733809Y-11048694D01*
X3686190Y-11048694D01*
X3667142Y-11039171D01*
X3657619Y-11020123D01*
X3657619Y-11001075D01*
X3667142Y-10982028D01*
X3686190Y-10972504D01*
X3733809Y-10972504D01*
X3752857Y-10962980D01*
X3848095Y-10915361D02*
X3848095Y-11115361D01*
X3848095Y-10924885D02*
X3867142Y-10915361D01*
X3905238Y-10915361D01*
X3924285Y-10924885D01*
X3933809Y-10934409D01*
X3943333Y-10953456D01*
X3943333Y-11010599D01*
X3933809Y-11029647D01*
X3924285Y-11039171D01*
X3905238Y-11048694D01*
X3867142Y-11048694D01*
X3848095Y-11039171D01*
X4029047Y-11029647D02*
X4038571Y-11039171D01*
X4029047Y-11048694D01*
X4019523Y-11039171D01*
X4029047Y-11029647D01*
X4029047Y-11048694D01*
X4029047Y-10924885D02*
X4038571Y-10934409D01*
X4029047Y-10943932D01*
X4019523Y-10934409D01*
X4029047Y-10924885D01*
X4029047Y-10943932D01*
D11*
X2300000Y-11328218D02*
X2400000Y-11428218D01*
X2400000Y-11328218D02*
X2300000Y-11428218D01*
D10*
X2762381Y-11468694D02*
X2648095Y-11468694D01*
X2705238Y-11468694D02*
X2705238Y-11268694D01*
X2686190Y-11297266D01*
X2667143Y-11316313D01*
X2648095Y-11325837D01*
X2848095Y-11449647D02*
X2857619Y-11459170D01*
X2848095Y-11468694D01*
X2838571Y-11459170D01*
X2848095Y-11449647D01*
X2848095Y-11468694D01*
X2981428Y-11268694D02*
X3000476Y-11268694D01*
X3019523Y-11278218D01*
X3029047Y-11287742D01*
X3038571Y-11306790D01*
X3048095Y-11344885D01*
X3048095Y-11392504D01*
X3038571Y-11430599D01*
X3029047Y-11449647D01*
X3019523Y-11459170D01*
X3000476Y-11468694D01*
X2981428Y-11468694D01*
X2962381Y-11459170D01*
X2952857Y-11449647D01*
X2943333Y-11430599D01*
X2933809Y-11392504D01*
X2933809Y-11344885D01*
X2943333Y-11306790D01*
X2952857Y-11287742D01*
X2962381Y-11278218D01*
X2981428Y-11268694D01*
X3171904Y-11268694D02*
X3190952Y-11268694D01*
X3210000Y-11278218D01*
X3219523Y-11287742D01*
X3229047Y-11306790D01*
X3238571Y-11344885D01*
X3238571Y-11392504D01*
X3229047Y-11430599D01*
X3219523Y-11449647D01*
X3210000Y-11459170D01*
X3190952Y-11468694D01*
X3171904Y-11468694D01*
X3152857Y-11459170D01*
X3143333Y-11449647D01*
X3133809Y-11430599D01*
X3124285Y-11392504D01*
X3124285Y-11344885D01*
X3133809Y-11306790D01*
X3143333Y-11287742D01*
X3152857Y-11278218D01*
X3171904Y-11268694D01*
X3362381Y-11268694D02*
X3381428Y-11268694D01*
X3400476Y-11278218D01*
X3410000Y-11287742D01*
X3419523Y-11306790D01*
X3429047Y-11344885D01*
X3429047Y-11392504D01*
X3419523Y-11430599D01*
X3410000Y-11449647D01*
X3400476Y-11459170D01*
X3381428Y-11468694D01*
X3362381Y-11468694D01*
X3343333Y-11459170D01*
X3333809Y-11449647D01*
X3324285Y-11430599D01*
X3314762Y-11392504D01*
X3314762Y-11344885D01*
X3324285Y-11306790D01*
X3333809Y-11287742D01*
X3343333Y-11278218D01*
X3362381Y-11268694D01*
X3514762Y-11468694D02*
X3514762Y-11335361D01*
X3514762Y-11354409D02*
X3524285Y-11344885D01*
X3543333Y-11335361D01*
X3571904Y-11335361D01*
X3590952Y-11344885D01*
X3600476Y-11363932D01*
X3600476Y-11468694D01*
X3600476Y-11363932D02*
X3610000Y-11344885D01*
X3629047Y-11335361D01*
X3657619Y-11335361D01*
X3676666Y-11344885D01*
X3686190Y-11363932D01*
X3686190Y-11468694D01*
X3781428Y-11468694D02*
X3781428Y-11335361D01*
X3781428Y-11354409D02*
X3790952Y-11344885D01*
X3810000Y-11335361D01*
X3838571Y-11335361D01*
X3857619Y-11344885D01*
X3867142Y-11363932D01*
X3867142Y-11468694D01*
X3867142Y-11363932D02*
X3876666Y-11344885D01*
X3895714Y-11335361D01*
X3924285Y-11335361D01*
X3943333Y-11344885D01*
X3952857Y-11363932D01*
X3952857Y-11468694D01*
X4343333Y-11259170D02*
X4171904Y-11516313D01*
X4600476Y-11268694D02*
X4619524Y-11268694D01*
X4638571Y-11278218D01*
X4648095Y-11287742D01*
X4657619Y-11306790D01*
X4667143Y-11344885D01*
X4667143Y-11392504D01*
X4657619Y-11430599D01*
X4648095Y-11449647D01*
X4638571Y-11459170D01*
X4619524Y-11468694D01*
X4600476Y-11468694D01*
X4581428Y-11459170D01*
X4571904Y-11449647D01*
X4562381Y-11430599D01*
X4552857Y-11392504D01*
X4552857Y-11344885D01*
X4562381Y-11306790D01*
X4571904Y-11287742D01*
X4581428Y-11278218D01*
X4600476Y-11268694D01*
X4752857Y-11449647D02*
X4762381Y-11459170D01*
X4752857Y-11468694D01*
X4743333Y-11459170D01*
X4752857Y-11449647D01*
X4752857Y-11468694D01*
X4886190Y-11268694D02*
X4905238Y-11268694D01*
X4924285Y-11278218D01*
X4933809Y-11287742D01*
X4943333Y-11306790D01*
X4952857Y-11344885D01*
X4952857Y-11392504D01*
X4943333Y-11430599D01*
X4933809Y-11449647D01*
X4924285Y-11459170D01*
X4905238Y-11468694D01*
X4886190Y-11468694D01*
X4867143Y-11459170D01*
X4857619Y-11449647D01*
X4848095Y-11430599D01*
X4838571Y-11392504D01*
X4838571Y-11344885D01*
X4848095Y-11306790D01*
X4857619Y-11287742D01*
X4867143Y-11278218D01*
X4886190Y-11268694D01*
X5019524Y-11268694D02*
X5143333Y-11268694D01*
X5076666Y-11344885D01*
X5105238Y-11344885D01*
X5124285Y-11354409D01*
X5133809Y-11363932D01*
X5143333Y-11382980D01*
X5143333Y-11430599D01*
X5133809Y-11449647D01*
X5124285Y-11459170D01*
X5105238Y-11468694D01*
X5048095Y-11468694D01*
X5029047Y-11459170D01*
X5019524Y-11449647D01*
X5238571Y-11468694D02*
X5276666Y-11468694D01*
X5295714Y-11459170D01*
X5305238Y-11449647D01*
X5324285Y-11421075D01*
X5333809Y-11382980D01*
X5333809Y-11306790D01*
X5324285Y-11287742D01*
X5314762Y-11278218D01*
X5295714Y-11268694D01*
X5257619Y-11268694D01*
X5238571Y-11278218D01*
X5229047Y-11287742D01*
X5219524Y-11306790D01*
X5219524Y-11354409D01*
X5229047Y-11373456D01*
X5238571Y-11382980D01*
X5257619Y-11392504D01*
X5295714Y-11392504D01*
X5314762Y-11382980D01*
X5324285Y-11373456D01*
X5333809Y-11354409D01*
X5505238Y-11335361D02*
X5505238Y-11468694D01*
X5457619Y-11259170D02*
X5410000Y-11402028D01*
X5533809Y-11402028D01*
X5600476Y-11268694D02*
X5600476Y-11306790D01*
X5676666Y-11268694D02*
X5676666Y-11306790D01*
X5971904Y-11544885D02*
X5962381Y-11535361D01*
X5943333Y-11506790D01*
X5933809Y-11487742D01*
X5924285Y-11459170D01*
X5914762Y-11411551D01*
X5914762Y-11373456D01*
X5924285Y-11325837D01*
X5933809Y-11297266D01*
X5943333Y-11278218D01*
X5962381Y-11249647D01*
X5971904Y-11240123D01*
X6152857Y-11468694D02*
X6038571Y-11468694D01*
X6095714Y-11468694D02*
X6095714Y-11268694D01*
X6076666Y-11297266D01*
X6057619Y-11316313D01*
X6038571Y-11325837D01*
X6390952Y-11468694D02*
X6390952Y-11268694D01*
X6476666Y-11468694D02*
X6476666Y-11363932D01*
X6467142Y-11344885D01*
X6448095Y-11335361D01*
X6419523Y-11335361D01*
X6400476Y-11344885D01*
X6390952Y-11354409D01*
X6600476Y-11468694D02*
X6581428Y-11459170D01*
X6571904Y-11449647D01*
X6562381Y-11430599D01*
X6562381Y-11373456D01*
X6571904Y-11354409D01*
X6581428Y-11344885D01*
X6600476Y-11335361D01*
X6629047Y-11335361D01*
X6648095Y-11344885D01*
X6657619Y-11354409D01*
X6667142Y-11373456D01*
X6667142Y-11430599D01*
X6657619Y-11449647D01*
X6648095Y-11459170D01*
X6629047Y-11468694D01*
X6600476Y-11468694D01*
X6781428Y-11468694D02*
X6762381Y-11459170D01*
X6752857Y-11440123D01*
X6752857Y-11268694D01*
X6933809Y-11459170D02*
X6914762Y-11468694D01*
X6876666Y-11468694D01*
X6857619Y-11459170D01*
X6848095Y-11440123D01*
X6848095Y-11363932D01*
X6857619Y-11344885D01*
X6876666Y-11335361D01*
X6914762Y-11335361D01*
X6933809Y-11344885D01*
X6943333Y-11363932D01*
X6943333Y-11382980D01*
X6848095Y-11402028D01*
X7010000Y-11544885D02*
X7019523Y-11535361D01*
X7038571Y-11506790D01*
X7048095Y-11487742D01*
X7057619Y-11459170D01*
X7067142Y-11411551D01*
X7067142Y-11373456D01*
X7057619Y-11325837D01*
X7048095Y-11297266D01*
X7038571Y-11278218D01*
X7019523Y-11249647D01*
X7010000Y-11240123D01*
M02*
