%TF.GenerationSoftware,KiCad,Pcbnew,(6.0.7)*%
%TF.CreationDate,2022-08-20T21:46:31+02:00*%
%TF.ProjectId,demoDino,64656d6f-4469-46e6-9f2e-6b696361645f,rev?*%
%TF.SameCoordinates,Original*%
%TF.FileFunction,Copper,L1,Top*%
%TF.FilePolarity,Positive*%
%FSLAX46Y46*%
G04 Gerber Fmt 4.6, Leading zero omitted, Abs format (unit mm)*
G04 Created by KiCad (PCBNEW (6.0.7)) date 2022-08-20 21:46:31*
%MOMM*%
%LPD*%
G01*
G04 APERTURE LIST*
%TA.AperFunction,ComponentPad*%
%ADD10C,3.000000*%
%TD*%
G04 APERTURE END LIST*
D10*
%TO.P,svg2mod,*%
%TO.N,*%
X91609062Y-32347466D03*
%TD*%
%TA.AperFunction,NonConductor*%
G36*
X95055439Y-25198241D02*
G01*
X95113589Y-25238974D01*
X95118435Y-25245455D01*
X95353798Y-25582272D01*
X95363523Y-25598718D01*
X95793309Y-26470291D01*
X95796967Y-26478422D01*
X96233152Y-27547604D01*
X96236393Y-27556489D01*
X96562666Y-28567148D01*
X96564210Y-28572303D01*
X96816213Y-29484411D01*
X96817729Y-29490481D01*
X96818282Y-29492954D01*
X96818975Y-29497779D01*
X96820402Y-29502439D01*
X96820402Y-29502440D01*
X96828010Y-29527288D01*
X96828981Y-29530622D01*
X96836380Y-29557403D01*
X96838177Y-29561516D01*
X96839551Y-29565393D01*
X96841273Y-29570608D01*
X97066054Y-30304780D01*
X97066129Y-30305027D01*
X97077918Y-30343817D01*
X97423822Y-31481932D01*
X97437619Y-31527329D01*
X97438754Y-31531297D01*
X97571309Y-32025313D01*
X97583806Y-32071889D01*
X97587546Y-32092625D01*
X97589421Y-32112364D01*
X97592744Y-32120703D01*
X97603324Y-32147255D01*
X97605340Y-32152672D01*
X97605971Y-32154493D01*
X97607130Y-32158815D01*
X97608894Y-32162936D01*
X97608894Y-32162937D01*
X97618128Y-32184514D01*
X97619339Y-32187444D01*
X97643340Y-32247674D01*
X97647359Y-32252813D01*
X97649927Y-32258814D01*
X97691150Y-32308874D01*
X97693137Y-32311349D01*
X97733069Y-32362412D01*
X97738369Y-32366217D01*
X97742518Y-32371255D01*
X97796147Y-32407743D01*
X97798677Y-32409511D01*
X97851394Y-32447355D01*
X97857551Y-32449520D01*
X97862945Y-32453190D01*
X97886065Y-32460671D01*
X97924630Y-32473150D01*
X97927633Y-32474164D01*
X97988804Y-32495674D01*
X97995319Y-32496024D01*
X98001528Y-32498033D01*
X98029349Y-32498825D01*
X98066321Y-32499877D01*
X98069491Y-32500007D01*
X98125290Y-32503003D01*
X98125292Y-32503003D01*
X98134252Y-32503484D01*
X98140607Y-32501990D01*
X98147127Y-32502176D01*
X98155805Y-32499904D01*
X98155808Y-32499904D01*
X98192649Y-32490260D01*
X98209868Y-32485752D01*
X98212931Y-32484992D01*
X98226596Y-32481780D01*
X98243201Y-32477877D01*
X98247702Y-32476052D01*
X98248182Y-32475899D01*
X98254471Y-32474077D01*
X98279350Y-32467564D01*
X98279356Y-32467562D01*
X98288037Y-32465289D01*
X98308402Y-32453067D01*
X98325876Y-32444346D01*
X98776779Y-32261469D01*
X99136991Y-32115375D01*
X99141751Y-32113555D01*
X99868004Y-31852676D01*
X99923068Y-31832896D01*
X99932289Y-31829979D01*
X100790107Y-31594412D01*
X100798102Y-31592495D01*
X101158035Y-31518558D01*
X101776887Y-31391434D01*
X101783275Y-31390292D01*
X102918371Y-31217472D01*
X102920961Y-31217106D01*
X103819326Y-31099355D01*
X104068411Y-31066707D01*
X104097949Y-31066328D01*
X106166977Y-31283709D01*
X106168488Y-31283878D01*
X107836429Y-31481249D01*
X107847896Y-31483147D01*
X108437328Y-31608913D01*
X108826432Y-31691936D01*
X108860156Y-31704375D01*
X109316828Y-31951791D01*
X109359669Y-31989811D01*
X109599315Y-32328614D01*
X109639092Y-32384850D01*
X109654378Y-32413843D01*
X109695657Y-32525283D01*
X109946391Y-33202172D01*
X109950682Y-33216221D01*
X110231141Y-34371763D01*
X110233826Y-34386698D01*
X110264566Y-34646894D01*
X110373160Y-35566077D01*
X110382271Y-35643199D01*
X110383139Y-35657250D01*
X110384997Y-35980200D01*
X110390128Y-36872170D01*
X110389011Y-36889653D01*
X110249281Y-37930930D01*
X110248809Y-37933754D01*
X110248079Y-37936343D01*
X110244650Y-37964681D01*
X110243816Y-37971576D01*
X110243609Y-37973197D01*
X110240407Y-37997063D01*
X110239300Y-38005311D01*
X110239324Y-38007990D01*
X110239057Y-38010907D01*
X110134438Y-38875545D01*
X110133193Y-38883626D01*
X110123453Y-38935540D01*
X110128232Y-38983638D01*
X110128818Y-38993323D01*
X110129873Y-39041645D01*
X110132581Y-39050205D01*
X110133522Y-39055890D01*
X110135584Y-39065923D01*
X110136968Y-39071549D01*
X110137856Y-39080484D01*
X110141216Y-39088811D01*
X110155932Y-39125281D01*
X110159220Y-39134432D01*
X110173797Y-39180521D01*
X110178799Y-39187978D01*
X110181297Y-39193169D01*
X110186119Y-39202271D01*
X110189000Y-39207236D01*
X110192359Y-39215560D01*
X110222290Y-39253494D01*
X110228005Y-39261340D01*
X110254933Y-39301488D01*
X110261823Y-39307239D01*
X110265697Y-39311541D01*
X110272828Y-39318870D01*
X110277021Y-39322859D01*
X110282583Y-39329909D01*
X110321963Y-39357921D01*
X110329646Y-39363846D01*
X110366760Y-39394822D01*
X110374994Y-39398411D01*
X110379896Y-39401438D01*
X110388829Y-39406490D01*
X110393960Y-39409135D01*
X110401275Y-39414339D01*
X110409756Y-39417280D01*
X110409760Y-39417282D01*
X110446921Y-39430168D01*
X110455980Y-39433707D01*
X110492055Y-39449430D01*
X110492060Y-39449431D01*
X110500287Y-39453017D01*
X110553999Y-39459850D01*
X110556689Y-39460192D01*
X110563264Y-39461206D01*
X111244743Y-39584753D01*
X111250579Y-39585954D01*
X111270159Y-39590469D01*
X111270162Y-39590469D01*
X111274904Y-39591563D01*
X111279764Y-39591914D01*
X111279769Y-39591915D01*
X111280485Y-39591967D01*
X111287430Y-39592845D01*
X111287433Y-39592815D01*
X111291883Y-39593299D01*
X111296302Y-39594100D01*
X111300787Y-39594267D01*
X111300791Y-39594267D01*
X111322232Y-39595063D01*
X111326641Y-39595304D01*
X112106150Y-39651660D01*
X112116171Y-39652789D01*
X113107616Y-39804896D01*
X113114374Y-39806122D01*
X114179811Y-40029593D01*
X114186910Y-40031298D01*
X115169622Y-40297669D01*
X115176190Y-40299643D01*
X116523945Y-40744986D01*
X116527367Y-40746172D01*
X117864792Y-41231738D01*
X117868241Y-41233048D01*
X119079580Y-41713421D01*
X119084053Y-41715295D01*
X119205192Y-41768817D01*
X120054332Y-42143988D01*
X120062602Y-42148009D01*
X120277948Y-42262634D01*
X120698736Y-42486613D01*
X120703471Y-42489266D01*
X121380745Y-42888110D01*
X121388117Y-42892803D01*
X121398666Y-42900045D01*
X121398669Y-42900047D01*
X121402674Y-42902796D01*
X121414061Y-42908257D01*
X121423505Y-42913291D01*
X121427829Y-42915838D01*
X121427838Y-42915843D01*
X121431692Y-42918112D01*
X121448798Y-42925143D01*
X121455376Y-42928069D01*
X121859968Y-43122085D01*
X121912743Y-43169576D01*
X121931465Y-43238059D01*
X121916999Y-43294359D01*
X121793679Y-43528772D01*
X121738369Y-43633908D01*
X121733407Y-43642500D01*
X121377552Y-44206263D01*
X121290682Y-44343886D01*
X121286199Y-44350160D01*
X121286209Y-44350167D01*
X121283462Y-44354177D01*
X121280405Y-44357973D01*
X121277972Y-44362188D01*
X121277965Y-44362199D01*
X121266879Y-44381410D01*
X121264312Y-44385661D01*
X121251535Y-44405904D01*
X121249706Y-44409992D01*
X121248795Y-44411691D01*
X121244126Y-44420839D01*
X121207383Y-44484506D01*
X120579175Y-45573063D01*
X120576796Y-45576919D01*
X120574483Y-45579903D01*
X120558134Y-45609483D01*
X120557059Y-45611388D01*
X120541692Y-45638014D01*
X120540290Y-45641510D01*
X120538141Y-45645654D01*
X120178480Y-46296368D01*
X119838240Y-46911945D01*
X119835527Y-46916543D01*
X119833007Y-46919938D01*
X119830739Y-46924250D01*
X119830737Y-46924254D01*
X119817627Y-46949185D01*
X119816420Y-46951425D01*
X119801923Y-46977652D01*
X119800431Y-46981584D01*
X119797981Y-46986543D01*
X119702015Y-47169029D01*
X119246589Y-48035052D01*
X119241116Y-48044450D01*
X119234554Y-48054677D01*
X119232585Y-48059135D01*
X119227280Y-48071142D01*
X119223545Y-48078872D01*
X119216619Y-48092042D01*
X119215115Y-48096269D01*
X119212274Y-48104253D01*
X119208821Y-48112924D01*
X119135735Y-48278354D01*
X118989358Y-48609677D01*
X118986486Y-48615737D01*
X118960846Y-48666308D01*
X118959197Y-48675133D01*
X118952660Y-48710111D01*
X118950111Y-48721033D01*
X118944856Y-48739747D01*
X118938059Y-48763950D01*
X118938155Y-48772923D01*
X118938155Y-48772924D01*
X118938173Y-48774568D01*
X118936035Y-48799068D01*
X118934088Y-48809487D01*
X118934981Y-48818414D01*
X118934981Y-48818418D01*
X118938524Y-48853828D01*
X118939143Y-48865017D01*
X118939622Y-48909599D01*
X118942233Y-48918183D01*
X118942233Y-48918186D01*
X118942710Y-48919755D01*
X118947534Y-48943864D01*
X118948590Y-48954421D01*
X118965298Y-48995743D01*
X118969030Y-49006303D01*
X118982000Y-49048955D01*
X118987814Y-49057836D01*
X118999212Y-49079624D01*
X119003188Y-49089459D01*
X119008755Y-49096504D01*
X119030814Y-49124421D01*
X119037362Y-49133511D01*
X119061787Y-49170817D01*
X119068615Y-49176646D01*
X119068619Y-49176650D01*
X119069859Y-49177708D01*
X119086914Y-49195421D01*
X119093491Y-49203745D01*
X119100808Y-49208942D01*
X119129829Y-49229556D01*
X119138669Y-49236447D01*
X119172570Y-49265386D01*
X119180755Y-49269062D01*
X119228038Y-49290297D01*
X119232708Y-49292510D01*
X119314970Y-49333589D01*
X120167301Y-49759212D01*
X120177326Y-49764803D01*
X120182204Y-49767823D01*
X120182213Y-49767828D01*
X120186346Y-49770386D01*
X120190828Y-49772280D01*
X120204336Y-49777988D01*
X120211565Y-49781316D01*
X120226252Y-49788650D01*
X120237079Y-49792249D01*
X120246366Y-49795748D01*
X121339637Y-50257719D01*
X121350627Y-50263003D01*
X121503469Y-50345835D01*
X122500967Y-50886422D01*
X122509202Y-50891298D01*
X123645754Y-51623976D01*
X123653173Y-51629145D01*
X124691122Y-52409046D01*
X124699216Y-52415672D01*
X125553111Y-53176043D01*
X125563918Y-53186914D01*
X126139596Y-53841250D01*
X126156636Y-53866061D01*
X126353651Y-54242573D01*
X126367012Y-54316829D01*
X126298627Y-54856527D01*
X126291277Y-54885789D01*
X125869183Y-55986862D01*
X125862957Y-56000587D01*
X125228572Y-57202198D01*
X125219247Y-57217208D01*
X124524346Y-58178114D01*
X124519555Y-58184322D01*
X123992590Y-58824949D01*
X123990094Y-58827983D01*
X123977897Y-58840847D01*
X123956980Y-58860008D01*
X123919402Y-58922035D01*
X123881793Y-58983916D01*
X123881698Y-58984272D01*
X123881507Y-58984587D01*
X123862839Y-59054703D01*
X123847687Y-59111292D01*
X123844119Y-59124617D01*
X123844127Y-59124984D01*
X123844032Y-59125342D01*
X123844245Y-59134122D01*
X123844245Y-59134125D01*
X123844460Y-59142959D01*
X123845782Y-59197377D01*
X123847448Y-59270236D01*
X123847560Y-59270589D01*
X123847569Y-59270956D01*
X123850263Y-59279401D01*
X123850263Y-59279403D01*
X123869418Y-59339454D01*
X123869472Y-59339624D01*
X123885482Y-59390061D01*
X123891515Y-59409069D01*
X123891722Y-59409377D01*
X123891833Y-59409725D01*
X123896791Y-59417078D01*
X123896792Y-59417080D01*
X123926072Y-59460503D01*
X123932284Y-59469716D01*
X123972776Y-59529952D01*
X123997590Y-59550619D01*
X124009334Y-59561754D01*
X124223369Y-59792557D01*
X124306956Y-59882693D01*
X124310808Y-59887364D01*
X124313359Y-59892160D01*
X124338295Y-59917702D01*
X124359634Y-59939559D01*
X124361835Y-59941871D01*
X124380086Y-59961552D01*
X124383562Y-59964367D01*
X124384836Y-59965559D01*
X124387788Y-59968448D01*
X124388144Y-59968760D01*
X124391543Y-59972242D01*
X124395443Y-59975164D01*
X124395446Y-59975166D01*
X124412752Y-59988130D01*
X124416518Y-59991064D01*
X124457630Y-60024366D01*
X124457637Y-60024370D01*
X124464608Y-60030017D01*
X124471835Y-60033042D01*
X124480165Y-60038628D01*
X124659258Y-60172785D01*
X125354967Y-60693934D01*
X125364772Y-60702085D01*
X125366578Y-60703748D01*
X125366586Y-60703755D01*
X125370165Y-60707050D01*
X125374213Y-60709759D01*
X125389072Y-60719703D01*
X125394520Y-60723562D01*
X125410262Y-60735354D01*
X125414194Y-60737506D01*
X125414198Y-60737508D01*
X125417375Y-60739246D01*
X125426972Y-60745067D01*
X126668024Y-61575620D01*
X126674080Y-61580199D01*
X126674095Y-61580179D01*
X126678034Y-61583039D01*
X126681744Y-61586197D01*
X126685897Y-61588748D01*
X126685902Y-61588751D01*
X126704959Y-61600454D01*
X126709069Y-61603089D01*
X126729134Y-61616517D01*
X126733161Y-61618450D01*
X126735265Y-61619651D01*
X126743760Y-61624282D01*
X127009057Y-61787204D01*
X128074982Y-62441802D01*
X128085658Y-62449141D01*
X128091063Y-62453281D01*
X128111508Y-62464428D01*
X128117095Y-62467665D01*
X128130449Y-62475866D01*
X128130453Y-62475868D01*
X128134273Y-62478214D01*
X128138386Y-62479994D01*
X128138393Y-62479998D01*
X128141251Y-62481235D01*
X128151518Y-62486243D01*
X129325661Y-63126422D01*
X129330078Y-63128997D01*
X129333374Y-63131418D01*
X129337689Y-63133659D01*
X129337695Y-63133663D01*
X129362871Y-63146739D01*
X129365112Y-63147932D01*
X129391554Y-63162349D01*
X129395371Y-63163772D01*
X129400144Y-63166099D01*
X130277017Y-63621553D01*
X130328250Y-63670702D01*
X130344777Y-63739749D01*
X130326263Y-63799380D01*
X130211135Y-63986560D01*
X130191681Y-64010853D01*
X129464059Y-64718846D01*
X129125645Y-65048131D01*
X129124488Y-65049243D01*
X127436161Y-66650683D01*
X127431579Y-66654820D01*
X127387548Y-66692650D01*
X127365758Y-66726163D01*
X127363950Y-66728943D01*
X127357122Y-66738446D01*
X127330248Y-66772398D01*
X127325776Y-66783432D01*
X127314635Y-66804789D01*
X127308149Y-66814764D01*
X127305566Y-66823358D01*
X127305565Y-66823359D01*
X127295685Y-66856225D01*
X127291795Y-66867274D01*
X127275536Y-66907389D01*
X127274635Y-66916318D01*
X127274341Y-66919230D01*
X127269643Y-66942853D01*
X127268801Y-66945653D01*
X127268800Y-66945659D01*
X127266216Y-66954255D01*
X127266148Y-66963235D01*
X127266148Y-66963236D01*
X127265889Y-66997543D01*
X127265256Y-67009241D01*
X127260910Y-67052311D01*
X127262552Y-67061138D01*
X127263087Y-67064013D01*
X127265208Y-67088006D01*
X127265118Y-67099909D01*
X127267573Y-67108544D01*
X127267573Y-67108547D01*
X127276954Y-67141549D01*
X127279630Y-67152957D01*
X127287546Y-67195512D01*
X127291597Y-67203518D01*
X127291598Y-67203522D01*
X127292922Y-67206138D01*
X127301690Y-67228567D01*
X127302490Y-67231380D01*
X127304945Y-67240016D01*
X127309723Y-67247613D01*
X127309724Y-67247615D01*
X127327990Y-67276657D01*
X127333757Y-67286849D01*
X127353304Y-67325482D01*
X127361445Y-67334170D01*
X127376158Y-67353240D01*
X127382494Y-67363313D01*
X127414895Y-67392011D01*
X127423293Y-67400177D01*
X127446759Y-67425221D01*
X127446762Y-67425223D01*
X127452897Y-67431771D01*
X127460618Y-67436330D01*
X127460626Y-67436337D01*
X127506475Y-67463412D01*
X127510441Y-67465854D01*
X128210539Y-67914993D01*
X128222446Y-67923653D01*
X128307899Y-67993796D01*
X129052383Y-68604899D01*
X129067146Y-68619185D01*
X129367513Y-68961529D01*
X129813342Y-69469664D01*
X129825398Y-69485858D01*
X130297880Y-70239862D01*
X130314360Y-70280584D01*
X130371764Y-70550795D01*
X130366355Y-70621585D01*
X130355258Y-70643925D01*
X130049788Y-71130980D01*
X130047523Y-71134463D01*
X129846230Y-71433068D01*
X129841489Y-71439324D01*
X129836545Y-71443702D01*
X129802409Y-71497963D01*
X129800283Y-71501227D01*
X129786154Y-71522186D01*
X129784198Y-71526226D01*
X129781966Y-71530106D01*
X129781850Y-71530039D01*
X129779052Y-71535089D01*
X129758982Y-71566991D01*
X129754186Y-71583858D01*
X129746399Y-71604299D01*
X129738754Y-71620088D01*
X129737268Y-71628938D01*
X129732511Y-71657256D01*
X129729447Y-71670845D01*
X129721596Y-71698453D01*
X129721595Y-71698461D01*
X129719140Y-71707094D01*
X129719207Y-71716072D01*
X129719270Y-71724636D01*
X129717533Y-71746438D01*
X129714628Y-71763733D01*
X129715686Y-71772647D01*
X129719067Y-71801143D01*
X129719942Y-71815050D01*
X129720221Y-71852748D01*
X129722802Y-71861337D01*
X129722803Y-71861344D01*
X129725269Y-71869550D01*
X129729721Y-71890962D01*
X129730729Y-71899458D01*
X129730731Y-71899465D01*
X129731788Y-71908376D01*
X129735305Y-71916635D01*
X129746549Y-71943040D01*
X129751291Y-71956143D01*
X129762139Y-71992243D01*
X129767031Y-71999768D01*
X129767032Y-71999771D01*
X129771697Y-72006947D01*
X129781980Y-72026248D01*
X129788854Y-72042390D01*
X129812766Y-72071537D01*
X129820976Y-72082756D01*
X129841524Y-72114366D01*
X129854828Y-72125799D01*
X129870115Y-72141440D01*
X129881240Y-72155000D01*
X129888650Y-72160061D01*
X129888652Y-72160063D01*
X129912354Y-72176252D01*
X129920862Y-72182780D01*
X129922712Y-72184137D01*
X129926406Y-72187311D01*
X129947505Y-72200406D01*
X129952083Y-72203389D01*
X130001518Y-72237154D01*
X130010037Y-72239928D01*
X130020818Y-72245905D01*
X130247375Y-72386511D01*
X130327720Y-72436375D01*
X130343023Y-72447549D01*
X130355410Y-72458110D01*
X130355413Y-72458112D01*
X130362242Y-72463934D01*
X130396722Y-72479393D01*
X130398171Y-72480098D01*
X130399627Y-72481002D01*
X130403664Y-72482772D01*
X130430153Y-72494387D01*
X130431079Y-72494797D01*
X130464366Y-72509721D01*
X130466022Y-72510174D01*
X130467535Y-72510776D01*
X130491022Y-72521074D01*
X130491024Y-72521075D01*
X130499245Y-72524679D01*
X130528181Y-72528424D01*
X130545247Y-72531846D01*
X131988794Y-72926724D01*
X131992387Y-72927765D01*
X133325303Y-73336004D01*
X133341366Y-73342153D01*
X133937634Y-73618478D01*
X133991029Y-73665268D01*
X134010652Y-73733499D01*
X134005041Y-73769987D01*
X133824008Y-74356012D01*
X133821769Y-74362606D01*
X133383407Y-75544129D01*
X133377535Y-75557516D01*
X132848742Y-76594878D01*
X132840660Y-76608532D01*
X132233957Y-77500260D01*
X132222925Y-77514238D01*
X131558582Y-78243466D01*
X131543490Y-78257525D01*
X130843587Y-78809801D01*
X130823051Y-78822994D01*
X130109775Y-79188933D01*
X130082772Y-79199076D01*
X129866159Y-79253139D01*
X129329418Y-79387100D01*
X129324672Y-79388140D01*
X129320726Y-79388574D01*
X129288375Y-79397320D01*
X129286097Y-79397912D01*
X129260988Y-79404178D01*
X129260975Y-79404182D01*
X129256637Y-79405265D01*
X129252980Y-79406755D01*
X129248139Y-79408199D01*
X128639638Y-79572714D01*
X128621902Y-79576167D01*
X128603511Y-79578394D01*
X128603509Y-79578394D01*
X128594603Y-79579473D01*
X128560544Y-79594074D01*
X128560341Y-79594153D01*
X128560083Y-79594223D01*
X128527828Y-79608100D01*
X128460728Y-79636866D01*
X128460470Y-79637079D01*
X128460165Y-79637210D01*
X128453267Y-79642913D01*
X128453261Y-79642916D01*
X128404555Y-79683179D01*
X128404432Y-79683282D01*
X128355141Y-79723922D01*
X128355138Y-79723925D01*
X128348344Y-79729527D01*
X128348156Y-79729803D01*
X128347900Y-79730015D01*
X128307197Y-79790085D01*
X128271480Y-79842650D01*
X128271479Y-79842653D01*
X128266483Y-79850005D01*
X128266381Y-79850321D01*
X128266194Y-79850597D01*
X128263470Y-79859072D01*
X128243956Y-79919772D01*
X128243907Y-79919925D01*
X128224470Y-79980122D01*
X128224469Y-79980126D01*
X128221728Y-79988616D01*
X128221719Y-79988946D01*
X128221616Y-79989266D01*
X128221378Y-79998216D01*
X128221378Y-79998218D01*
X128219687Y-80061929D01*
X128219682Y-80062092D01*
X128219245Y-80077808D01*
X128217674Y-80134217D01*
X128217759Y-80134540D01*
X128217750Y-80134873D01*
X128220036Y-80143538D01*
X128220036Y-80143539D01*
X128226912Y-80169603D01*
X128236327Y-80205290D01*
X128254649Y-80275103D01*
X128254819Y-80275386D01*
X128254905Y-80275712D01*
X128292516Y-80338113D01*
X128329679Y-80399950D01*
X128329925Y-80400177D01*
X128330096Y-80400461D01*
X128383421Y-80449532D01*
X128411937Y-80475841D01*
X128412160Y-80475990D01*
X128412333Y-80476138D01*
X128437278Y-80499093D01*
X128465443Y-80513026D01*
X128479743Y-80521310D01*
X128831844Y-80757419D01*
X128971085Y-80850790D01*
X129011371Y-80877805D01*
X129027518Y-80890669D01*
X129042756Y-80905000D01*
X129076534Y-80922168D01*
X129081625Y-80924916D01*
X129085216Y-80927324D01*
X129110920Y-80939692D01*
X129111390Y-80939918D01*
X129113847Y-80941133D01*
X129142528Y-80955710D01*
X129146662Y-80957061D01*
X129151738Y-80959332D01*
X129173997Y-80970041D01*
X129183233Y-80974485D01*
X129202483Y-80977670D01*
X129207743Y-80978540D01*
X129226306Y-80983080D01*
X130007832Y-81238405D01*
X130015975Y-81241379D01*
X130055446Y-81257355D01*
X130055450Y-81257356D01*
X130063769Y-81260723D01*
X130113035Y-81265672D01*
X130122183Y-81266930D01*
X130170987Y-81275485D01*
X130179905Y-81274491D01*
X130188881Y-81274772D01*
X130188880Y-81274797D01*
X130190797Y-81274786D01*
X130190796Y-81274761D01*
X130199765Y-81274383D01*
X130208697Y-81275280D01*
X130257394Y-81266198D01*
X130266519Y-81264840D01*
X130291109Y-81262100D01*
X130306830Y-81260349D01*
X130306831Y-81260349D01*
X130315749Y-81259355D01*
X130324030Y-81255898D01*
X130332722Y-81253649D01*
X130332728Y-81253673D01*
X130334567Y-81253125D01*
X130334559Y-81253100D01*
X130343061Y-81250220D01*
X130351885Y-81248574D01*
X130359893Y-81244518D01*
X130359895Y-81244517D01*
X130396057Y-81226199D01*
X130404455Y-81222325D01*
X130441884Y-81206701D01*
X130441885Y-81206700D01*
X130450165Y-81203244D01*
X130493383Y-81168300D01*
X130499050Y-81163977D01*
X130621138Y-81076201D01*
X131217415Y-80647501D01*
X131222639Y-80643941D01*
X131224471Y-80642759D01*
X131228755Y-80640441D01*
X131253489Y-80621621D01*
X131256164Y-80619642D01*
X131278855Y-80603329D01*
X131282088Y-80600222D01*
X131284959Y-80597831D01*
X131289293Y-80594380D01*
X131920506Y-80114111D01*
X131934191Y-80105043D01*
X132640540Y-79700581D01*
X132650554Y-79695427D01*
X133330547Y-79383054D01*
X133377595Y-79371673D01*
X134198973Y-79335472D01*
X134456180Y-79324136D01*
X134465857Y-79324082D01*
X134715971Y-79332284D01*
X135577929Y-79360549D01*
X135589625Y-79361479D01*
X136848769Y-79521035D01*
X136858981Y-79522758D01*
X137106488Y-79575078D01*
X137925428Y-79748194D01*
X137946321Y-79754545D01*
X138348590Y-79916077D01*
X138404351Y-79960022D01*
X138427501Y-80027138D01*
X138427146Y-80044125D01*
X138365170Y-80743447D01*
X138364776Y-80747244D01*
X138257327Y-81648298D01*
X138256100Y-81656355D01*
X138203494Y-81940000D01*
X138134546Y-82311765D01*
X138129022Y-82341548D01*
X138128523Y-82344093D01*
X138046390Y-82740833D01*
X138034602Y-82797772D01*
X138033269Y-82803525D01*
X138018659Y-82860448D01*
X138018958Y-82869419D01*
X138020076Y-82903029D01*
X138019905Y-82915015D01*
X138017268Y-82957559D01*
X138020047Y-82969838D01*
X138023085Y-82993458D01*
X138023503Y-83006025D01*
X138026306Y-83014548D01*
X138026308Y-83014558D01*
X138036818Y-83046512D01*
X138040017Y-83058063D01*
X138049424Y-83099623D01*
X138053782Y-83107468D01*
X138053784Y-83107473D01*
X138055533Y-83110621D01*
X138065082Y-83132447D01*
X138069010Y-83144391D01*
X138074095Y-83151788D01*
X138093154Y-83179514D01*
X138099455Y-83189683D01*
X138120159Y-83226952D01*
X138129115Y-83235799D01*
X138144395Y-83254054D01*
X138151523Y-83264423D01*
X138184559Y-83291361D01*
X138193463Y-83299357D01*
X138223788Y-83329310D01*
X138231686Y-83333571D01*
X138231689Y-83333573D01*
X138279154Y-83359179D01*
X138282985Y-83361333D01*
X138611582Y-83553692D01*
X138618490Y-83558042D01*
X138646893Y-83577241D01*
X138662297Y-83587654D01*
X138708247Y-83602370D01*
X138717412Y-83605702D01*
X138762092Y-83623930D01*
X138771019Y-83624852D01*
X138771021Y-83624852D01*
X138799490Y-83627791D01*
X138818719Y-83629776D01*
X138825276Y-83630628D01*
X139511275Y-83738152D01*
X140039693Y-83820977D01*
X140044100Y-83821748D01*
X141502887Y-84103789D01*
X141517475Y-84107526D01*
X142570187Y-84445509D01*
X142593525Y-84455708D01*
X142848192Y-84599257D01*
X143204969Y-84800363D01*
X143242363Y-84832521D01*
X143362578Y-84986288D01*
X143407696Y-85043998D01*
X143414530Y-85052740D01*
X143440728Y-85118726D01*
X143441228Y-85133376D01*
X143440607Y-85159135D01*
X143440084Y-85180809D01*
X143418445Y-85248427D01*
X143397726Y-85272037D01*
X143008895Y-85616889D01*
X142995770Y-85627066D01*
X141837725Y-86408520D01*
X141828448Y-86414213D01*
X141242947Y-86739567D01*
X140769312Y-87002758D01*
X140755693Y-87009290D01*
X139924130Y-87348414D01*
X139917748Y-87350816D01*
X139053049Y-87649825D01*
X139046247Y-87651964D01*
X138128382Y-87912208D01*
X138122007Y-87913836D01*
X138005608Y-87940358D01*
X137109641Y-88144506D01*
X137104285Y-88145605D01*
X135957329Y-88355065D01*
X135953221Y-88355745D01*
X134633552Y-88551934D01*
X134630631Y-88552334D01*
X133098271Y-88743614D01*
X133097415Y-88743718D01*
X131808199Y-88895696D01*
X131807603Y-88895744D01*
X131806915Y-88895721D01*
X131804982Y-88895955D01*
X131804972Y-88895956D01*
X131768353Y-88900393D01*
X131767950Y-88900441D01*
X131756329Y-88901811D01*
X131732961Y-88904566D01*
X131732299Y-88904742D01*
X131731713Y-88904833D01*
X130478627Y-89056666D01*
X130477973Y-89056721D01*
X130477242Y-89056699D01*
X130438846Y-89061487D01*
X130403439Y-89065777D01*
X130402726Y-89065969D01*
X130402091Y-89066070D01*
X129305033Y-89202868D01*
X129303933Y-89202965D01*
X129302728Y-89202936D01*
X129299471Y-89203361D01*
X129299460Y-89203362D01*
X129265162Y-89207838D01*
X129264548Y-89207917D01*
X129248788Y-89209882D01*
X129233306Y-89211812D01*
X129233297Y-89211814D01*
X129230093Y-89212213D01*
X129228934Y-89212529D01*
X129227840Y-89212708D01*
X129043127Y-89236812D01*
X128441261Y-89315354D01*
X128441166Y-89315362D01*
X128441024Y-89315359D01*
X128440613Y-89315413D01*
X128440612Y-89315413D01*
X128401510Y-89320541D01*
X128401429Y-89320552D01*
X128365862Y-89325193D01*
X128365736Y-89325229D01*
X128365620Y-89325248D01*
X127840634Y-89394097D01*
X126917637Y-89515143D01*
X126916533Y-89515282D01*
X125983133Y-89627903D01*
X125460309Y-89690985D01*
X125458979Y-89691138D01*
X124029927Y-89848174D01*
X124028550Y-89848318D01*
X122628245Y-89986641D01*
X122626813Y-89986774D01*
X121257312Y-90106285D01*
X121255815Y-90106407D01*
X119919082Y-90207016D01*
X119917508Y-90207124D01*
X119589495Y-90227687D01*
X118615555Y-90288743D01*
X118614036Y-90288828D01*
X117349648Y-90351337D01*
X117348790Y-90351379D01*
X117347025Y-90351454D01*
X116120638Y-90394848D01*
X116118809Y-90394899D01*
X115655538Y-90404345D01*
X114933231Y-90419071D01*
X114931201Y-90419096D01*
X113788483Y-90423977D01*
X113786285Y-90423967D01*
X112688518Y-90409506D01*
X112686122Y-90409452D01*
X111635343Y-90375607D01*
X111632711Y-90375494D01*
X110631234Y-90322258D01*
X110628320Y-90322070D01*
X109672160Y-90248990D01*
X109671248Y-90248917D01*
X109171518Y-90207072D01*
X108599395Y-90159165D01*
X108598148Y-90159016D01*
X108596816Y-90158702D01*
X108593168Y-90158420D01*
X108593166Y-90158420D01*
X108559323Y-90155806D01*
X108558517Y-90155741D01*
X108536516Y-90153900D01*
X108524216Y-90152870D01*
X108522864Y-90152950D01*
X108521577Y-90152892D01*
X107273992Y-90056557D01*
X107272854Y-90056428D01*
X107271644Y-90056150D01*
X107268292Y-90055911D01*
X107268283Y-90055910D01*
X107248062Y-90054469D01*
X107233890Y-90053458D01*
X107233353Y-90053418D01*
X107215833Y-90052066D01*
X107202047Y-90051001D01*
X107202040Y-90051001D01*
X107198715Y-90050744D01*
X107197480Y-90050825D01*
X107196323Y-90050780D01*
X105989180Y-89964723D01*
X105988292Y-89964657D01*
X104407712Y-89840736D01*
X104403738Y-89840361D01*
X103441563Y-89734169D01*
X103433784Y-89733064D01*
X102910412Y-89641992D01*
X102902156Y-89640268D01*
X102860186Y-89630031D01*
X102860184Y-89630031D01*
X102851460Y-89627903D01*
X102842490Y-89628309D01*
X102842488Y-89628309D01*
X102802577Y-89630116D01*
X102793094Y-89630188D01*
X102766190Y-89629380D01*
X102744184Y-89628718D01*
X102735496Y-89630978D01*
X102727886Y-89631835D01*
X102722459Y-89632655D01*
X102714921Y-89634085D01*
X102705951Y-89634491D01*
X102697457Y-89637398D01*
X102659658Y-89650334D01*
X102650575Y-89653065D01*
X102611904Y-89663122D01*
X102611901Y-89663123D01*
X102603216Y-89665382D01*
X102595513Y-89669988D01*
X102588431Y-89672955D01*
X102583479Y-89675252D01*
X102576632Y-89678747D01*
X102568140Y-89681653D01*
X102560807Y-89686825D01*
X102560804Y-89686826D01*
X102528147Y-89709857D01*
X102520196Y-89715027D01*
X102478205Y-89740137D01*
X102472103Y-89746722D01*
X102466131Y-89751563D01*
X102462025Y-89755155D01*
X102456437Y-89760429D01*
X102449105Y-89765599D01*
X102418633Y-89803896D01*
X102412463Y-89811078D01*
X102385298Y-89840391D01*
X102385296Y-89840393D01*
X102379199Y-89846973D01*
X102375193Y-89855001D01*
X102370837Y-89861298D01*
X102367897Y-89865911D01*
X102364008Y-89872551D01*
X102358416Y-89879579D01*
X102355023Y-89887891D01*
X102355022Y-89887892D01*
X102339925Y-89924872D01*
X102336013Y-89933510D01*
X102318166Y-89969272D01*
X102318164Y-89969277D01*
X102314159Y-89977303D01*
X102312567Y-89986134D01*
X102310158Y-89993387D01*
X102308616Y-89998690D01*
X102306756Y-90006118D01*
X102303362Y-90014432D01*
X102302438Y-90023362D01*
X102298325Y-90063111D01*
X102296996Y-90072490D01*
X102288312Y-90120649D01*
X102289263Y-90129577D01*
X102294263Y-90176534D01*
X102294805Y-90183409D01*
X102354934Y-91353330D01*
X102384289Y-91924471D01*
X102391341Y-92061689D01*
X102391490Y-92067852D01*
X102391119Y-92072463D01*
X102391480Y-92077311D01*
X102393520Y-92104729D01*
X102393701Y-92107612D01*
X102395201Y-92136798D01*
X102396061Y-92141185D01*
X102396122Y-92141679D01*
X102396719Y-92147720D01*
X102478966Y-93252983D01*
X102479278Y-93259377D01*
X102479317Y-93261049D01*
X102479056Y-93265899D01*
X102482196Y-93296972D01*
X102482486Y-93300283D01*
X102484574Y-93328345D01*
X102485538Y-93332726D01*
X102486000Y-93335882D01*
X102486690Y-93341462D01*
X102586266Y-94327053D01*
X102624349Y-94703993D01*
X102624668Y-94708459D01*
X102624535Y-94712201D01*
X102625113Y-94717033D01*
X102628552Y-94745799D01*
X102628805Y-94748093D01*
X102631888Y-94778610D01*
X102632785Y-94782230D01*
X102633453Y-94786794D01*
X102716678Y-95482871D01*
X102800842Y-96186814D01*
X102801309Y-96191962D01*
X102801247Y-96196084D01*
X102801922Y-96200897D01*
X102801922Y-96200901D01*
X102805852Y-96228936D01*
X102806181Y-96231467D01*
X102809753Y-96261341D01*
X102810815Y-96265315D01*
X102811691Y-96270584D01*
X102874615Y-96719438D01*
X102982386Y-97488196D01*
X102982992Y-97495634D01*
X102983031Y-97495630D01*
X102983519Y-97500466D01*
X102983632Y-97505343D01*
X102984495Y-97510147D01*
X102988476Y-97532312D01*
X102989241Y-97537094D01*
X102992618Y-97561186D01*
X102993865Y-97565496D01*
X102994478Y-97568367D01*
X102996533Y-97577163D01*
X103043470Y-97838466D01*
X103114769Y-98235389D01*
X103147275Y-98416355D01*
X103148118Y-98421706D01*
X103267239Y-99300414D01*
X103268097Y-99308889D01*
X103353968Y-100586330D01*
X103354208Y-100591438D01*
X103389314Y-101914028D01*
X103389295Y-101921352D01*
X103357636Y-102922748D01*
X103357130Y-102930723D01*
X103264134Y-103906364D01*
X103243606Y-103964204D01*
X103152862Y-104100593D01*
X102823895Y-104595029D01*
X102819849Y-104600756D01*
X102599082Y-104895411D01*
X102331725Y-105252249D01*
X102317218Y-105268476D01*
X101829176Y-105727550D01*
X101805957Y-105744827D01*
X101221046Y-106083317D01*
X101196924Y-106094078D01*
X100397611Y-106354181D01*
X100380206Y-106358503D01*
X99269525Y-106551617D01*
X99259430Y-106552954D01*
X97767704Y-106689537D01*
X97762609Y-106689900D01*
X97180469Y-106719478D01*
X95824409Y-106788378D01*
X95823048Y-106788439D01*
X95380991Y-106805953D01*
X93837931Y-106867088D01*
X93772201Y-106851579D01*
X93568060Y-106739253D01*
X93556177Y-106731825D01*
X93496224Y-106689537D01*
X92732716Y-106151001D01*
X92703742Y-106122558D01*
X92257877Y-105514681D01*
X92238116Y-105474033D01*
X92003463Y-104633312D01*
X91999934Y-104616124D01*
X91942624Y-104187150D01*
X91947485Y-104132138D01*
X92484134Y-102451505D01*
X92488614Y-102439588D01*
X92489615Y-102437286D01*
X92489616Y-102437282D01*
X92491556Y-102432822D01*
X92497294Y-102410879D01*
X92499166Y-102404426D01*
X92503769Y-102390012D01*
X92505131Y-102385747D01*
X92505874Y-102381334D01*
X92505876Y-102381327D01*
X92506490Y-102377680D01*
X92508839Y-102366730D01*
X92595347Y-102035910D01*
X92813158Y-101202960D01*
X92813879Y-101200320D01*
X92821879Y-101172233D01*
X92821879Y-101172231D01*
X92823213Y-101167549D01*
X92823809Y-101162723D01*
X92823930Y-101162129D01*
X92824068Y-101161235D01*
X92824613Y-101159154D01*
X92828829Y-101122171D01*
X92828963Y-101121041D01*
X92860842Y-100863218D01*
X92957074Y-100084924D01*
X92957419Y-100083129D01*
X92958164Y-100081363D01*
X92966707Y-100007063D01*
X92966834Y-100005995D01*
X92969908Y-99981128D01*
X92970408Y-99977087D01*
X92970377Y-99975435D01*
X92970392Y-99975015D01*
X92970948Y-99970177D01*
X92969705Y-99939128D01*
X92969628Y-99936535D01*
X92969498Y-99929752D01*
X92968318Y-99868334D01*
X92966988Y-99864093D01*
X92966515Y-99859411D01*
X92963451Y-99782819D01*
X92929585Y-98936443D01*
X92929676Y-98932260D01*
X92930577Y-98928337D01*
X92926525Y-98859417D01*
X92926409Y-98857061D01*
X92925453Y-98833166D01*
X92925453Y-98833162D01*
X92925273Y-98828675D01*
X92924619Y-98825123D01*
X92924332Y-98821752D01*
X92924294Y-98821474D01*
X92924008Y-98816612D01*
X92922978Y-98811855D01*
X92922977Y-98811847D01*
X92917983Y-98788780D01*
X92917216Y-98784955D01*
X92907186Y-98730528D01*
X92905560Y-98721703D01*
X92902643Y-98715914D01*
X92900608Y-98708529D01*
X92879237Y-98609811D01*
X92703355Y-97797397D01*
X92703247Y-97796650D01*
X92703298Y-97795900D01*
X92685085Y-97712999D01*
X92685004Y-97712626D01*
X92680574Y-97692165D01*
X92680570Y-97692153D01*
X92680238Y-97690618D01*
X92680064Y-97690151D01*
X92679282Y-97686589D01*
X92667630Y-97656613D01*
X92666956Y-97654838D01*
X92652744Y-97616551D01*
X92642384Y-97588644D01*
X92640403Y-97585982D01*
X92638997Y-97582951D01*
X92251585Y-96586299D01*
X92250287Y-96582808D01*
X92241523Y-96558124D01*
X92239894Y-96553536D01*
X92237579Y-96549254D01*
X92237414Y-96548883D01*
X92235808Y-96545712D01*
X92234466Y-96542260D01*
X92218372Y-96513688D01*
X92217318Y-96511779D01*
X92046640Y-96196084D01*
X91620802Y-95408430D01*
X91616801Y-95400352D01*
X91609860Y-95384967D01*
X91602553Y-95373772D01*
X91597226Y-95364824D01*
X91594469Y-95359725D01*
X91592337Y-95355781D01*
X91581783Y-95341543D01*
X91577497Y-95335385D01*
X90908122Y-94309876D01*
X90830180Y-94190467D01*
X90825198Y-94182151D01*
X90806004Y-94147127D01*
X90801689Y-94139253D01*
X90764828Y-94102422D01*
X90759210Y-94096431D01*
X90730960Y-94064255D01*
X90724817Y-94057259D01*
X90717235Y-94052445D01*
X90711281Y-94047348D01*
X90705001Y-94042645D01*
X90698651Y-94036300D01*
X90690194Y-94031674D01*
X90652947Y-94011302D01*
X90645865Y-94007123D01*
X90609435Y-93983989D01*
X90609434Y-93983988D01*
X90601857Y-93979177D01*
X90593232Y-93976685D01*
X90586091Y-93973466D01*
X90578736Y-93970712D01*
X90570860Y-93966404D01*
X90519957Y-93955234D01*
X90512002Y-93953214D01*
X90461924Y-93938744D01*
X90409014Y-93938913D01*
X90400862Y-93938675D01*
X90108868Y-93920679D01*
X90089380Y-93917938D01*
X90066557Y-93912884D01*
X90028569Y-93915415D01*
X90025405Y-93915536D01*
X90022535Y-93915359D01*
X90018071Y-93915720D01*
X90018067Y-93915720D01*
X89991177Y-93917894D01*
X89989403Y-93918025D01*
X89959979Y-93919986D01*
X89921222Y-93922569D01*
X89917779Y-93923830D01*
X89914117Y-93924126D01*
X89906781Y-93926931D01*
X89906780Y-93926931D01*
X89850260Y-93948541D01*
X89848588Y-93949167D01*
X89791802Y-93969961D01*
X89791800Y-93969962D01*
X89784446Y-93972655D01*
X89781493Y-93974833D01*
X89778064Y-93976144D01*
X89771822Y-93980886D01*
X89723637Y-94017491D01*
X89722209Y-94018560D01*
X89667226Y-94059115D01*
X89665003Y-94062035D01*
X89662080Y-94064255D01*
X89657417Y-94070562D01*
X89657415Y-94070564D01*
X89621424Y-94119245D01*
X89620354Y-94120670D01*
X89578983Y-94175001D01*
X89577670Y-94178424D01*
X89575486Y-94181378D01*
X89572779Y-94188746D01*
X89551922Y-94245505D01*
X89551297Y-94247170D01*
X89538897Y-94279494D01*
X89538289Y-94282320D01*
X89537308Y-94285273D01*
X89533128Y-94296649D01*
X89525247Y-94318098D01*
X89524640Y-94327052D01*
X89524640Y-94327053D01*
X89523402Y-94345325D01*
X89520873Y-94363297D01*
X89432510Y-94774151D01*
X89297995Y-95399593D01*
X89296375Y-95405369D01*
X89296582Y-95405424D01*
X89295339Y-95410133D01*
X89293737Y-95414728D01*
X89292861Y-95419515D01*
X89292860Y-95419520D01*
X89288379Y-95444018D01*
X89287624Y-95447814D01*
X89281997Y-95473978D01*
X89281685Y-95478451D01*
X89281056Y-95482889D01*
X89280931Y-95482871D01*
X89280178Y-95488843D01*
X89138698Y-96262220D01*
X89138160Y-96264987D01*
X88939171Y-97230189D01*
X88938656Y-97232570D01*
X88792908Y-97875884D01*
X88738311Y-98116866D01*
X88738281Y-98116979D01*
X88738224Y-98117122D01*
X88729522Y-98155656D01*
X88721509Y-98191025D01*
X88721497Y-98191170D01*
X88721472Y-98191301D01*
X88571130Y-98857061D01*
X88455229Y-99370305D01*
X88432326Y-99471724D01*
X88430748Y-99477965D01*
X88430356Y-99479364D01*
X88428686Y-99483933D01*
X88427739Y-99488703D01*
X88422581Y-99514684D01*
X88421898Y-99517902D01*
X88416671Y-99541047D01*
X88416670Y-99541055D01*
X88415684Y-99545420D01*
X88415327Y-99549885D01*
X88414887Y-99552778D01*
X88413908Y-99558368D01*
X88200868Y-100631405D01*
X88199168Y-100638795D01*
X87993873Y-101422547D01*
X87986541Y-101443088D01*
X87714608Y-102036807D01*
X87705761Y-102052907D01*
X87468853Y-102418141D01*
X87409214Y-102466849D01*
X86524526Y-102814387D01*
X86516817Y-102817129D01*
X85475682Y-103149904D01*
X85463943Y-103153041D01*
X84430808Y-103376371D01*
X84421805Y-103377978D01*
X83331275Y-103531980D01*
X83331170Y-103531995D01*
X82203443Y-103690287D01*
X82192336Y-103691347D01*
X80897576Y-103757274D01*
X80865195Y-103754731D01*
X79991116Y-103570594D01*
X79945077Y-103550693D01*
X79411499Y-103179057D01*
X79372593Y-103135437D01*
X79046997Y-102531240D01*
X79032959Y-102487647D01*
X78974466Y-102035910D01*
X78907398Y-101517945D01*
X78906836Y-101490776D01*
X78960445Y-100878960D01*
X78969716Y-100841353D01*
X79057499Y-100631405D01*
X79256376Y-100155755D01*
X79264942Y-100138936D01*
X79298600Y-100083542D01*
X80048475Y-98849382D01*
X80055843Y-98838566D01*
X80056819Y-98837282D01*
X80056819Y-98837281D01*
X80059771Y-98833398D01*
X80070980Y-98812654D01*
X80074142Y-98807141D01*
X80077216Y-98802082D01*
X80084767Y-98789654D01*
X80086524Y-98785542D01*
X80086528Y-98785534D01*
X80087635Y-98782942D01*
X80092650Y-98772551D01*
X80446808Y-98117122D01*
X80577165Y-97875875D01*
X80578759Y-97873015D01*
X80592467Y-97849155D01*
X80592473Y-97849143D01*
X80594896Y-97844925D01*
X80596644Y-97840379D01*
X80596833Y-97839981D01*
X80597761Y-97837760D01*
X80599195Y-97835105D01*
X80611126Y-97802736D01*
X80611728Y-97801139D01*
X81012321Y-96759025D01*
X81014448Y-96753841D01*
X81022837Y-96734616D01*
X81024789Y-96730144D01*
X81026030Y-96725422D01*
X81026184Y-96724979D01*
X81027971Y-96719438D01*
X81027889Y-96719413D01*
X81029196Y-96715125D01*
X81030804Y-96710942D01*
X81036821Y-96684623D01*
X81037789Y-96680684D01*
X81348223Y-95499591D01*
X81350563Y-95491737D01*
X81350856Y-95490861D01*
X81353516Y-95482889D01*
X81355053Y-95478286D01*
X81355053Y-95478285D01*
X81356593Y-95473672D01*
X81357406Y-95468871D01*
X81358473Y-95462569D01*
X81360843Y-95451574D01*
X81361754Y-95448108D01*
X81362916Y-95443689D01*
X81363429Y-95439242D01*
X81363430Y-95439235D01*
X81365196Y-95423911D01*
X81366134Y-95417309D01*
X81367637Y-95408433D01*
X81592435Y-94080482D01*
X81594647Y-94070101D01*
X81597834Y-94057732D01*
X81599533Y-94040390D01*
X81600695Y-94031691D01*
X81603083Y-94017584D01*
X81603428Y-94004012D01*
X81603988Y-93994931D01*
X81605061Y-93983989D01*
X81751475Y-92489963D01*
X81752224Y-92483857D01*
X81752699Y-92480640D01*
X81753779Y-92475893D01*
X81755898Y-92445354D01*
X81756196Y-92441792D01*
X81758876Y-92414444D01*
X81758676Y-92409960D01*
X81758795Y-92405477D01*
X81758980Y-92405482D01*
X81759046Y-92399952D01*
X81772753Y-92202341D01*
X81823085Y-91476724D01*
X81824315Y-91466633D01*
X81826768Y-91459116D01*
X81827046Y-91450146D01*
X81828678Y-91397429D01*
X81828920Y-91392611D01*
X81830222Y-91373829D01*
X81830533Y-91369350D01*
X81830206Y-91364875D01*
X81830198Y-91360678D01*
X81830043Y-91353330D01*
X81830997Y-91322500D01*
X81831275Y-91313528D01*
X81827416Y-91298637D01*
X81823722Y-91276215D01*
X81823254Y-91269818D01*
X81822600Y-91260867D01*
X81819458Y-91252454D01*
X81808661Y-91223546D01*
X81804725Y-91211067D01*
X81796990Y-91181217D01*
X81796989Y-91181215D01*
X81794738Y-91172528D01*
X81786851Y-91159311D01*
X81777019Y-91138840D01*
X81774771Y-91132822D01*
X81771632Y-91124418D01*
X81752315Y-91098579D01*
X81747787Y-91092523D01*
X81740503Y-91081644D01*
X81724697Y-91055157D01*
X81720097Y-91047448D01*
X81708815Y-91036974D01*
X81693634Y-91020086D01*
X81689794Y-91014950D01*
X81684417Y-91007758D01*
X81652565Y-90983828D01*
X81642531Y-90975438D01*
X81619928Y-90954454D01*
X81613350Y-90948347D01*
X81599585Y-90941462D01*
X81580277Y-90929516D01*
X81567964Y-90920265D01*
X81530689Y-90906242D01*
X81518692Y-90901002D01*
X81491107Y-90887204D01*
X81491104Y-90887203D01*
X81483079Y-90883189D01*
X81474249Y-90881588D01*
X81474242Y-90881586D01*
X81467930Y-90880442D01*
X81446041Y-90874394D01*
X81440040Y-90872136D01*
X81440034Y-90872135D01*
X81431635Y-90868975D01*
X81422683Y-90868299D01*
X81391923Y-90865976D01*
X81378946Y-90864315D01*
X81377745Y-90864097D01*
X81377741Y-90864097D01*
X81372954Y-90863229D01*
X81368088Y-90863108D01*
X81368087Y-90863108D01*
X81356156Y-90862812D01*
X81350174Y-90862663D01*
X81343818Y-90862344D01*
X81295346Y-90858684D01*
X81295345Y-90858684D01*
X81286391Y-90858008D01*
X81277605Y-90859873D01*
X81272617Y-90860207D01*
X81261073Y-90860450D01*
X80100324Y-90831615D01*
X78782879Y-90798887D01*
X78782131Y-90798866D01*
X77660192Y-90764328D01*
X77473164Y-90758571D01*
X77471403Y-90758504D01*
X76493732Y-90714593D01*
X76488719Y-90714266D01*
X76197649Y-90689441D01*
X76081851Y-90679564D01*
X76066491Y-90677294D01*
X76042018Y-90672119D01*
X76033232Y-90670261D01*
X75966566Y-90675344D01*
X75964233Y-90675500D01*
X75942819Y-90676725D01*
X75906475Y-90678804D01*
X75906473Y-90678804D01*
X75897515Y-90679317D01*
X75892889Y-90680962D01*
X75887996Y-90681335D01*
X75879600Y-90684501D01*
X75879595Y-90684502D01*
X75825497Y-90704902D01*
X75823267Y-90705720D01*
X75760276Y-90728119D01*
X75756299Y-90730995D01*
X75751706Y-90732727D01*
X75744534Y-90738123D01*
X75744535Y-90738123D01*
X75698318Y-90772899D01*
X75696406Y-90774310D01*
X75642250Y-90813476D01*
X75636747Y-90820565D01*
X75636742Y-90820569D01*
X75618997Y-90843425D01*
X75609818Y-90853982D01*
X75595900Y-90868299D01*
X75545384Y-90920265D01*
X75525708Y-90940505D01*
X75507300Y-90956123D01*
X75497472Y-90962958D01*
X75491842Y-90969939D01*
X75491840Y-90969941D01*
X75469938Y-90997101D01*
X75462201Y-91005834D01*
X75457544Y-91010624D01*
X75454908Y-91014246D01*
X75454901Y-91014255D01*
X75445655Y-91026962D01*
X75441853Y-91031925D01*
X75429335Y-91047448D01*
X75406035Y-91076340D01*
X75402586Y-91084633D01*
X75400615Y-91087948D01*
X75398831Y-91091318D01*
X75393548Y-91098579D01*
X75381261Y-91132822D01*
X75374268Y-91152309D01*
X75372021Y-91158113D01*
X75350095Y-91210827D01*
X75349113Y-91219742D01*
X75348165Y-91223425D01*
X75348164Y-91223433D01*
X75347387Y-91227222D01*
X75344353Y-91235677D01*
X75343814Y-91244640D01*
X75343814Y-91244641D01*
X75340929Y-91292639D01*
X75340399Y-91298872D01*
X75339991Y-91302583D01*
X75337844Y-91322073D01*
X75338062Y-91326938D01*
X75338062Y-91326940D01*
X75338110Y-91328014D01*
X75338009Y-91341214D01*
X75335613Y-91381072D01*
X75338417Y-91393353D01*
X75339151Y-91396567D01*
X75342186Y-91418972D01*
X75374991Y-92151154D01*
X75377035Y-92196782D01*
X75377161Y-92202332D01*
X75377346Y-92489963D01*
X75378247Y-93886780D01*
X75378198Y-93888206D01*
X75377977Y-93889704D01*
X75378009Y-93893732D01*
X75378270Y-93927073D01*
X75378274Y-93927980D01*
X75378292Y-93955234D01*
X75378296Y-93962172D01*
X75378511Y-93963667D01*
X75378568Y-93965092D01*
X75384958Y-94780222D01*
X75389311Y-95335450D01*
X75388772Y-95346695D01*
X75388720Y-95348693D01*
X75388217Y-95353530D01*
X75388465Y-95358391D01*
X75388465Y-95358392D01*
X75389538Y-95379427D01*
X75389698Y-95384858D01*
X75389877Y-95407684D01*
X75390548Y-95412121D01*
X75390607Y-95412513D01*
X75391860Y-95424933D01*
X75394815Y-95482871D01*
X75452440Y-96612464D01*
X75452498Y-96624047D01*
X75452074Y-96634348D01*
X75454320Y-96654080D01*
X75454961Y-96661884D01*
X75455813Y-96678575D01*
X75457943Y-96689461D01*
X75459477Y-96699392D01*
X75569157Y-97663046D01*
X75619356Y-98116866D01*
X75754578Y-99339325D01*
X75754998Y-99362482D01*
X75728834Y-99715860D01*
X75683525Y-100327818D01*
X75674552Y-100449004D01*
X75663639Y-100491758D01*
X75539432Y-100765512D01*
X75365490Y-101148884D01*
X75332469Y-101192727D01*
X75320461Y-101202960D01*
X74765371Y-101675959D01*
X74737705Y-101693871D01*
X74652985Y-101734107D01*
X74177449Y-101959953D01*
X74022419Y-102033581D01*
X74012430Y-102037808D01*
X73068914Y-102390012D01*
X72910779Y-102449042D01*
X72905188Y-102450981D01*
X71606469Y-102867425D01*
X71602079Y-102868745D01*
X70261338Y-103245211D01*
X70256570Y-103246449D01*
X69026183Y-103540419D01*
X69018863Y-103541938D01*
X68068498Y-103709940D01*
X68050081Y-103711815D01*
X67542015Y-103726002D01*
X67513893Y-103723624D01*
X67195419Y-103660187D01*
X67182189Y-103656043D01*
X67182157Y-103656159D01*
X67173505Y-103653780D01*
X67165272Y-103650197D01*
X67156365Y-103649068D01*
X67156364Y-103649068D01*
X67114684Y-103643786D01*
X67105912Y-103642358D01*
X67097016Y-103640586D01*
X67097012Y-103640586D01*
X67092612Y-103639709D01*
X67088140Y-103639466D01*
X67088135Y-103639465D01*
X67079420Y-103638991D01*
X67070429Y-103638177D01*
X67029681Y-103633013D01*
X67029679Y-103633013D01*
X67020770Y-103631884D01*
X67011901Y-103633301D01*
X67002933Y-103633446D01*
X67002931Y-103633351D01*
X67001895Y-103633405D01*
X67001903Y-103633498D01*
X66992964Y-103634286D01*
X66984000Y-103633798D01*
X66975260Y-103635846D01*
X66975255Y-103635846D01*
X66935232Y-103645222D01*
X66926375Y-103646965D01*
X66913214Y-103649068D01*
X66885805Y-103653447D01*
X66885804Y-103653447D01*
X66876937Y-103654864D01*
X66868823Y-103658713D01*
X66860252Y-103661371D01*
X66860224Y-103661279D01*
X66859249Y-103661620D01*
X66859284Y-103661709D01*
X66850923Y-103664975D01*
X66842182Y-103667022D01*
X66834369Y-103671439D01*
X66834368Y-103671440D01*
X66798592Y-103691669D01*
X66790579Y-103695829D01*
X66745335Y-103717290D01*
X66738632Y-103723258D01*
X66731149Y-103728216D01*
X66731096Y-103728137D01*
X66730258Y-103728736D01*
X66730316Y-103728811D01*
X66723203Y-103734295D01*
X66715390Y-103738713D01*
X66680467Y-103774606D01*
X66673946Y-103780844D01*
X66665382Y-103788467D01*
X66665371Y-103788478D01*
X66661742Y-103791709D01*
X66658654Y-103795459D01*
X66658649Y-103795464D01*
X66653569Y-103801633D01*
X66646613Y-103809400D01*
X66620074Y-103836676D01*
X66613814Y-103843110D01*
X66609612Y-103851041D01*
X66609376Y-103851365D01*
X66595611Y-103872010D01*
X66285150Y-104248999D01*
X66220514Y-104327485D01*
X66212524Y-104336303D01*
X65831266Y-104719089D01*
X65807748Y-104737654D01*
X65358887Y-105012256D01*
X65333834Y-105024019D01*
X64659588Y-105254159D01*
X64642519Y-105258677D01*
X63839638Y-105411933D01*
X63625426Y-105452822D01*
X63616209Y-105454231D01*
X63444170Y-105474033D01*
X62173507Y-105620288D01*
X62169155Y-105620711D01*
X60311234Y-105768896D01*
X60221162Y-105776080D01*
X60220017Y-105776166D01*
X57064121Y-105998948D01*
X57031958Y-105997090D01*
X56290685Y-105857669D01*
X56273439Y-105853141D01*
X55219742Y-105495119D01*
X55187636Y-105478770D01*
X54360873Y-104895411D01*
X54332852Y-104868241D01*
X54056471Y-104501118D01*
X53730372Y-104067952D01*
X53718905Y-104049641D01*
X53672358Y-103958820D01*
X53423163Y-103472607D01*
X53410018Y-103401647D01*
X53410367Y-103398411D01*
X53472965Y-102817129D01*
X53479249Y-102758776D01*
X53481463Y-102745217D01*
X53652482Y-101967186D01*
X53660159Y-101943617D01*
X53794306Y-101637834D01*
X54000857Y-101167010D01*
X54010766Y-101148704D01*
X54028845Y-101121041D01*
X54538331Y-100341438D01*
X54548612Y-100327818D01*
X54712409Y-100138936D01*
X55287344Y-99475952D01*
X55288747Y-99474362D01*
X56059380Y-98616682D01*
X56066042Y-98609811D01*
X56073741Y-98602452D01*
X56073743Y-98602450D01*
X56077258Y-98599090D01*
X56080215Y-98595229D01*
X56080219Y-98595224D01*
X56086201Y-98587412D01*
X56092516Y-98579803D01*
X56097262Y-98574521D01*
X56100263Y-98571181D01*
X56109342Y-98557613D01*
X56114022Y-98551078D01*
X56213089Y-98421706D01*
X56812408Y-97639051D01*
X56818742Y-97631426D01*
X56828451Y-97620634D01*
X56831112Y-97616557D01*
X56831116Y-97616551D01*
X56837039Y-97607474D01*
X56842517Y-97599732D01*
X56850174Y-97589733D01*
X56852365Y-97585828D01*
X56852372Y-97585817D01*
X56857665Y-97576383D01*
X56862030Y-97569177D01*
X57495740Y-96598051D01*
X57501720Y-96589659D01*
X57507071Y-96582764D01*
X57507072Y-96582762D01*
X57510062Y-96578910D01*
X57512527Y-96574457D01*
X57518090Y-96564407D01*
X57522810Y-96556566D01*
X57527709Y-96549059D01*
X57527710Y-96549058D01*
X57530160Y-96545303D01*
X57536249Y-96532230D01*
X57540227Y-96524414D01*
X58107322Y-95499905D01*
X58112837Y-95490861D01*
X58117291Y-95484204D01*
X58119994Y-95480164D01*
X58127283Y-95464487D01*
X58131293Y-95456599D01*
X58134075Y-95451574D01*
X58138163Y-95444188D01*
X58139753Y-95440005D01*
X58139757Y-95439997D01*
X58143031Y-95431384D01*
X58146550Y-95423043D01*
X58461403Y-94745799D01*
X58645021Y-94350839D01*
X58649997Y-94341238D01*
X58653695Y-94334795D01*
X58656121Y-94330569D01*
X58662517Y-94313909D01*
X58665887Y-94305958D01*
X58672102Y-94292590D01*
X58673395Y-94288303D01*
X58673398Y-94288295D01*
X58675891Y-94280029D01*
X58678894Y-94271253D01*
X58792698Y-93974833D01*
X59106690Y-93156991D01*
X59111067Y-93146928D01*
X59114145Y-93140618D01*
X59114148Y-93140611D01*
X59116278Y-93136243D01*
X59117714Y-93131590D01*
X59121662Y-93118795D01*
X59124429Y-93110792D01*
X59128253Y-93100831D01*
X59128256Y-93100823D01*
X59129857Y-93096651D01*
X59130852Y-93092291D01*
X59130854Y-93092284D01*
X59132684Y-93084264D01*
X59135127Y-93075146D01*
X59329972Y-92443591D01*
X59490129Y-91924467D01*
X59493849Y-91914056D01*
X59498248Y-91903269D01*
X59502515Y-91885267D01*
X59504718Y-91877182D01*
X59507938Y-91866746D01*
X59507940Y-91866737D01*
X59509259Y-91862462D01*
X59509958Y-91858044D01*
X59509961Y-91858033D01*
X59511206Y-91850168D01*
X59513052Y-91840815D01*
X59711685Y-91002801D01*
X59793097Y-90659333D01*
X59796135Y-90648640D01*
X59798237Y-90642319D01*
X59799769Y-90637712D01*
X59802856Y-90619352D01*
X59804509Y-90611185D01*
X59807053Y-90600454D01*
X59807054Y-90600446D01*
X59808087Y-90596089D01*
X59809202Y-90583803D01*
X59810430Y-90574305D01*
X60013295Y-89367665D01*
X60015618Y-89356801D01*
X60017302Y-89350335D01*
X60017304Y-89350326D01*
X60018529Y-89345621D01*
X60020391Y-89327123D01*
X60021501Y-89318857D01*
X60023326Y-89308003D01*
X60023327Y-89307995D01*
X60024069Y-89303580D01*
X60024370Y-89291226D01*
X60024965Y-89281676D01*
X60031998Y-89211812D01*
X60148389Y-88055474D01*
X60149977Y-88044542D01*
X60152163Y-88033055D01*
X60152782Y-88014624D01*
X60153345Y-88006234D01*
X60154431Y-87995448D01*
X60154431Y-87995444D01*
X60154880Y-87990985D01*
X60154356Y-87978487D01*
X60154316Y-87968977D01*
X60195622Y-86739567D01*
X60196234Y-86733070D01*
X60196085Y-86733058D01*
X60196461Y-86728206D01*
X60197210Y-86723394D01*
X60197210Y-86694429D01*
X60197281Y-86690198D01*
X60197999Y-86668838D01*
X60197999Y-86668833D01*
X60198149Y-86664363D01*
X60197664Y-86659913D01*
X60197495Y-86655427D01*
X60197565Y-86655424D01*
X60197210Y-86648902D01*
X60197210Y-85243195D01*
X60199113Y-85221378D01*
X60200625Y-85212776D01*
X60202179Y-85203938D01*
X60197978Y-85166059D01*
X60197645Y-85160044D01*
X60197529Y-85160052D01*
X60197210Y-85155575D01*
X60197210Y-85151096D01*
X60193536Y-85125448D01*
X60193035Y-85121497D01*
X60187113Y-85068094D01*
X60187113Y-85068093D01*
X60186123Y-85059168D01*
X60182957Y-85051574D01*
X60181790Y-85043422D01*
X60155802Y-84986266D01*
X60154234Y-84982667D01*
X60130081Y-84924724D01*
X60124910Y-84918321D01*
X60121502Y-84910827D01*
X60080521Y-84863266D01*
X60078012Y-84860259D01*
X60038557Y-84811412D01*
X60031796Y-84806718D01*
X60026423Y-84800482D01*
X59973769Y-84766352D01*
X59970446Y-84764123D01*
X59950624Y-84750361D01*
X59950623Y-84750361D01*
X59946624Y-84747584D01*
X59942245Y-84745456D01*
X59938043Y-84742996D01*
X59938147Y-84742818D01*
X59932894Y-84739859D01*
X59904195Y-84721257D01*
X59895590Y-84718684D01*
X59895589Y-84718683D01*
X59883470Y-84715058D01*
X59864496Y-84707666D01*
X58869359Y-84223993D01*
X58867581Y-84223112D01*
X58132082Y-83851206D01*
X58130189Y-83850228D01*
X57192239Y-83355857D01*
X57190764Y-83355067D01*
X56382081Y-82915015D01*
X56285400Y-82862405D01*
X56284000Y-82861579D01*
X56282644Y-82860560D01*
X56249898Y-82843083D01*
X56248999Y-82842598D01*
X56223085Y-82828496D01*
X56223080Y-82828493D01*
X56219242Y-82826405D01*
X56217655Y-82825815D01*
X56216176Y-82825084D01*
X55265616Y-82317744D01*
X55255772Y-82311765D01*
X55254224Y-82310870D01*
X55250215Y-82308119D01*
X55245829Y-82306017D01*
X55245824Y-82306014D01*
X55226887Y-82296938D01*
X55222021Y-82294475D01*
X55205896Y-82285869D01*
X55205892Y-82285867D01*
X55201942Y-82283759D01*
X55197725Y-82282229D01*
X55197282Y-82282068D01*
X55185802Y-82277248D01*
X54259377Y-81833245D01*
X54247606Y-81826812D01*
X54246947Y-81826405D01*
X54246945Y-81826404D01*
X54242802Y-81823844D01*
X54238326Y-81821957D01*
X54238311Y-81821949D01*
X54220291Y-81814352D01*
X54214797Y-81811879D01*
X54195587Y-81802673D01*
X54189464Y-81800748D01*
X54178322Y-81796657D01*
X53165620Y-81369675D01*
X53158947Y-81366392D01*
X53158929Y-81366430D01*
X53154511Y-81364361D01*
X53150279Y-81361965D01*
X53124549Y-81352260D01*
X53120132Y-81350496D01*
X53097652Y-81341017D01*
X53093312Y-81339878D01*
X53090323Y-81338861D01*
X53081958Y-81336193D01*
X51898754Y-80889861D01*
X51868844Y-80878578D01*
X51862933Y-80876165D01*
X51858766Y-80873933D01*
X51854180Y-80872325D01*
X51854178Y-80872324D01*
X51828411Y-80863289D01*
X51825633Y-80862278D01*
X51802626Y-80853599D01*
X51802622Y-80853598D01*
X51798434Y-80852018D01*
X51794063Y-80851048D01*
X51793198Y-80850790D01*
X51787486Y-80848939D01*
X51525314Y-80757009D01*
X50255242Y-80311661D01*
X50253949Y-80311156D01*
X50252624Y-80310459D01*
X50217120Y-80298292D01*
X50216586Y-80298107D01*
X50184109Y-80286719D01*
X50182647Y-80286430D01*
X50181273Y-80286008D01*
X48221745Y-79614508D01*
X48215684Y-79612034D01*
X48210889Y-79608842D01*
X48202326Y-79606167D01*
X48202320Y-79606164D01*
X48148225Y-79589264D01*
X48144984Y-79588203D01*
X48120030Y-79579652D01*
X48115625Y-79578815D01*
X48112672Y-79578032D01*
X48109236Y-79577040D01*
X48108700Y-79576917D01*
X48104062Y-79575468D01*
X48084064Y-79572479D01*
X48078309Y-79571619D01*
X48073418Y-79570789D01*
X48013172Y-79559334D01*
X48005057Y-79560121D01*
X47994457Y-79559089D01*
X45715393Y-79218504D01*
X45711697Y-79217836D01*
X45708527Y-79216901D01*
X45687681Y-79214128D01*
X45674344Y-79212353D01*
X45672340Y-79212070D01*
X45654329Y-79209379D01*
X45641236Y-79207422D01*
X45637939Y-79207402D01*
X45634096Y-79206998D01*
X45105128Y-79136616D01*
X44283205Y-79027255D01*
X44271043Y-79025025D01*
X44267671Y-79024234D01*
X44267667Y-79024233D01*
X44262931Y-79023122D01*
X44241234Y-79021469D01*
X44234192Y-79020733D01*
X44220142Y-79018864D01*
X44220138Y-79018864D01*
X44215690Y-79018272D01*
X44206701Y-79018362D01*
X44206564Y-79018363D01*
X44195740Y-79018005D01*
X43094462Y-78934135D01*
X43086585Y-78933284D01*
X43067063Y-78930550D01*
X43056441Y-78930713D01*
X43044952Y-78930364D01*
X43037439Y-78929792D01*
X43032975Y-78930088D01*
X43032973Y-78930088D01*
X43016895Y-78931154D01*
X43010487Y-78931415D01*
X42354982Y-78941443D01*
X42034313Y-78946349D01*
X42028063Y-78946290D01*
X42003924Y-78945460D01*
X41999101Y-78946042D01*
X41999097Y-78946042D01*
X41997624Y-78946220D01*
X41989149Y-78946795D01*
X41985719Y-78947092D01*
X41981228Y-78947161D01*
X41969050Y-78949095D01*
X41956389Y-78951106D01*
X41951719Y-78951759D01*
X40990457Y-79067756D01*
X40981267Y-79068525D01*
X40969732Y-79069066D01*
X40969731Y-79069066D01*
X40964872Y-79069294D01*
X40960108Y-79070266D01*
X40960103Y-79070267D01*
X40951320Y-79072060D01*
X40941217Y-79073698D01*
X40938317Y-79074048D01*
X40930577Y-79074982D01*
X40913916Y-79079455D01*
X40906458Y-79081216D01*
X39850209Y-79296796D01*
X39844177Y-79297858D01*
X39839564Y-79298180D01*
X39807951Y-79305390D01*
X39805193Y-79305985D01*
X39800033Y-79307038D01*
X39780930Y-79310936D01*
X39780922Y-79310938D01*
X39776538Y-79311833D01*
X39772322Y-79313341D01*
X39771876Y-79313466D01*
X39765987Y-79314959D01*
X37928216Y-79734061D01*
X37927136Y-79734302D01*
X36553397Y-80033090D01*
X36370091Y-80072959D01*
X36368175Y-80073361D01*
X35071944Y-80334252D01*
X35069165Y-80334778D01*
X34278651Y-80475307D01*
X33980808Y-80528254D01*
X33977000Y-80528871D01*
X33042275Y-80665659D01*
X33037655Y-80666248D01*
X32194743Y-80757933D01*
X32192281Y-80758176D01*
X31263882Y-80840756D01*
X30390822Y-80918413D01*
X30364980Y-80918050D01*
X28996087Y-80757418D01*
X28989171Y-80756411D01*
X27679056Y-80528254D01*
X27631425Y-80519959D01*
X27605027Y-80512319D01*
X27163209Y-80330211D01*
X26773552Y-80169603D01*
X26739515Y-80148730D01*
X26726365Y-80137445D01*
X26077719Y-79580819D01*
X26066146Y-79569521D01*
X25722555Y-79188009D01*
X25691831Y-79124005D01*
X25690753Y-79091705D01*
X25732038Y-78659560D01*
X25732048Y-78659453D01*
X25758709Y-78382882D01*
X25793406Y-78022963D01*
X25795101Y-78011210D01*
X25795669Y-78008265D01*
X25798601Y-77999777D01*
X25801415Y-77941390D01*
X25801850Y-77935371D01*
X25803383Y-77919474D01*
X25803383Y-77919459D01*
X25803813Y-77915002D01*
X25803536Y-77908997D01*
X25803548Y-77897126D01*
X25805180Y-77863255D01*
X25805612Y-77854288D01*
X25803511Y-77845563D01*
X25803510Y-77845555D01*
X25802732Y-77842325D01*
X25799364Y-77818642D01*
X25799210Y-77815311D01*
X25798796Y-77806345D01*
X25784872Y-77765777D01*
X25781551Y-77754377D01*
X25773611Y-77721411D01*
X25773610Y-77721409D01*
X25771508Y-77712680D01*
X25765387Y-77702009D01*
X25755508Y-77680224D01*
X25754424Y-77677067D01*
X25751510Y-77668577D01*
X25726745Y-77633527D01*
X25720368Y-77623532D01*
X25703497Y-77594123D01*
X25703496Y-77594122D01*
X25699029Y-77586335D01*
X25690155Y-77577807D01*
X25674559Y-77559669D01*
X25672638Y-77556950D01*
X25672637Y-77556949D01*
X25667457Y-77549618D01*
X25660430Y-77544037D01*
X25660427Y-77544034D01*
X25633858Y-77522933D01*
X25624915Y-77515115D01*
X25624003Y-77514238D01*
X25618331Y-77508788D01*
X25602080Y-77497404D01*
X25596012Y-77492876D01*
X25560422Y-77464611D01*
X25553395Y-77459030D01*
X25545085Y-77455646D01*
X25537332Y-77451114D01*
X25537615Y-77450629D01*
X25527198Y-77444954D01*
X25365636Y-77331789D01*
X25343401Y-77311904D01*
X24784851Y-76678238D01*
X24772742Y-76664501D01*
X24763043Y-76651993D01*
X24729049Y-76601957D01*
X24544445Y-76330238D01*
X24522708Y-76262652D01*
X24522991Y-76250398D01*
X24538213Y-76038624D01*
X24574594Y-75532467D01*
X24574604Y-75532381D01*
X24574636Y-75532242D01*
X24577478Y-75492348D01*
X24577508Y-75492270D01*
X24577484Y-75492268D01*
X24580019Y-75457007D01*
X24580019Y-75456997D01*
X24580046Y-75456626D01*
X24580037Y-75456496D01*
X24580041Y-75456379D01*
X24633156Y-74710899D01*
X24636080Y-74669850D01*
X24654296Y-74613023D01*
X24818367Y-74344992D01*
X25052652Y-73962258D01*
X25059632Y-73952023D01*
X25099724Y-73899032D01*
X25108265Y-73887743D01*
X118983579Y-73887743D01*
X118986955Y-73899032D01*
X119093128Y-74254043D01*
X119111003Y-74313813D01*
X120060074Y-75180700D01*
X120061047Y-75181519D01*
X120061051Y-75181523D01*
X120521096Y-75568986D01*
X121078709Y-76038624D01*
X121080387Y-76039856D01*
X121080390Y-76039859D01*
X121930729Y-76664502D01*
X121949428Y-76678238D01*
X121951831Y-76679694D01*
X122735676Y-77154685D01*
X122951501Y-77285470D01*
X122952899Y-77286223D01*
X122952915Y-77286232D01*
X123963845Y-77830645D01*
X124364198Y-78046246D01*
X124364785Y-78046547D01*
X124364791Y-78046550D01*
X125781828Y-78772790D01*
X125858389Y-78812028D01*
X125863216Y-78813588D01*
X125863223Y-78813591D01*
X126514946Y-79024234D01*
X126552878Y-79036494D01*
X126569883Y-79032340D01*
X126569884Y-79032340D01*
X127051246Y-78914755D01*
X127051290Y-78914744D01*
X127051242Y-78914740D01*
X128250660Y-78614662D01*
X128250684Y-78614656D01*
X128251462Y-78614461D01*
X128741852Y-78478258D01*
X129305970Y-78321577D01*
X129305973Y-78321576D01*
X129311607Y-78320011D01*
X130264830Y-77852158D01*
X130966100Y-77323171D01*
X131088739Y-77230661D01*
X131088740Y-77230660D01*
X131093616Y-77226982D01*
X131182593Y-77127696D01*
X131776317Y-76465180D01*
X131776321Y-76465175D01*
X131780452Y-76460565D01*
X132307822Y-75568986D01*
X132316529Y-75544122D01*
X132603772Y-74723800D01*
X132658213Y-74568326D01*
X132658939Y-74565351D01*
X132658942Y-74565341D01*
X132748583Y-74198033D01*
X132752878Y-74180434D01*
X132737506Y-74177721D01*
X132737504Y-74177720D01*
X132382797Y-74115113D01*
X132200523Y-74082941D01*
X132195949Y-74082046D01*
X131613392Y-73956741D01*
X131611068Y-73956218D01*
X130609681Y-73720277D01*
X130608600Y-73720016D01*
X129828543Y-73528429D01*
X129406829Y-73424853D01*
X129406808Y-73424848D01*
X129406250Y-73424711D01*
X129405696Y-73424586D01*
X129405684Y-73424583D01*
X128600545Y-73242674D01*
X127817630Y-73065786D01*
X127815998Y-73065507D01*
X127815980Y-73065503D01*
X126342681Y-72813261D01*
X126342676Y-72813260D01*
X126340735Y-72812928D01*
X126338777Y-72812718D01*
X126338768Y-72812717D01*
X125590556Y-72732564D01*
X124970915Y-72666184D01*
X123958965Y-72633782D01*
X123706302Y-72625692D01*
X123706300Y-72625692D01*
X123703519Y-72625603D01*
X123323493Y-72646927D01*
X122537114Y-72691051D01*
X122537105Y-72691052D01*
X122533897Y-72691232D01*
X121457398Y-72863119D01*
X120469373Y-73141312D01*
X119565172Y-73525859D01*
X119561045Y-73528427D01*
X119561041Y-73528429D01*
X119253153Y-73720006D01*
X118983579Y-73887743D01*
X25108265Y-73887743D01*
X25548013Y-73306503D01*
X25563714Y-73289315D01*
X25727630Y-73140223D01*
X26175820Y-72732564D01*
X26192399Y-72719828D01*
X26230439Y-72695340D01*
X26944648Y-72235573D01*
X26961006Y-72226680D01*
X27573278Y-71950312D01*
X27871771Y-71815578D01*
X27877202Y-71813278D01*
X28579393Y-71535100D01*
X28974737Y-71378482D01*
X28981291Y-71376327D01*
X28981256Y-71376228D01*
X28985846Y-71374628D01*
X28990556Y-71373384D01*
X28995013Y-71371432D01*
X28995020Y-71371430D01*
X29016532Y-71362011D01*
X29020661Y-71360290D01*
X29039950Y-71352648D01*
X29039955Y-71352646D01*
X29044119Y-71350996D01*
X29048010Y-71348771D01*
X29052042Y-71346832D01*
X29052055Y-71346859D01*
X29058225Y-71343755D01*
X29990185Y-70935689D01*
X30190880Y-70847813D01*
X30196346Y-70845572D01*
X30200825Y-70843856D01*
X30205484Y-70842473D01*
X30218541Y-70836278D01*
X30232571Y-70829622D01*
X30236043Y-70828039D01*
X30256596Y-70819039D01*
X30256601Y-70819037D01*
X30260706Y-70817239D01*
X30264509Y-70814881D01*
X30268484Y-70812793D01*
X30268549Y-70812917D01*
X30273729Y-70810094D01*
X31423432Y-70264610D01*
X31429074Y-70262101D01*
X31431927Y-70260915D01*
X31436548Y-70259400D01*
X31463894Y-70245467D01*
X31467085Y-70243898D01*
X31471340Y-70241879D01*
X31491958Y-70232097D01*
X31495703Y-70229615D01*
X31499600Y-70227414D01*
X31499686Y-70227567D01*
X31504426Y-70224816D01*
X32635356Y-69648605D01*
X32640868Y-69645963D01*
X32644061Y-69644527D01*
X32648647Y-69642876D01*
X32675442Y-69628239D01*
X32678640Y-69626552D01*
X32699029Y-69616164D01*
X32699035Y-69616161D01*
X32703018Y-69614131D01*
X32706674Y-69611557D01*
X32710525Y-69609236D01*
X32710616Y-69609388D01*
X32715360Y-69606433D01*
X32936089Y-69485858D01*
X33792277Y-69018157D01*
X33797934Y-69015501D01*
X33797853Y-69015336D01*
X33802230Y-69013195D01*
X33806753Y-69011401D01*
X33810944Y-69008933D01*
X33810955Y-69008928D01*
X33832067Y-68996497D01*
X33835590Y-68994498D01*
X33854768Y-68984021D01*
X33854769Y-68984021D01*
X33858700Y-68981873D01*
X33862282Y-68979193D01*
X33866065Y-68976763D01*
X33866118Y-68976846D01*
X33871335Y-68973374D01*
X34044037Y-68871686D01*
X34860748Y-68390800D01*
X34867643Y-68387256D01*
X34867641Y-68387251D01*
X34871936Y-68384933D01*
X34876375Y-68382963D01*
X34880466Y-68380329D01*
X34899024Y-68368380D01*
X34903306Y-68365742D01*
X34919994Y-68355916D01*
X34920005Y-68355909D01*
X34923861Y-68353638D01*
X34927366Y-68350837D01*
X34928671Y-68349937D01*
X34937325Y-68343718D01*
X35478732Y-67995106D01*
X35806425Y-67784105D01*
X35817184Y-67777906D01*
X35824453Y-67774182D01*
X35842193Y-67761307D01*
X35847988Y-67757343D01*
X35860045Y-67749579D01*
X35860049Y-67749576D01*
X35863815Y-67747151D01*
X35870586Y-67741280D01*
X35879116Y-67734508D01*
X36495892Y-67286854D01*
X36606023Y-67206921D01*
X36609844Y-67204255D01*
X36617664Y-67199011D01*
X37268119Y-66762793D01*
X37275089Y-66758441D01*
X37317490Y-66733855D01*
X38170336Y-66239330D01*
X38173694Y-66237450D01*
X38224376Y-66210100D01*
X38425032Y-66101817D01*
X39245968Y-65658803D01*
X39246478Y-65658530D01*
X39309090Y-65625113D01*
X39309095Y-65625109D01*
X39317010Y-65620885D01*
X39337804Y-65600529D01*
X39350983Y-65589295D01*
X39374369Y-65571988D01*
X39379796Y-65564838D01*
X39390185Y-65551150D01*
X39402406Y-65537289D01*
X39404346Y-65535390D01*
X39421096Y-65518993D01*
X39425492Y-65511163D01*
X39435336Y-65493629D01*
X39444839Y-65479136D01*
X39457001Y-65463111D01*
X39462427Y-65455962D01*
X39471759Y-65431519D01*
X39479600Y-65414785D01*
X39488005Y-65399812D01*
X39492401Y-65391982D01*
X39494422Y-65383237D01*
X39494423Y-65383234D01*
X39498950Y-65363642D01*
X39504002Y-65347069D01*
X39511178Y-65328273D01*
X39514380Y-65319886D01*
X39517151Y-65285417D01*
X39517278Y-65284321D01*
X39517598Y-65282937D01*
X39519908Y-65251171D01*
X39519976Y-65250278D01*
X39525672Y-65179451D01*
X39525672Y-65179446D01*
X39526054Y-65174696D01*
X39525705Y-65173013D01*
X39525714Y-65171359D01*
X39529613Y-65117761D01*
X39530071Y-65111459D01*
X43738928Y-65111459D01*
X43751201Y-65117760D01*
X43751202Y-65117761D01*
X44621998Y-65564838D01*
X44749325Y-65630209D01*
X44750525Y-65630763D01*
X44750532Y-65630766D01*
X45538797Y-65994418D01*
X45911407Y-66166315D01*
X47011779Y-66586125D01*
X47636174Y-66731589D01*
X47724990Y-66282358D01*
X47821453Y-65794452D01*
X47821453Y-65794451D01*
X47824505Y-65779014D01*
X47824509Y-65779014D01*
X47823743Y-65759201D01*
X47785468Y-64770140D01*
X47785405Y-64768503D01*
X47780829Y-64718512D01*
X47696684Y-63799380D01*
X47652100Y-63312379D01*
X47650446Y-63299125D01*
X47486100Y-61982575D01*
X47485754Y-61979803D01*
X47485164Y-61977070D01*
X47351348Y-61357646D01*
X47351347Y-61357645D01*
X47347522Y-61339938D01*
X47330085Y-61346800D01*
X47330084Y-61346800D01*
X46526044Y-61663207D01*
X46526042Y-61663208D01*
X46519801Y-61665664D01*
X45204579Y-62542018D01*
X45200413Y-62546076D01*
X44501726Y-63226612D01*
X44501724Y-63226615D01*
X44496507Y-63231696D01*
X44492595Y-63237834D01*
X44492593Y-63237836D01*
X44061590Y-63914028D01*
X44022346Y-63975597D01*
X44019843Y-63984012D01*
X44019842Y-63984014D01*
X43804594Y-64707664D01*
X43787439Y-64765338D01*
X43738928Y-65111459D01*
X39530071Y-65111459D01*
X39579424Y-64432987D01*
X39581238Y-64418974D01*
X39597389Y-64332612D01*
X39739685Y-63571697D01*
X39747440Y-63545896D01*
X39760959Y-63513843D01*
X39877365Y-63237836D01*
X40090441Y-62732620D01*
X40101682Y-62711718D01*
X40646639Y-61893841D01*
X40658976Y-61878172D01*
X41412281Y-61063359D01*
X41425039Y-61051354D01*
X42266414Y-60363341D01*
X42304090Y-60342118D01*
X42686565Y-60206588D01*
X42757453Y-60202689D01*
X42780673Y-60210594D01*
X42991394Y-60306128D01*
X43041824Y-60347547D01*
X43320943Y-60737508D01*
X43506460Y-60996696D01*
X43510169Y-61002176D01*
X43522659Y-61021718D01*
X43525881Y-61025368D01*
X43525883Y-61025371D01*
X43527458Y-61027155D01*
X43534720Y-61036280D01*
X43535253Y-61036923D01*
X43537863Y-61040569D01*
X43554591Y-61058047D01*
X43557973Y-61061726D01*
X44007189Y-61570652D01*
X44019561Y-61587238D01*
X44030574Y-61604856D01*
X44037280Y-61610829D01*
X44037281Y-61610830D01*
X44058860Y-61630050D01*
X44063211Y-61634120D01*
X44066126Y-61637423D01*
X44069527Y-61640319D01*
X44069542Y-61640334D01*
X44088129Y-61656162D01*
X44090238Y-61657998D01*
X44124475Y-61688491D01*
X44139344Y-61701734D01*
X44144550Y-61704205D01*
X44148941Y-61707944D01*
X44157132Y-61711611D01*
X44157134Y-61711612D01*
X44208989Y-61734825D01*
X44211534Y-61735999D01*
X44262821Y-61760342D01*
X44262826Y-61760344D01*
X44270932Y-61764191D01*
X44276624Y-61765102D01*
X44281885Y-61767457D01*
X44290769Y-61768676D01*
X44290778Y-61768679D01*
X44347093Y-61776409D01*
X44349865Y-61776821D01*
X44405893Y-61785786D01*
X44405897Y-61785786D01*
X44414759Y-61787204D01*
X44420476Y-61786481D01*
X44426189Y-61787265D01*
X44435066Y-61785941D01*
X44435067Y-61785941D01*
X44491230Y-61777564D01*
X44494006Y-61777181D01*
X44550363Y-61770052D01*
X44559265Y-61768926D01*
X44564551Y-61766627D01*
X44570254Y-61765776D01*
X44629988Y-61738195D01*
X44632459Y-61737086D01*
X44661894Y-61724282D01*
X44665648Y-61721903D01*
X44670787Y-61719357D01*
X44694344Y-61708480D01*
X44694346Y-61708478D01*
X44702495Y-61704716D01*
X44721105Y-61688491D01*
X44736468Y-61677031D01*
X45473699Y-61209907D01*
X45478862Y-61206830D01*
X45482988Y-61204924D01*
X45487032Y-61202232D01*
X45487043Y-61202226D01*
X45510024Y-61186929D01*
X45512403Y-61185383D01*
X45533428Y-61172062D01*
X45533434Y-61172057D01*
X45537210Y-61169665D01*
X45540620Y-61166751D01*
X45540749Y-61166656D01*
X45545773Y-61163132D01*
X45695668Y-61063359D01*
X46230969Y-60707050D01*
X46243913Y-60698434D01*
X46258081Y-60690277D01*
X46737036Y-60454507D01*
X47090777Y-60280375D01*
X47099945Y-60276307D01*
X47113432Y-60270955D01*
X47614253Y-60072206D01*
X47684949Y-60065670D01*
X47747954Y-60098393D01*
X47774577Y-60135332D01*
X47806610Y-60202880D01*
X47813123Y-60219596D01*
X47821346Y-60246159D01*
X47841730Y-60276954D01*
X47841758Y-60276999D01*
X47841789Y-60277065D01*
X47841906Y-60277242D01*
X47841916Y-60277258D01*
X47861039Y-60306127D01*
X47862248Y-60307952D01*
X47901744Y-60367619D01*
X47901808Y-60367673D01*
X47901857Y-60367747D01*
X47908717Y-60373539D01*
X47908718Y-60373541D01*
X47958358Y-60415458D01*
X47958354Y-60415463D01*
X47958387Y-60415482D01*
X48012999Y-60461631D01*
X48013077Y-60461666D01*
X48013144Y-60461722D01*
X48080508Y-60491544D01*
X48080538Y-60491570D01*
X48080543Y-60491560D01*
X48146169Y-60520639D01*
X48146253Y-60520650D01*
X48146334Y-60520686D01*
X48155278Y-60521876D01*
X48155281Y-60521877D01*
X48197243Y-60527460D01*
X48219718Y-60530450D01*
X48219758Y-60530468D01*
X48219760Y-60530456D01*
X48256909Y-60535412D01*
X48256913Y-60535412D01*
X48257105Y-60535438D01*
X48257172Y-60535436D01*
X48257230Y-60535442D01*
X48262648Y-60536163D01*
X48281818Y-60538714D01*
X48281821Y-60538714D01*
X48290719Y-60539898D01*
X48322082Y-60535087D01*
X48338421Y-60533662D01*
X48644157Y-60526981D01*
X48901960Y-60521348D01*
X48921344Y-60522421D01*
X48936286Y-60524411D01*
X48936290Y-60524411D01*
X48945188Y-60525596D01*
X48982748Y-60519840D01*
X48985289Y-60519527D01*
X48987749Y-60519473D01*
X48992162Y-60518742D01*
X48992176Y-60518741D01*
X49019502Y-60514216D01*
X49020965Y-60513982D01*
X49044715Y-60510342D01*
X49081232Y-60504746D01*
X49081234Y-60504745D01*
X49089164Y-60503530D01*
X49091983Y-60502215D01*
X49095061Y-60501705D01*
X49157320Y-60471739D01*
X49158652Y-60471108D01*
X49190586Y-60456208D01*
X49192636Y-60454832D01*
X49194886Y-60453657D01*
X49218219Y-60442427D01*
X49218220Y-60442426D01*
X49226307Y-60438534D01*
X49247090Y-60419820D01*
X49261194Y-60408827D01*
X49559566Y-60208607D01*
X49627277Y-60187259D01*
X49673281Y-60194983D01*
X49728916Y-60215452D01*
X49748691Y-60225121D01*
X49751132Y-60226196D01*
X49758750Y-60230940D01*
X49767393Y-60233355D01*
X49767399Y-60233358D01*
X49804903Y-60243839D01*
X49814494Y-60246937D01*
X49817085Y-60247890D01*
X49824453Y-60250601D01*
X49840327Y-60253989D01*
X49847907Y-60255856D01*
X49860446Y-60259360D01*
X49890384Y-60267727D01*
X49890385Y-60267727D01*
X49899033Y-60270144D01*
X49908011Y-60270036D01*
X49915024Y-60270955D01*
X49922051Y-60271434D01*
X49930829Y-60273308D01*
X49939779Y-60272643D01*
X49939782Y-60272643D01*
X49973402Y-60270144D01*
X49983780Y-60269373D01*
X49991599Y-60269035D01*
X50001150Y-60268921D01*
X50035707Y-60268507D01*
X50035710Y-60268507D01*
X50044680Y-60268399D01*
X50053265Y-60265777D01*
X50060246Y-60264691D01*
X50067129Y-60263178D01*
X50076086Y-60262512D01*
X50084492Y-60259361D01*
X50084495Y-60259360D01*
X50125808Y-60243872D01*
X50133224Y-60241352D01*
X50159392Y-60233358D01*
X50175397Y-60228469D01*
X50175398Y-60228468D01*
X50183983Y-60225846D01*
X50191488Y-60220918D01*
X50197882Y-60217918D01*
X50204063Y-60214534D01*
X50212474Y-60211381D01*
X50254990Y-60179517D01*
X50261359Y-60175046D01*
X50305744Y-60145906D01*
X50311561Y-60139075D01*
X50316870Y-60134388D01*
X50321850Y-60129408D01*
X50329031Y-60124026D01*
X50334413Y-60116845D01*
X50360880Y-60081530D01*
X50365771Y-60075410D01*
X50394355Y-60041839D01*
X50400174Y-60035005D01*
X50403841Y-60026812D01*
X50407601Y-60020856D01*
X50410995Y-60014657D01*
X50416383Y-60007468D01*
X50422533Y-59991064D01*
X50435017Y-59957761D01*
X50437994Y-59950514D01*
X50441849Y-59941901D01*
X50445899Y-59932853D01*
X50446177Y-59931835D01*
X51564972Y-59931835D01*
X51566059Y-59941992D01*
X51566059Y-59941994D01*
X51716282Y-61345625D01*
X51735585Y-61525990D01*
X51935537Y-62885065D01*
X52176690Y-63914028D01*
X52177474Y-63916460D01*
X52177482Y-63916488D01*
X52435670Y-64717168D01*
X52436506Y-64719864D01*
X52679963Y-65537881D01*
X52945192Y-66217944D01*
X52960648Y-66220045D01*
X52960649Y-66220045D01*
X53419132Y-66282358D01*
X53436563Y-66284727D01*
X53586186Y-66217944D01*
X54540258Y-65792101D01*
X54540263Y-65792098D01*
X54542630Y-65791042D01*
X55574204Y-65224504D01*
X55576451Y-65223006D01*
X55576458Y-65223001D01*
X56399202Y-64674218D01*
X56399207Y-64674214D01*
X56401945Y-64672388D01*
X57421502Y-63825812D01*
X57547491Y-63721199D01*
X57547496Y-63721195D01*
X57548494Y-63720366D01*
X57619365Y-63656349D01*
X58563077Y-62803897D01*
X58563080Y-62803894D01*
X58564361Y-62802737D01*
X59308647Y-62052974D01*
X59518826Y-61768926D01*
X59631601Y-61616515D01*
X59640455Y-61604549D01*
X59643368Y-61587239D01*
X59647920Y-61560184D01*
X111071076Y-61560184D01*
X111076838Y-61571398D01*
X111076838Y-61571399D01*
X112102186Y-63566882D01*
X112102283Y-63567070D01*
X112853082Y-65006303D01*
X112853355Y-65006806D01*
X112853364Y-65006823D01*
X112947042Y-65179451D01*
X113505965Y-66209427D01*
X113506343Y-66210086D01*
X113506351Y-66210100D01*
X113721274Y-66584598D01*
X114073335Y-67198054D01*
X114073919Y-67198994D01*
X114073929Y-67199011D01*
X114548190Y-67962554D01*
X114567595Y-67993796D01*
X115000252Y-68616973D01*
X115002020Y-68619591D01*
X115183410Y-68895466D01*
X115470428Y-69331991D01*
X115549323Y-69451983D01*
X116090608Y-70277528D01*
X116091728Y-70279032D01*
X116091736Y-70279043D01*
X116621071Y-70989657D01*
X116621072Y-70989658D01*
X116631892Y-71004183D01*
X117137091Y-70912152D01*
X118363946Y-70603200D01*
X118364005Y-70603200D01*
X118364028Y-70603289D01*
X118364033Y-70603286D01*
X118364005Y-70603200D01*
X118363946Y-70603200D01*
X118364002Y-70603186D01*
X118364002Y-70603189D01*
X118364003Y-70603189D01*
X118364698Y-70602965D01*
X118364700Y-70602964D01*
X118369070Y-70601556D01*
X118369077Y-70601554D01*
X119582095Y-70210607D01*
X119582100Y-70210605D01*
X119584316Y-70209891D01*
X119586462Y-70209020D01*
X119586469Y-70209018D01*
X120270789Y-69931447D01*
X120558197Y-69814870D01*
X120560436Y-69813746D01*
X120560442Y-69813743D01*
X121610701Y-69286375D01*
X121610716Y-69286367D01*
X121611708Y-69285869D01*
X122099024Y-69018157D01*
X122893823Y-68581526D01*
X122893840Y-68581516D01*
X122894878Y-68580946D01*
X122895890Y-68580338D01*
X122895915Y-68580324D01*
X123940553Y-67953103D01*
X123940569Y-67953093D01*
X123942016Y-67952224D01*
X124843785Y-67342069D01*
X124845260Y-67340938D01*
X124845269Y-67340932D01*
X125690549Y-66693078D01*
X125690579Y-66693055D01*
X125690850Y-66692847D01*
X126575725Y-65996862D01*
X126578938Y-65994418D01*
X127240601Y-65507480D01*
X127240621Y-65507465D01*
X127241064Y-65507139D01*
X127258761Y-65493629D01*
X127751097Y-65117761D01*
X128300199Y-64698556D01*
X128551985Y-64169880D01*
X128071033Y-63764455D01*
X127729834Y-63567294D01*
X127527342Y-63450285D01*
X127522068Y-63447062D01*
X127083639Y-63164161D01*
X126683404Y-62905906D01*
X126680610Y-62904049D01*
X126547739Y-62813196D01*
X125725817Y-62251193D01*
X125725022Y-62250644D01*
X125723410Y-62249522D01*
X124940313Y-61704716D01*
X124001563Y-61051621D01*
X124001538Y-61051604D01*
X124000976Y-61051213D01*
X124000377Y-61050814D01*
X122634728Y-60141451D01*
X122634714Y-60141442D01*
X122633586Y-60140691D01*
X121530506Y-59472210D01*
X120598947Y-58998597D01*
X120562288Y-58984587D01*
X119749379Y-58673920D01*
X119749375Y-58673919D01*
X119746118Y-58672674D01*
X119742740Y-58671796D01*
X119742738Y-58671795D01*
X118881643Y-58447895D01*
X118881638Y-58447894D01*
X118879227Y-58447267D01*
X118531779Y-58385870D01*
X117906202Y-58275325D01*
X117906162Y-58275318D01*
X117905486Y-58275199D01*
X116776234Y-58103239D01*
X116763901Y-58106412D01*
X116763900Y-58106412D01*
X116107333Y-58275325D01*
X115896431Y-58329583D01*
X114850982Y-58659772D01*
X114847031Y-58661655D01*
X114847028Y-58661656D01*
X114095182Y-59019940D01*
X113938836Y-59094445D01*
X113934833Y-59097174D01*
X113934830Y-59097176D01*
X113664045Y-59281800D01*
X113083177Y-59677841D01*
X113080191Y-59680487D01*
X113080185Y-59680492D01*
X112208308Y-60453204D01*
X112208296Y-60453215D01*
X112207187Y-60454198D01*
X111071076Y-61560184D01*
X59647920Y-61560184D01*
X59714131Y-61166656D01*
X59755811Y-60918928D01*
X59761781Y-60518932D01*
X59769635Y-59992682D01*
X59769635Y-59992671D01*
X59769674Y-59990038D01*
X59767704Y-59961552D01*
X59715360Y-59204869D01*
X59692284Y-58871281D01*
X59691831Y-58867685D01*
X59554850Y-57782233D01*
X59533879Y-57616057D01*
X59516887Y-57516830D01*
X59441438Y-57076254D01*
X59304698Y-56277767D01*
X59081935Y-55225943D01*
X59015235Y-54911005D01*
X59015231Y-54910989D01*
X59014982Y-54909812D01*
X58674969Y-53565594D01*
X58294898Y-52298513D01*
X58002743Y-51488423D01*
X57885844Y-51164286D01*
X57885843Y-51164284D01*
X57885009Y-51161971D01*
X57762980Y-50891298D01*
X57456244Y-50210929D01*
X57456240Y-50210922D01*
X57455540Y-50209368D01*
X57449832Y-50198330D01*
X57217355Y-49748769D01*
X57217354Y-49748768D01*
X57209033Y-49732677D01*
X57200437Y-49741067D01*
X56939808Y-49995455D01*
X56488254Y-50436197D01*
X56147643Y-50791430D01*
X55798618Y-51155438D01*
X55632235Y-51328963D01*
X54854205Y-52259699D01*
X54852908Y-52261494D01*
X54852902Y-52261501D01*
X54506338Y-52740930D01*
X54154919Y-53227075D01*
X54153726Y-53229005D01*
X53573224Y-54168142D01*
X53535136Y-54229760D01*
X53534066Y-54231816D01*
X53534062Y-54231823D01*
X53316769Y-54649337D01*
X52995610Y-55266423D01*
X52994684Y-55268584D01*
X52994681Y-55268589D01*
X52853621Y-55597560D01*
X52537100Y-56335732D01*
X52160360Y-57436358D01*
X51866149Y-58566970D01*
X51564972Y-59931835D01*
X50446177Y-59931835D01*
X50448504Y-59923309D01*
X50452074Y-59912262D01*
X50464360Y-59879487D01*
X50464361Y-59879482D01*
X50467511Y-59871079D01*
X50468390Y-59859247D01*
X50472489Y-59835413D01*
X50736364Y-58868440D01*
X50739570Y-58858373D01*
X50742348Y-58850770D01*
X50742350Y-58850761D01*
X50744018Y-58846197D01*
X50747367Y-58829312D01*
X50749404Y-58820653D01*
X50753115Y-58807056D01*
X50754819Y-58793404D01*
X50756256Y-58784493D01*
X50778187Y-58673920D01*
X50965329Y-57730352D01*
X50968125Y-57719030D01*
X51291042Y-56630619D01*
X51294288Y-56621092D01*
X51724262Y-55507272D01*
X51727807Y-55498988D01*
X52254806Y-54379651D01*
X52258612Y-54372219D01*
X52872168Y-53266509D01*
X52876318Y-53259567D01*
X52878268Y-53256532D01*
X53565523Y-52186409D01*
X53570127Y-52179724D01*
X53971345Y-51635631D01*
X54239289Y-51272270D01*
X54323826Y-51157629D01*
X54329077Y-51150988D01*
X54860716Y-50523119D01*
X55135729Y-50198328D01*
X55141886Y-50191569D01*
X55325987Y-50003674D01*
X55729259Y-49592090D01*
X55989488Y-49326497D01*
X55996935Y-49319489D01*
X56165022Y-49173717D01*
X56847341Y-48581981D01*
X56867815Y-48567526D01*
X57294950Y-48325710D01*
X57364084Y-48309556D01*
X57430977Y-48333343D01*
X57446366Y-48346509D01*
X57663157Y-48564532D01*
X57680768Y-48586774D01*
X58044225Y-49170525D01*
X58046147Y-49173717D01*
X58074241Y-49221963D01*
X58074244Y-49221966D01*
X58078761Y-49229724D01*
X58085275Y-49235903D01*
X58085276Y-49235904D01*
X58105640Y-49255221D01*
X58115365Y-49265547D01*
X58133426Y-49287027D01*
X58139207Y-49293902D01*
X58154344Y-49303975D01*
X58171246Y-49317451D01*
X58184440Y-49329966D01*
X58208802Y-49342479D01*
X58217401Y-49346896D01*
X58229638Y-49354080D01*
X58260469Y-49374597D01*
X58277828Y-49380018D01*
X58297822Y-49388204D01*
X58314005Y-49396516D01*
X58322816Y-49398211D01*
X58322817Y-49398211D01*
X58350378Y-49403512D01*
X58364138Y-49406972D01*
X58383525Y-49413026D01*
X58399504Y-49418016D01*
X58412474Y-49418252D01*
X58417681Y-49418347D01*
X58439184Y-49420594D01*
X58448224Y-49422333D01*
X58448231Y-49422333D01*
X58457041Y-49424028D01*
X58493927Y-49420533D01*
X58508093Y-49419992D01*
X58545138Y-49420667D01*
X58562688Y-49415880D01*
X58583943Y-49412003D01*
X58602049Y-49410288D01*
X58610384Y-49406969D01*
X58610388Y-49406968D01*
X58636462Y-49396585D01*
X58649916Y-49392088D01*
X58676998Y-49384700D01*
X58677002Y-49384698D01*
X58685662Y-49382336D01*
X58701159Y-49372818D01*
X58720481Y-49363127D01*
X58737373Y-49356401D01*
X58766557Y-49333589D01*
X58778208Y-49325496D01*
X58802133Y-49310801D01*
X58809779Y-49306105D01*
X58821981Y-49292621D01*
X58837809Y-49277896D01*
X58845059Y-49272229D01*
X58845060Y-49272228D01*
X58852132Y-49266700D01*
X58873743Y-49236610D01*
X58882654Y-49225574D01*
X58901489Y-49204760D01*
X58901492Y-49204755D01*
X58907512Y-49198103D01*
X58915439Y-49181737D01*
X58926497Y-49163162D01*
X58931866Y-49155687D01*
X58931867Y-49155685D01*
X58937103Y-49148395D01*
X58949403Y-49113443D01*
X58954853Y-49100360D01*
X58971005Y-49067012D01*
X58982554Y-48998314D01*
X58982933Y-48996172D01*
X58990699Y-48954421D01*
X59040650Y-48685886D01*
X63985201Y-48685886D01*
X63986437Y-48693032D01*
X63986437Y-48693035D01*
X64272911Y-50349499D01*
X64364383Y-50878410D01*
X64451380Y-51330617D01*
X64629455Y-52256247D01*
X64648596Y-52355744D01*
X64938692Y-53432972D01*
X64940290Y-53436804D01*
X64940291Y-53436807D01*
X65108944Y-53841250D01*
X65289523Y-54274294D01*
X65291966Y-54278325D01*
X65291967Y-54278327D01*
X65351075Y-54375858D01*
X65755947Y-55043914D01*
X65807157Y-55099577D01*
X66279480Y-55612971D01*
X66279481Y-55612972D01*
X66291747Y-55626304D01*
X66360014Y-55576515D01*
X67149282Y-55000875D01*
X67150343Y-55002330D01*
X67150481Y-55002230D01*
X67149283Y-55000869D01*
X67889259Y-54349863D01*
X67889263Y-54349859D01*
X67889792Y-54349394D01*
X68546380Y-53745875D01*
X69492570Y-52867977D01*
X69495001Y-52865780D01*
X70478094Y-52000174D01*
X70480449Y-51998151D01*
X71485312Y-51156414D01*
X71487693Y-51154469D01*
X71817911Y-50891298D01*
X72497779Y-50349470D01*
X72500225Y-50347570D01*
X73499080Y-49592080D01*
X73501872Y-49590029D01*
X73541707Y-49561595D01*
X74472793Y-48896986D01*
X74476074Y-48894721D01*
X75402508Y-48276911D01*
X75406593Y-48274300D01*
X76164488Y-47810280D01*
X76273103Y-47743781D01*
X76275620Y-47742280D01*
X77633745Y-46953586D01*
X77649410Y-46944489D01*
X77655372Y-46924254D01*
X77735768Y-46651368D01*
X98473905Y-46651368D01*
X99455132Y-47320216D01*
X100610508Y-47996243D01*
X100616427Y-47999931D01*
X101034819Y-48276920D01*
X101733917Y-48739747D01*
X101739641Y-48743769D01*
X102793296Y-49528781D01*
X102799214Y-49533473D01*
X103760615Y-50343692D01*
X103765579Y-50348104D01*
X104748596Y-51269371D01*
X104751589Y-51272270D01*
X105661127Y-52182994D01*
X105732891Y-52254852D01*
X105735619Y-52257670D01*
X106625700Y-53206314D01*
X106638294Y-53219737D01*
X106641490Y-53223275D01*
X107388749Y-54082817D01*
X107393771Y-54088978D01*
X107670256Y-54450952D01*
X107912479Y-54768072D01*
X107913171Y-54768986D01*
X108389763Y-55404855D01*
X108529515Y-55591312D01*
X109134197Y-55808385D01*
X109150242Y-55805641D01*
X109150244Y-55805641D01*
X110265459Y-55614903D01*
X110265466Y-55614901D01*
X110268836Y-55614325D01*
X110272126Y-55613385D01*
X110272131Y-55613384D01*
X110576217Y-55526517D01*
X111006141Y-55403703D01*
X111009981Y-55402028D01*
X111009986Y-55402026D01*
X111736451Y-55085103D01*
X111736452Y-55085103D01*
X111739958Y-55083573D01*
X112472558Y-54651367D01*
X112475277Y-54649341D01*
X112475282Y-54649337D01*
X113203860Y-54106266D01*
X113203861Y-54106265D01*
X113206213Y-54104512D01*
X113943193Y-53440438D01*
X113950266Y-53432972D01*
X114684319Y-52658106D01*
X114684323Y-52658101D01*
X114685770Y-52656574D01*
X115436215Y-51750350D01*
X116196797Y-50719195D01*
X116307890Y-50552675D01*
X116969085Y-49561595D01*
X116969089Y-49561589D01*
X116969790Y-49560538D01*
X117398319Y-48859412D01*
X117756900Y-48272730D01*
X117756913Y-48272707D01*
X117757463Y-48271808D01*
X118018729Y-47810280D01*
X118561660Y-46851190D01*
X118561671Y-46851169D01*
X118562087Y-46850435D01*
X118853629Y-46299592D01*
X119384756Y-45296076D01*
X119384762Y-45296063D01*
X119385934Y-45293849D01*
X119635771Y-44713772D01*
X119865919Y-44179413D01*
X119865925Y-44179397D01*
X119866330Y-44178458D01*
X120161499Y-43423922D01*
X120152603Y-43419256D01*
X120152601Y-43419254D01*
X119913772Y-43293975D01*
X119912291Y-43293198D01*
X119407004Y-43060943D01*
X118954893Y-42853130D01*
X118954891Y-42853129D01*
X118952702Y-42852123D01*
X117808181Y-42428364D01*
X116532127Y-42034565D01*
X116530741Y-42034206D01*
X116530732Y-42034203D01*
X115179234Y-41683707D01*
X115179218Y-41683703D01*
X115177937Y-41683371D01*
X115162520Y-41680062D01*
X114875713Y-41618507D01*
X113799009Y-41387422D01*
X113797631Y-41387189D01*
X113797614Y-41387186D01*
X112450364Y-41159639D01*
X112450347Y-41159637D01*
X112448739Y-41159365D01*
X112447124Y-41159177D01*
X112447109Y-41159175D01*
X111182649Y-41012088D01*
X111182650Y-41012088D01*
X111180526Y-41011841D01*
X111178403Y-41011739D01*
X111178389Y-41011738D01*
X110384117Y-40973631D01*
X110047766Y-40957494D01*
X110045008Y-40957604D01*
X110045002Y-40957604D01*
X108945803Y-41001454D01*
X108836152Y-41005828D01*
X108833441Y-41006172D01*
X108833434Y-41006173D01*
X108163486Y-41091284D01*
X107638089Y-41158031D01*
X107635452Y-41158599D01*
X107635442Y-41158601D01*
X107011302Y-41293107D01*
X106457038Y-41412553D01*
X105789810Y-41616813D01*
X105298958Y-41767078D01*
X105298950Y-41767081D01*
X105296457Y-41767844D01*
X105294029Y-41768815D01*
X105294023Y-41768817D01*
X104162181Y-42221403D01*
X104162174Y-42221406D01*
X104159806Y-42222353D01*
X104157523Y-42223489D01*
X104157524Y-42223489D01*
X103052771Y-42773419D01*
X103052762Y-42773424D01*
X103050542Y-42774529D01*
X102956972Y-42830779D01*
X101974201Y-43421576D01*
X101974190Y-43421583D01*
X101972126Y-43422824D01*
X101970161Y-43424222D01*
X101970158Y-43424224D01*
X100953915Y-44147259D01*
X100928017Y-44165685D01*
X100926212Y-44167184D01*
X100926211Y-44167185D01*
X100834104Y-44243690D01*
X99921672Y-45001563D01*
X98956553Y-45928907D01*
X98473905Y-46651368D01*
X77735768Y-46651368D01*
X77838479Y-46302735D01*
X77839405Y-46299592D01*
X77967919Y-45603148D01*
X77971493Y-44777264D01*
X77852488Y-43852593D01*
X77844954Y-43794055D01*
X77844953Y-43794050D01*
X77844583Y-43791174D01*
X77843952Y-43788349D01*
X77843950Y-43788338D01*
X77601561Y-42703266D01*
X80784168Y-42703266D01*
X80784239Y-42706271D01*
X80811326Y-43852593D01*
X80811691Y-43868060D01*
X80812509Y-43872715D01*
X80812510Y-43872721D01*
X80864017Y-44165685D01*
X80971749Y-44778451D01*
X80976329Y-44787138D01*
X80976329Y-44787139D01*
X81029750Y-44888472D01*
X81273586Y-45350995D01*
X81484828Y-45562235D01*
X82666868Y-45130844D01*
X82670661Y-45129529D01*
X83233189Y-44944559D01*
X83843239Y-44743963D01*
X83848918Y-44742243D01*
X85008619Y-44420557D01*
X85019807Y-44417996D01*
X85500829Y-44330755D01*
X85874423Y-44262998D01*
X85882279Y-44261827D01*
X86995185Y-44131738D01*
X87000966Y-44131197D01*
X88194889Y-44047153D01*
X88197949Y-44046975D01*
X89915766Y-43967985D01*
X90203380Y-43954760D01*
X90230848Y-43956506D01*
X90680712Y-44035089D01*
X91658357Y-44205865D01*
X91662918Y-44206749D01*
X92957840Y-44482497D01*
X92965946Y-44484506D01*
X93558148Y-44652302D01*
X94059895Y-44794468D01*
X94067285Y-44796811D01*
X95023189Y-45132649D01*
X95166267Y-44970407D01*
X95233089Y-44894634D01*
X95233089Y-44894633D01*
X95238523Y-44888472D01*
X95298154Y-44768779D01*
X95429105Y-44505926D01*
X95558034Y-44247134D01*
X95997920Y-43027390D01*
X96465679Y-41508360D01*
X96868808Y-39969164D01*
X96874119Y-39946419D01*
X97201792Y-38542902D01*
X97252613Y-38325222D01*
X97172514Y-36721458D01*
X97108342Y-35657257D01*
X97098486Y-35493810D01*
X97098485Y-35493792D01*
X97098418Y-35492688D01*
X96996605Y-34445768D01*
X96843772Y-33454895D01*
X96785037Y-33180644D01*
X96616893Y-32395543D01*
X96616892Y-32395539D01*
X96616619Y-32394264D01*
X96409826Y-31594414D01*
X96292008Y-31138709D01*
X96291997Y-31138667D01*
X96291842Y-31138069D01*
X95846141Y-29560507D01*
X95393089Y-28263185D01*
X94879290Y-27163753D01*
X94773011Y-27019131D01*
X94469147Y-26605640D01*
X94469146Y-26605639D01*
X94458418Y-26591041D01*
X94442878Y-26593059D01*
X94078819Y-26640338D01*
X93963900Y-26655262D01*
X92997847Y-27018186D01*
X92995794Y-27019131D01*
X91769780Y-27583385D01*
X91769771Y-27583389D01*
X91768327Y-27584054D01*
X90483408Y-28257105D01*
X90481756Y-28258104D01*
X90481743Y-28258111D01*
X89352622Y-28940695D01*
X89351160Y-28941579D01*
X88297977Y-29658599D01*
X87436576Y-30285761D01*
X87435426Y-30286684D01*
X87435410Y-30286696D01*
X87177350Y-30493764D01*
X86661521Y-30907666D01*
X86401307Y-31137441D01*
X85959770Y-31527329D01*
X85867378Y-31608913D01*
X85866665Y-31609585D01*
X85866648Y-31609600D01*
X84950144Y-32472757D01*
X84948714Y-32474104D01*
X84217578Y-33253935D01*
X84216083Y-33255795D01*
X83660166Y-33947435D01*
X83473547Y-34179615D01*
X82807700Y-35129950D01*
X82311115Y-35983748D01*
X81814592Y-37168914D01*
X81720647Y-37477634D01*
X81415030Y-38481942D01*
X81404394Y-38516892D01*
X81403866Y-38519289D01*
X81403863Y-38519299D01*
X81242024Y-39253494D01*
X81089762Y-39944239D01*
X81037368Y-40299643D01*
X80880284Y-41365174D01*
X80880282Y-41365188D01*
X80879940Y-41367511D01*
X80879771Y-41369865D01*
X80879770Y-41369876D01*
X80785898Y-42679132D01*
X80784168Y-42703266D01*
X77601561Y-42703266D01*
X77582074Y-42616033D01*
X77581644Y-42614108D01*
X77544775Y-42486613D01*
X77177499Y-41216575D01*
X77177130Y-41215299D01*
X76695864Y-39774624D01*
X76625670Y-39564498D01*
X76625659Y-39564466D01*
X76625496Y-39563978D01*
X75704313Y-36937481D01*
X75679724Y-36896777D01*
X74926656Y-35650203D01*
X74762243Y-35378046D01*
X74458326Y-34905350D01*
X74201879Y-34506488D01*
X74201004Y-34505127D01*
X74157194Y-34443999D01*
X73636601Y-33717611D01*
X73636598Y-33717607D01*
X73635224Y-33715690D01*
X73415444Y-33453110D01*
X73189104Y-33182691D01*
X73189096Y-33182682D01*
X73187390Y-33180644D01*
X73185518Y-33178756D01*
X73185511Y-33178749D01*
X72567365Y-32555538D01*
X72567364Y-32555537D01*
X72554607Y-32542676D01*
X72003649Y-32962833D01*
X71082526Y-33715769D01*
X70200091Y-34537470D01*
X69360316Y-35420817D01*
X68567175Y-36358691D01*
X67824640Y-37343974D01*
X67823662Y-37345432D01*
X67137638Y-38368124D01*
X67137629Y-38368138D01*
X67136684Y-38369547D01*
X67135816Y-38371007D01*
X67135811Y-38371015D01*
X66971950Y-38646652D01*
X66507281Y-39428290D01*
X66506496Y-39429793D01*
X66506490Y-39429803D01*
X66314038Y-39798085D01*
X65940403Y-40513085D01*
X65939680Y-40514681D01*
X65939677Y-40514686D01*
X65717065Y-41005719D01*
X65440022Y-41616813D01*
X65439371Y-41618502D01*
X65439369Y-41618507D01*
X65010805Y-42730558D01*
X65010800Y-42730573D01*
X65010113Y-42732355D01*
X65009536Y-42734174D01*
X65009533Y-42734182D01*
X64898434Y-43084308D01*
X64654648Y-43852593D01*
X64516076Y-44411691D01*
X64392732Y-44909351D01*
X64377599Y-44970407D01*
X64377221Y-44972558D01*
X64377221Y-44972559D01*
X64196230Y-46003020D01*
X64182941Y-46078679D01*
X64074645Y-47170290D01*
X64072982Y-47198464D01*
X63985836Y-48675133D01*
X63985201Y-48685886D01*
X59040650Y-48685886D01*
X59133142Y-48188645D01*
X59134889Y-48180691D01*
X59153175Y-48108655D01*
X59411691Y-47090255D01*
X59416122Y-47076272D01*
X59450422Y-46986545D01*
X59713017Y-46299592D01*
X59823859Y-46009629D01*
X59829636Y-45996735D01*
X60102317Y-45469513D01*
X60343969Y-45002284D01*
X60352037Y-44988816D01*
X60363208Y-44972559D01*
X60948353Y-44120975D01*
X60955938Y-44111033D01*
X62066958Y-42795871D01*
X62096321Y-42770404D01*
X62277066Y-42657186D01*
X62345413Y-42637975D01*
X62413297Y-42658766D01*
X62420900Y-42664193D01*
X62491302Y-42718494D01*
X62499113Y-42725192D01*
X62504047Y-42731447D01*
X62511360Y-42736650D01*
X62511362Y-42736652D01*
X62554260Y-42767174D01*
X62558166Y-42770068D01*
X62565618Y-42775815D01*
X62576554Y-42784250D01*
X62580464Y-42786462D01*
X62583723Y-42788624D01*
X62590197Y-42792743D01*
X62595239Y-42796330D01*
X62599592Y-42798508D01*
X62615527Y-42806481D01*
X62621180Y-42809491D01*
X62628095Y-42813402D01*
X62671231Y-42837801D01*
X62679971Y-42839850D01*
X62684850Y-42841756D01*
X62695374Y-42846433D01*
X62993004Y-42995355D01*
X63003790Y-43001432D01*
X63010627Y-43007244D01*
X63018824Y-43010905D01*
X63065265Y-43031647D01*
X63070248Y-43034005D01*
X63089621Y-43043698D01*
X63094082Y-43045185D01*
X63105633Y-43049676D01*
X63143623Y-43066643D01*
X63157101Y-43068481D01*
X63179908Y-43073788D01*
X63192813Y-43078089D01*
X63201786Y-43078423D01*
X63234395Y-43079637D01*
X63246723Y-43080704D01*
X63287945Y-43086326D01*
X63301396Y-43084308D01*
X63324774Y-43083000D01*
X63338370Y-43083506D01*
X63347070Y-43081310D01*
X63347077Y-43081309D01*
X63378714Y-43073322D01*
X63390853Y-43070885D01*
X63411045Y-43067855D01*
X63423115Y-43066044D01*
X63423116Y-43066044D01*
X63431990Y-43064712D01*
X63440132Y-43060944D01*
X63440136Y-43060943D01*
X63444330Y-43059002D01*
X63466406Y-43051184D01*
X63466920Y-43051054D01*
X63479596Y-43047854D01*
X63515459Y-43026756D01*
X63526432Y-43021007D01*
X63556033Y-43007309D01*
X63556037Y-43007307D01*
X63564178Y-43003539D01*
X63570937Y-42997636D01*
X63574420Y-42994594D01*
X63593409Y-42980898D01*
X63597402Y-42978549D01*
X63597403Y-42978548D01*
X63605141Y-42973996D01*
X63633647Y-42943673D01*
X63642553Y-42935087D01*
X63673885Y-42907723D01*
X63678789Y-42900045D01*
X63681207Y-42896260D01*
X63695591Y-42877782D01*
X63698757Y-42874414D01*
X63704908Y-42867871D01*
X63723753Y-42830778D01*
X63729892Y-42820035D01*
X63731507Y-42817506D01*
X63731508Y-42817505D01*
X63734128Y-42813402D01*
X63742605Y-42794106D01*
X63745626Y-42787722D01*
X63762935Y-42753651D01*
X63770881Y-42738010D01*
X63772537Y-42729186D01*
X63775427Y-42720689D01*
X63776126Y-42720927D01*
X63779403Y-42710344D01*
X64053282Y-42086916D01*
X64232021Y-41680056D01*
X64235519Y-41673194D01*
X64235509Y-41673189D01*
X64237632Y-41668810D01*
X64240088Y-41664606D01*
X64249988Y-41639400D01*
X64251894Y-41634817D01*
X64258157Y-41620563D01*
X64261510Y-41612930D01*
X64262710Y-41608623D01*
X64263330Y-41606886D01*
X64266620Y-41597057D01*
X64678030Y-40549603D01*
X64681166Y-40542304D01*
X64795535Y-40297669D01*
X65124007Y-39595063D01*
X65166414Y-39504355D01*
X65169926Y-39497409D01*
X65703130Y-38519299D01*
X65723496Y-38481940D01*
X65727335Y-38475377D01*
X66348273Y-37483797D01*
X66352390Y-37477634D01*
X66765583Y-36896777D01*
X67039762Y-36511343D01*
X67044087Y-36505618D01*
X67729526Y-35650203D01*
X67796936Y-35566077D01*
X67801464Y-35560737D01*
X68618828Y-34649427D01*
X68623498Y-34644494D01*
X69504391Y-33762930D01*
X69509164Y-33758396D01*
X70452615Y-32908085D01*
X70457460Y-32903936D01*
X71242005Y-32265745D01*
X71462390Y-32086472D01*
X71467271Y-32082697D01*
X71478122Y-32074722D01*
X72479714Y-31338538D01*
X72507522Y-31323083D01*
X73008775Y-31122488D01*
X73079451Y-31115749D01*
X73099798Y-31121479D01*
X73465696Y-31258577D01*
X73516613Y-31293941D01*
X74190110Y-32069330D01*
X74198836Y-32080606D01*
X74312757Y-32246420D01*
X74318698Y-32256078D01*
X74321677Y-32264022D01*
X74327057Y-32271199D01*
X74327059Y-32271202D01*
X74358094Y-32312599D01*
X74361129Y-32316827D01*
X74373821Y-32335300D01*
X74376862Y-32338602D01*
X74377782Y-32339756D01*
X74384588Y-32347939D01*
X74403661Y-32373381D01*
X74403663Y-32373383D01*
X74409048Y-32380566D01*
X74416233Y-32385949D01*
X74420592Y-32389215D01*
X74437725Y-32404697D01*
X74447503Y-32415315D01*
X74455190Y-32419944D01*
X74455193Y-32419947D01*
X74482440Y-32436356D01*
X74492978Y-32443450D01*
X74525616Y-32467905D01*
X74539129Y-32472968D01*
X74559917Y-32483018D01*
X74572279Y-32490463D01*
X74608507Y-32500007D01*
X74611718Y-32500853D01*
X74623822Y-32504704D01*
X74662012Y-32519015D01*
X74670963Y-32519679D01*
X74676397Y-32520082D01*
X74699177Y-32523895D01*
X74704444Y-32525283D01*
X74704453Y-32525284D01*
X74713130Y-32527570D01*
X74722103Y-32527329D01*
X74722105Y-32527329D01*
X74740863Y-32526824D01*
X74753896Y-32526474D01*
X74766595Y-32526773D01*
X74807271Y-32529790D01*
X74821382Y-32526776D01*
X74844313Y-32524043D01*
X74858735Y-32523655D01*
X74897559Y-32511160D01*
X74909839Y-32507881D01*
X74940933Y-32501239D01*
X74940935Y-32501238D01*
X74949714Y-32499363D01*
X74962413Y-32492509D01*
X74983645Y-32483453D01*
X74988843Y-32481780D01*
X74988845Y-32481779D01*
X74997389Y-32479029D01*
X75031144Y-32456140D01*
X75042006Y-32449548D01*
X75077893Y-32430179D01*
X75088160Y-32420034D01*
X75105998Y-32405382D01*
X75117944Y-32397282D01*
X75143920Y-32365837D01*
X75152497Y-32356462D01*
X75154036Y-32354941D01*
X75154037Y-32354940D01*
X75157503Y-32351515D01*
X75170514Y-32333927D01*
X75174654Y-32328632D01*
X75210710Y-32284985D01*
X75214253Y-32276742D01*
X75218129Y-32270394D01*
X75224369Y-32261125D01*
X75356803Y-32082101D01*
X75880641Y-31373975D01*
X75883558Y-31370185D01*
X75908887Y-31338538D01*
X76633736Y-30432864D01*
X76705004Y-30343817D01*
X76709362Y-30338661D01*
X77671892Y-29259930D01*
X77676067Y-29255473D01*
X78606260Y-28309543D01*
X78613347Y-28302873D01*
X79316272Y-27690665D01*
X79333375Y-27678134D01*
X79542062Y-27550744D01*
X80224361Y-27134243D01*
X80231105Y-27130406D01*
X80441511Y-27019131D01*
X81572943Y-26420763D01*
X81577492Y-26418474D01*
X82830422Y-25819430D01*
X82841731Y-25814684D01*
X83206968Y-25681935D01*
X83277824Y-25677464D01*
X83326212Y-25700010D01*
X83402171Y-25757694D01*
X83436753Y-25798017D01*
X83835288Y-26533621D01*
X83849972Y-26560724D01*
X83858029Y-26578884D01*
X84295039Y-27819548D01*
X84299031Y-27833346D01*
X84449383Y-28491453D01*
X84629619Y-29280365D01*
X84637543Y-29315051D01*
X84638944Y-29322105D01*
X84679820Y-29563912D01*
X84807330Y-30318199D01*
X84808766Y-30330134D01*
X84811857Y-30372976D01*
X84814991Y-30381390D01*
X84814991Y-30381392D01*
X84832085Y-30427291D01*
X84834014Y-30432864D01*
X84848904Y-30479395D01*
X84851690Y-30488102D01*
X84856718Y-30495544D01*
X84857465Y-30497082D01*
X84858014Y-30498366D01*
X84858747Y-30499571D01*
X84859559Y-30501062D01*
X84862692Y-30509475D01*
X84897371Y-30555956D01*
X84900769Y-30560741D01*
X84933236Y-30608793D01*
X84940144Y-30614519D01*
X84941292Y-30615785D01*
X84942185Y-30616870D01*
X84943222Y-30617816D01*
X84944427Y-30619026D01*
X84949794Y-30626220D01*
X84956963Y-30631617D01*
X84956965Y-30631619D01*
X84996121Y-30661097D01*
X85000738Y-30664745D01*
X85045378Y-30701746D01*
X85053619Y-30705304D01*
X85055085Y-30706203D01*
X85056236Y-30706986D01*
X85057499Y-30707605D01*
X85058989Y-30708425D01*
X85066162Y-30713825D01*
X85074563Y-30716995D01*
X85120380Y-30734284D01*
X85125847Y-30736494D01*
X85179101Y-30759490D01*
X85188013Y-30760593D01*
X85189670Y-30761043D01*
X85190993Y-30761471D01*
X85192394Y-30761713D01*
X85194038Y-30762078D01*
X85202440Y-30765249D01*
X85211394Y-30765934D01*
X85211395Y-30765934D01*
X85231685Y-30767486D01*
X85260239Y-30769670D01*
X85266090Y-30770255D01*
X85323656Y-30777379D01*
X85332517Y-30775937D01*
X85334229Y-30775904D01*
X85335627Y-30775944D01*
X85337018Y-30775785D01*
X85338723Y-30775672D01*
X85347673Y-30776357D01*
X85404419Y-30764372D01*
X85410186Y-30763294D01*
X85467422Y-30753978D01*
X85475525Y-30750105D01*
X85477143Y-30749598D01*
X85478508Y-30749241D01*
X85479803Y-30748696D01*
X85481400Y-30748112D01*
X85490186Y-30746257D01*
X85498093Y-30742013D01*
X85498095Y-30742012D01*
X85541290Y-30718826D01*
X85546537Y-30716166D01*
X85598841Y-30691167D01*
X85633781Y-30659877D01*
X85641853Y-30653233D01*
X86525085Y-29985826D01*
X86525343Y-29985646D01*
X86525675Y-29985467D01*
X86556867Y-29961810D01*
X86585652Y-29940059D01*
X86585918Y-29939790D01*
X86586159Y-29939594D01*
X87079551Y-29565393D01*
X87396331Y-29325139D01*
X87396759Y-29324839D01*
X87397296Y-29324547D01*
X87428345Y-29300858D01*
X87456724Y-29279335D01*
X87457152Y-29278902D01*
X87457546Y-29278579D01*
X88203347Y-28709576D01*
X88204749Y-28708522D01*
X89164778Y-27997071D01*
X89170795Y-27992878D01*
X89288541Y-27915818D01*
X89651715Y-27678134D01*
X90009092Y-27444244D01*
X90015404Y-27440373D01*
X91039200Y-26853194D01*
X91042488Y-26851372D01*
X91061183Y-26841379D01*
X91747910Y-26474294D01*
X92541654Y-26050004D01*
X92549427Y-26046187D01*
X93511931Y-25613865D01*
X93526714Y-25608310D01*
X94383679Y-25346280D01*
X94389868Y-25344559D01*
X94984499Y-25195413D01*
X95055439Y-25198241D01*
G37*
%TD.AperFunction*%
M02*
